%TF.GenerationSoftware,KiCad,Pcbnew,9.0.5*%
%TF.CreationDate,2025-10-28T12:45:37-04:00*%
%TF.ProjectId,oshe_dmm_project_v1,6f736865-5f64-46d6-9d5f-70726f6a6563,V1*%
%TF.SameCoordinates,Original*%
%TF.FileFunction,Copper,L4,Bot*%
%TF.FilePolarity,Positive*%
%FSLAX46Y46*%
G04 Gerber Fmt 4.6, Leading zero omitted, Abs format (unit mm)*
G04 Created by KiCad (PCBNEW 9.0.5) date 2025-10-28 12:45:37*
%MOMM*%
%LPD*%
G01*
G04 APERTURE LIST*
G04 Aperture macros list*
%AMRoundRect*
0 Rectangle with rounded corners*
0 $1 Rounding radius*
0 $2 $3 $4 $5 $6 $7 $8 $9 X,Y pos of 4 corners*
0 Add a 4 corners polygon primitive as box body*
4,1,4,$2,$3,$4,$5,$6,$7,$8,$9,$2,$3,0*
0 Add four circle primitives for the rounded corners*
1,1,$1+$1,$2,$3*
1,1,$1+$1,$4,$5*
1,1,$1+$1,$6,$7*
1,1,$1+$1,$8,$9*
0 Add four rect primitives between the rounded corners*
20,1,$1+$1,$2,$3,$4,$5,0*
20,1,$1+$1,$4,$5,$6,$7,0*
20,1,$1+$1,$6,$7,$8,$9,0*
20,1,$1+$1,$8,$9,$2,$3,0*%
G04 Aperture macros list end*
%TA.AperFunction,ComponentPad*%
%ADD10C,1.440000*%
%TD*%
%TA.AperFunction,ComponentPad*%
%ADD11C,3.000000*%
%TD*%
%TA.AperFunction,ComponentPad*%
%ADD12R,1.800000X2.600000*%
%TD*%
%TA.AperFunction,ComponentPad*%
%ADD13O,1.800000X2.600000*%
%TD*%
%TA.AperFunction,ComponentPad*%
%ADD14C,1.980000*%
%TD*%
%TA.AperFunction,ComponentPad*%
%ADD15R,1.778000X1.778000*%
%TD*%
%TA.AperFunction,ComponentPad*%
%ADD16C,1.778000*%
%TD*%
%TA.AperFunction,ComponentPad*%
%ADD17O,3.500000X1.750000*%
%TD*%
%TA.AperFunction,ComponentPad*%
%ADD18O,1.750000X3.500000*%
%TD*%
%TA.AperFunction,ComponentPad*%
%ADD19C,4.000000*%
%TD*%
%TA.AperFunction,ComponentPad*%
%ADD20RoundRect,0.250000X-0.550000X0.550000X-0.550000X-0.550000X0.550000X-0.550000X0.550000X0.550000X0*%
%TD*%
%TA.AperFunction,ComponentPad*%
%ADD21C,1.600000*%
%TD*%
%TA.AperFunction,ComponentPad*%
%ADD22R,1.700000X1.700000*%
%TD*%
%TA.AperFunction,ComponentPad*%
%ADD23O,1.700000X1.700000*%
%TD*%
%TA.AperFunction,ComponentPad*%
%ADD24R,1.397000X1.397000*%
%TD*%
%TA.AperFunction,ComponentPad*%
%ADD25C,1.397000*%
%TD*%
%TA.AperFunction,ComponentPad*%
%ADD26C,6.918200*%
%TD*%
%TA.AperFunction,ComponentPad*%
%ADD27C,1.700000*%
%TD*%
%TA.AperFunction,ComponentPad*%
%ADD28C,1.500000*%
%TD*%
%TA.AperFunction,ComponentPad*%
%ADD29R,1.210000X1.210000*%
%TD*%
%TA.AperFunction,ComponentPad*%
%ADD30C,1.210000*%
%TD*%
%TA.AperFunction,ViaPad*%
%ADD31C,1.000000*%
%TD*%
%TA.AperFunction,ViaPad*%
%ADD32C,0.600000*%
%TD*%
%TA.AperFunction,ViaPad*%
%ADD33C,1.500000*%
%TD*%
%TA.AperFunction,Conductor*%
%ADD34C,0.200000*%
%TD*%
%TA.AperFunction,Conductor*%
%ADD35C,0.300000*%
%TD*%
%TA.AperFunction,Conductor*%
%ADD36C,0.500000*%
%TD*%
%TA.AperFunction,Conductor*%
%ADD37C,1.000000*%
%TD*%
G04 APERTURE END LIST*
D10*
%TO.P,RV1,1,1*%
%TO.N,+5V*%
X138130000Y-113378000D03*
%TO.P,RV1,2,2*%
%TO.N,Net-(DS1-VO)*%
X135590000Y-113378000D03*
%TO.P,RV1,3,3*%
%TO.N,GND*%
X133050000Y-113378000D03*
%TD*%
D11*
%TO.P,DS1,*%
%TO.N,*%
X126990900Y-74174500D03*
X126990900Y-105175200D03*
X201989480Y-105175200D03*
X201990000Y-74174500D03*
D12*
%TO.P,DS1,1,VSS*%
%TO.N,GND*%
X132490000Y-74174500D03*
D13*
%TO.P,DS1,2,VDD*%
%TO.N,+5V*%
X135030000Y-74174500D03*
%TO.P,DS1,3,VO*%
%TO.N,Net-(DS1-VO)*%
X137570000Y-74174500D03*
%TO.P,DS1,4,RS*%
%TO.N,MISO{slash}D12*%
X140110000Y-74174500D03*
%TO.P,DS1,5,R/W*%
%TO.N,GND*%
X142650000Y-74174500D03*
%TO.P,DS1,6,E*%
%TO.N,MOSI{slash}D11*%
X145190000Y-74174500D03*
%TO.P,DS1,7,D0*%
%TO.N,unconnected-(DS1-D0-Pad7)*%
X147730000Y-74174500D03*
%TO.P,DS1,8,D1*%
%TO.N,unconnected-(DS1-D1-Pad8)*%
X150270000Y-74174500D03*
%TO.P,DS1,9,D2*%
%TO.N,unconnected-(DS1-D2-Pad9)*%
X152810000Y-74174500D03*
%TO.P,DS1,10,D3*%
%TO.N,unconnected-(DS1-D3-Pad10)*%
X155350000Y-74174500D03*
%TO.P,DS1,11,D4*%
%TO.N,D5*%
X157890000Y-74174500D03*
%TO.P,DS1,12,D5*%
%TO.N,D4*%
X160430000Y-74174500D03*
%TO.P,DS1,13,D6*%
%TO.N,D3*%
X162970000Y-74174500D03*
%TO.P,DS1,14,D7*%
%TO.N,D2*%
X165510000Y-74174500D03*
%TO.P,DS1,15,LED(+)*%
%TO.N,Net-(DS1-LED(+))*%
X168050000Y-74174500D03*
%TO.P,DS1,16,LED(-)*%
%TO.N,GND*%
X170590000Y-74174500D03*
%TD*%
D14*
%TO.P,F2,1*%
%TO.N,Current_Input*%
X187590000Y-221628000D03*
%TO.P,F2,2*%
%TO.N,Net-(U3-AIN2)*%
X187590000Y-199128000D03*
%TD*%
D15*
%TO.P,U3,1,VDD*%
%TO.N,+5V*%
X167130000Y-198878000D03*
D16*
%TO.P,U3,2,GND*%
%TO.N,GND*%
X164590000Y-198878000D03*
%TO.P,U3,3,SCL*%
%TO.N,SCL*%
X162050000Y-198878000D03*
%TO.P,U3,4,SDA*%
%TO.N,SDA*%
X159510000Y-198878000D03*
%TO.P,U3,5,ADDR*%
%TO.N,GND*%
X156970000Y-198878000D03*
%TO.P,U3,6,ALERT/RDY*%
%TO.N,unconnected-(U3-ALERT{slash}RDY-Pad6)*%
X154430000Y-198878000D03*
%TO.P,U3,7,AIN0*%
%TO.N,V_ADC_Input*%
X151890000Y-198878000D03*
%TO.P,U3,8,AIN1*%
%TO.N,GND*%
X149350000Y-198878000D03*
%TO.P,U3,9,AIN2*%
%TO.N,Net-(U3-AIN2)*%
X146810000Y-198878000D03*
%TO.P,U3,10,AIN3*%
%TO.N,GND*%
X144270000Y-198878000D03*
%TD*%
D17*
%TO.P,J22,1*%
%TO.N,Net-(U8-AIN2)*%
X175590000Y-224578000D03*
%TO.P,J22,2*%
%TO.N,Net-(U8-AIN3)*%
X175590000Y-210878000D03*
D18*
%TO.P,J22,3*%
%TO.N,unconnected-(J22-Pad3)*%
X180790000Y-213378000D03*
%TD*%
D19*
%TO.P,BAT-1,1,1*%
%TO.N,GND*%
X128447400Y-222766200D03*
%TD*%
D20*
%TO.P,C9,1*%
%TO.N,+5V*%
X124030000Y-134838000D03*
D21*
%TO.P,C9,2*%
%TO.N,GND*%
X124030000Y-137338000D03*
%TD*%
D19*
%TO.P,BAT+1,1,1*%
%TO.N,Net-(JP1-C)*%
X141909400Y-222766200D03*
%TD*%
D22*
%TO.P,J1,1,Pin_1*%
%TO.N,DTR*%
X126144000Y-205981000D03*
D23*
%TO.P,J1,2,Pin_2*%
%TO.N,TXD*%
X126144000Y-203441000D03*
%TO.P,J1,3,Pin_3*%
%TO.N,RXD*%
X126144000Y-200901000D03*
%TO.P,J1,4,Pin_4*%
%TO.N,+5V*%
X126144000Y-198361000D03*
%TO.P,J1,5,Pin_5*%
%TO.N,GND*%
X126144000Y-195821000D03*
%TO.P,J1,6,Pin_6*%
X126144000Y-193281000D03*
%TD*%
D22*
%TO.P,J6,1,Pin_1*%
%TO.N,9V_BAT_IN*%
X146451000Y-211006000D03*
D23*
%TO.P,J6,2,Pin_2*%
%TO.N,Net-(J6-Pin_2)*%
X148991000Y-211006000D03*
%TD*%
D22*
%TO.P,J10,1,Pin_1*%
%TO.N,+5V*%
X159634000Y-183467400D03*
D23*
%TO.P,J10,2,Pin_2*%
%TO.N,Net-(J10-Pin_2)*%
X159634000Y-186007400D03*
%TD*%
D24*
%TO.P,U2,1,Cc*%
%TO.N,GND*%
X167650000Y-149948000D03*
D25*
%TO.P,U2,2,Vin*%
%TO.N,Net-(U2-Vin)*%
X167650000Y-147408000D03*
%TO.P,U2,3,Cf*%
%TO.N,Net-(U2-Cf)*%
X167650000Y-144868000D03*
%TO.P,U2,4,-Vs*%
%TO.N,Net-(U2--Vs)*%
X167650000Y-142328000D03*
%TO.P,U2,5,Cav*%
%TO.N,Net-(U2-Cav)*%
X160030000Y-142328000D03*
%TO.P,U2,6,OUTPUT*%
%TO.N,Net-(U2-OUTPUT)*%
X160030000Y-144868000D03*
%TO.P,U2,7,+Vs*%
%TO.N,+5V*%
X160030000Y-147408000D03*
%TO.P,U2,8,COM*%
%TO.N,GND*%
X160030000Y-149948000D03*
%TD*%
D22*
%TO.P,J13,1,Pin_1*%
%TO.N,+5V*%
X179105600Y-183447000D03*
D23*
%TO.P,J13,2,Pin_2*%
%TO.N,Net-(J13-Pin_2)*%
X179105600Y-185987000D03*
%TD*%
D14*
%TO.P,F1,1*%
%TO.N,Voltage_Input*%
X201116800Y-169678000D03*
%TO.P,F1,2*%
%TO.N,2V_Rang*%
X201116800Y-147178000D03*
%TD*%
D26*
%TO.P,J3,1,1*%
%TO.N,GND*%
X201193000Y-198610000D03*
%TD*%
D22*
%TO.P,J18,1,Pin_1*%
%TO.N,+5V*%
X165750000Y-170778000D03*
D27*
%TO.P,J18,2,Pin_2*%
%TO.N,Net-(J18-Pin_2)*%
X165750000Y-173318000D03*
%TD*%
D28*
%TO.P,Y1,1,1*%
%TO.N,Net-(U1-XTAL2{slash}PB7)*%
X125359319Y-164818681D03*
%TO.P,Y1,2,2*%
%TO.N,Net-(U1-XTAL1{slash}PB6)*%
X128810000Y-161368000D03*
%TD*%
D22*
%TO.P,J14,1,Pin_1*%
%TO.N,+5V*%
X153720000Y-170788000D03*
D27*
%TO.P,J14,2,Pin_2*%
%TO.N,Net-(J14-Pin_2)*%
X153720000Y-173328000D03*
%TD*%
D22*
%TO.P,J7,1,Pin_1*%
%TO.N,2V_Rang*%
X147218000Y-190990800D03*
D23*
%TO.P,J7,2,Pin_2*%
%TO.N,V_ADC_Input*%
X147218000Y-193530800D03*
%TD*%
D15*
%TO.P,U8,1,VDD*%
%TO.N,+5V*%
X155590000Y-137438000D03*
D16*
%TO.P,U8,2,GND*%
%TO.N,GND*%
X155590000Y-139978000D03*
%TO.P,U8,3,SCL*%
%TO.N,SCL*%
X155590000Y-142518000D03*
%TO.P,U8,4,SDA*%
%TO.N,SDA*%
X155590000Y-145058000D03*
%TO.P,U8,5,ADDR*%
%TO.N,GND*%
X155590000Y-147598000D03*
%TO.P,U8,6,ALERT/RDY*%
%TO.N,unconnected-(U8-ALERT{slash}RDY-Pad6)*%
X155590000Y-150138000D03*
%TO.P,U8,7,AIN0*%
%TO.N,Net-(U2-OUTPUT)*%
X155590000Y-152678000D03*
%TO.P,U8,8,AIN1*%
%TO.N,unconnected-(U8-AIN1-Pad8)*%
X155590000Y-155218000D03*
%TO.P,U8,9,AIN2*%
%TO.N,Net-(U8-AIN2)*%
X155590000Y-157758000D03*
%TO.P,U8,10,AIN3*%
%TO.N,Net-(U8-AIN3)*%
X155590000Y-160298000D03*
%TD*%
D22*
%TO.P,J11,1,Pin_1*%
%TO.N,200V_Rang*%
X179476000Y-190990800D03*
D23*
%TO.P,J11,2,Pin_2*%
%TO.N,V_ADC_Input*%
X179476000Y-193530800D03*
%TD*%
D22*
%TO.P,J12,1,Pin_1*%
%TO.N,+5V*%
X169365000Y-183447000D03*
D23*
%TO.P,J12,2,Pin_2*%
%TO.N,Net-(J12-Pin_2)*%
X169365000Y-185987000D03*
%TD*%
D22*
%TO.P,J20,1,Pin_1*%
%TO.N,+5V*%
X174190000Y-170768000D03*
D27*
%TO.P,J20,2,Pin_2*%
%TO.N,Net-(J20-Pin_2)*%
X174190000Y-173308000D03*
%TD*%
D22*
%TO.P,J16,1,Pin_1*%
%TO.N,+5V*%
X170080000Y-170818000D03*
D27*
%TO.P,J16,2,Pin_2*%
%TO.N,Net-(J16-Pin_2)*%
X170080000Y-173358000D03*
%TD*%
D26*
%TO.P,J2,1,1*%
%TO.N,Voltage_Input*%
X201193000Y-179610000D03*
%TD*%
%TO.P,J4,1,1*%
%TO.N,Current_Input*%
X201193000Y-217610000D03*
%TD*%
D22*
%TO.P,J9,1,Pin_1*%
%TO.N,20V_Rang*%
X165810800Y-190985800D03*
D23*
%TO.P,J9,2,Pin_2*%
%TO.N,V_ADC_Input*%
X165810800Y-193525800D03*
%TD*%
D29*
%TO.P,U4,1,X4*%
%TO.N,Net-(U4-X4)*%
X145790000Y-139318000D03*
D30*
%TO.P,U4,2,X6*%
%TO.N,Net-(U4-X6)*%
X143250000Y-139318000D03*
%TO.P,U4,3,X*%
%TO.N,A0*%
X140710000Y-139318000D03*
%TO.P,U4,4,X7*%
%TO.N,Net-(U4-X7)*%
X138170000Y-139318000D03*
%TO.P,U4,5,X5*%
%TO.N,Net-(U4-X5)*%
X135630000Y-139318000D03*
%TO.P,U4,6,ENABLE*%
%TO.N,D9*%
X133090000Y-139318000D03*
%TO.P,U4,7,N.C.*%
%TO.N,unconnected-(U4-N.C.-Pad7)*%
X130550000Y-139318000D03*
%TO.P,U4,8,GND*%
%TO.N,GND*%
X128010000Y-139318000D03*
%TO.P,U4,9,C*%
%TO.N,D8*%
X128010000Y-147258000D03*
%TO.P,U4,10,B*%
%TO.N,D7*%
X130550000Y-147258000D03*
%TO.P,U4,11,A*%
%TO.N,D6*%
X133090000Y-147258000D03*
%TO.P,U4,12,X3*%
%TO.N,Net-(U4-X3)*%
X135630000Y-147258000D03*
%TO.P,U4,13,X0*%
%TO.N,Net-(U4-X0)*%
X138170000Y-147258000D03*
%TO.P,U4,14,X1*%
%TO.N,Net-(U4-X1)*%
X140710000Y-147258000D03*
%TO.P,U4,15,X2*%
%TO.N,Net-(U4-X2)*%
X143250000Y-147258000D03*
%TO.P,U4,16,VCC*%
%TO.N,+5V*%
X145790000Y-147258000D03*
%TD*%
D22*
%TO.P,J21,1,Pin_1*%
%TO.N,+5V*%
X161280000Y-170868000D03*
D27*
%TO.P,J21,2,Pin_2*%
%TO.N,Net-(J21-Pin_2)*%
X161280000Y-173408000D03*
%TD*%
D22*
%TO.P,J5,1,Pin_1*%
%TO.N,+5V*%
X157480000Y-170788000D03*
D27*
%TO.P,J5,2,Pin_2*%
%TO.N,Net-(J5-Pin_2)*%
X157480000Y-173328000D03*
%TD*%
D22*
%TO.P,J8,1,Pin_1*%
%TO.N,+5V*%
X150820000Y-183468000D03*
D23*
%TO.P,J8,2,Pin_2*%
%TO.N,Net-(J8-Pin_2)*%
X150820000Y-186008000D03*
%TD*%
D19*
%TO.P,Thermistor1,1,1*%
%TO.N,TS*%
X135259400Y-223198000D03*
%TD*%
D31*
%TO.N,*%
X125990000Y-125578000D03*
X141990000Y-125598000D03*
X133990000Y-125598000D03*
X155020000Y-125608000D03*
%TO.N,GND*%
X126923400Y-217991000D03*
X128320400Y-217991000D03*
X166649000Y-207450000D03*
X134067000Y-178919600D03*
X172470000Y-139708000D03*
X167284000Y-216467000D03*
X129717400Y-217991000D03*
X124129400Y-214892200D03*
X167284000Y-213927000D03*
X126923400Y-219388000D03*
X147720000Y-176558000D03*
X129717400Y-219388000D03*
X167284000Y-220277000D03*
X167284000Y-215197000D03*
X122799130Y-154526469D03*
X167284000Y-217737000D03*
X124129400Y-213495200D03*
X134067000Y-176125600D03*
X134067000Y-177522600D03*
X167284000Y-219007000D03*
X128320400Y-219388000D03*
X167919000Y-207450000D03*
X134067000Y-174728600D03*
D32*
X157150000Y-141448000D03*
D31*
%TO.N,+5V*%
X158267000Y-218397400D03*
X154076000Y-223680600D03*
X125990000Y-119598000D03*
X132309850Y-196862400D03*
X156616000Y-223680600D03*
X180050000Y-119538000D03*
X159537000Y-218397400D03*
X202990000Y-119598000D03*
X155346000Y-223680600D03*
X159156000Y-223680600D03*
X131686000Y-178900400D03*
X155727000Y-218372000D03*
X131686000Y-176131800D03*
X154330000Y-218372000D03*
X157886000Y-223680600D03*
X138030000Y-119538000D03*
X156640000Y-119588000D03*
X156997000Y-218372000D03*
D32*
%TO.N,Net-(U1-~{RESET}{slash}PC6)*%
X132430000Y-202298000D03*
X139350000Y-176360600D03*
D31*
%TO.N,9V_BAT_IN*%
X141850000Y-209192000D03*
X143374000Y-209192000D03*
X141850000Y-207668000D03*
X143374000Y-207668000D03*
D32*
%TO.N,RXD*%
X139980000Y-175560600D03*
%TO.N,TXD*%
X140890000Y-174760600D03*
D31*
%TO.N,2V_Rang*%
X173990000Y-125598000D03*
X202990000Y-125598000D03*
X187030000Y-135178000D03*
X197990000Y-125598000D03*
X183890000Y-135168000D03*
%TO.N,D9*%
X124017600Y-177078000D03*
%TO.N,A0*%
X148890000Y-140998000D03*
X148940000Y-130888000D03*
X145890000Y-141038000D03*
X144930000Y-182468000D03*
X144930000Y-180328000D03*
%TO.N,SDA*%
X146590000Y-174378000D03*
X140630000Y-203918000D03*
X141884000Y-178748000D03*
%TO.N,D5*%
X127772113Y-173324807D03*
%TO.N,MISO{slash}D12*%
X127463000Y-180125100D03*
%TO.N,D2*%
X141179000Y-173267100D03*
%TO.N,D4*%
X137108800Y-169604000D03*
%TO.N,SCL*%
X143535000Y-178748000D03*
X145580000Y-173378000D03*
X142590000Y-196878000D03*
%TO.N,D8*%
X123067600Y-174988000D03*
%TO.N,D10*%
X136970000Y-186968000D03*
X144940000Y-186968000D03*
X124050000Y-179268000D03*
X172780000Y-176338000D03*
%TO.N,D7*%
X124266599Y-171107898D03*
%TO.N,MOSI{slash}D11*%
X127463000Y-178728100D03*
%TO.N,D6*%
X125498248Y-169876248D03*
%TO.N,D3*%
X137877000Y-170854100D03*
%TO.N,20V_Rang*%
X165990000Y-125608000D03*
X189990000Y-125598000D03*
%TO.N,200V_Rang*%
X186780000Y-137008000D03*
X157990000Y-125598000D03*
X181990000Y-136958000D03*
X181990000Y-125598000D03*
D33*
%TO.N,V_ADC_Input*%
X174160000Y-155908000D03*
D31*
X202990000Y-128598000D03*
D32*
X169090000Y-196878000D03*
D33*
X187610000Y-155798000D03*
X174180000Y-151918000D03*
D31*
%TO.N,Net-(J8-Pin_2)*%
X186580000Y-133808000D03*
X175412000Y-133830000D03*
X197990000Y-122598000D03*
%TO.N,Net-(J10-Pin_2)*%
X182940000Y-132208000D03*
X189990000Y-122598000D03*
X177340000Y-132188000D03*
%TO.N,Net-(J12-Pin_2)*%
X181990000Y-122598000D03*
%TO.N,Net-(J13-Pin_2)*%
X149990000Y-122598000D03*
X181400000Y-158098000D03*
X147660000Y-161178000D03*
X159920000Y-158028000D03*
X147650000Y-169098000D03*
%TO.N,Net-(J5-Pin_2)*%
X160670000Y-115618000D03*
X138990000Y-122598000D03*
X139160000Y-116368000D03*
%TO.N,Net-(J14-Pin_2)*%
X159490000Y-117708000D03*
X125990000Y-122578000D03*
X127750000Y-117208000D03*
%TO.N,Net-(J16-Pin_2)*%
X170990000Y-122598000D03*
%TO.N,Net-(J18-Pin_2)*%
X162990000Y-122598000D03*
%TO.N,Net-(J20-Pin_2)*%
X173990000Y-122598000D03*
%TO.N,Net-(J21-Pin_2)*%
X142060000Y-115398000D03*
X161910000Y-114448000D03*
X141990000Y-122598000D03*
D33*
%TO.N,Net-(U8-AIN3)*%
X191090000Y-159878000D03*
%TO.N,Net-(U8-AIN2)*%
X194090000Y-157688000D03*
%TD*%
D34*
%TO.N,GND*%
X155650000Y-147568000D02*
X157150000Y-146068000D01*
X157150000Y-146068000D02*
X157150000Y-141448000D01*
X157150000Y-141448000D02*
X155650000Y-139948000D01*
D35*
%TO.N,Net-(U1-~{RESET}{slash}PC6)*%
X138140000Y-196588000D02*
X132430000Y-202298000D01*
X138140000Y-182838000D02*
X139350000Y-181628000D01*
X138140000Y-182838000D02*
X138140000Y-196588000D01*
X139350000Y-181628000D02*
X139350000Y-176360600D01*
%TO.N,RXD*%
X140001000Y-175581600D02*
X139980000Y-175560600D01*
X138690000Y-197407000D02*
X132980000Y-203117000D01*
X128360000Y-203117000D02*
X126144000Y-200901000D01*
X132980000Y-203117000D02*
X128360000Y-203117000D01*
X138690000Y-183088000D02*
X140001000Y-181777000D01*
X138690000Y-183088000D02*
X138690000Y-197407000D01*
X140001000Y-181777000D02*
X140001000Y-175581600D01*
%TO.N,TXD*%
X132510000Y-204168000D02*
X126871000Y-204168000D01*
X140890000Y-181908000D02*
X140890000Y-174760600D01*
X139540000Y-183258000D02*
X140890000Y-181908000D01*
X132510000Y-204168000D02*
X132849654Y-204168000D01*
X132849654Y-204168000D02*
X139540000Y-197477654D01*
X139540000Y-197477654D02*
X139540000Y-183258000D01*
X126871000Y-204168000D02*
X126144000Y-203441000D01*
D36*
%TO.N,2V_Rang*%
X149935800Y-188273000D02*
X147218000Y-190990800D01*
D34*
X205190000Y-143104800D02*
X205210000Y-143104800D01*
D36*
X199710000Y-123878000D02*
X199710000Y-122358000D01*
X183794000Y-154754000D02*
X183794000Y-185606000D01*
X178400000Y-121188000D02*
X173990000Y-125598000D01*
X197990000Y-125598000D02*
X199710000Y-123878000D01*
X198540000Y-121188000D02*
X178400000Y-121188000D01*
D37*
X201116800Y-147178000D02*
X205190000Y-143104800D01*
D36*
X188410000Y-135178000D02*
X197990000Y-125598000D01*
D37*
X205210000Y-127818000D02*
X202990000Y-125598000D01*
D36*
X183890000Y-154658000D02*
X183794000Y-154754000D01*
X187030000Y-135178000D02*
X188410000Y-135178000D01*
X183890000Y-135168000D02*
X183890000Y-154658000D01*
X181127000Y-188273000D02*
X149935800Y-188273000D01*
X199710000Y-122358000D02*
X198540000Y-121188000D01*
D37*
X205210000Y-143104800D02*
X205210000Y-127818000D01*
D36*
X183794000Y-185606000D02*
X181127000Y-188273000D01*
%TO.N,D9*%
X134520000Y-140748000D02*
X133090000Y-139318000D01*
X134520000Y-162198000D02*
X134520000Y-140748000D01*
X124017600Y-172700400D02*
X134520000Y-162198000D01*
X124017600Y-177078000D02*
X124017600Y-172700400D01*
%TO.N,A0*%
X148890000Y-140998000D02*
X148890000Y-138848000D01*
X145890000Y-141038000D02*
X146700000Y-141038000D01*
X148940000Y-138798000D02*
X148940000Y-130888000D01*
D35*
X144930000Y-182468000D02*
X144930000Y-180328000D01*
D36*
X146700000Y-141038000D02*
X148940000Y-138798000D01*
D34*
X148890000Y-138848000D02*
X148940000Y-138798000D01*
D36*
%TO.N,SDA*%
X146590000Y-172878000D02*
X146090000Y-172378000D01*
X141491000Y-179141000D02*
X141491000Y-182156942D01*
X141884000Y-178748000D02*
X141491000Y-179141000D01*
X140590000Y-197108000D02*
X140620000Y-197138000D01*
X141884000Y-174654029D02*
X141884000Y-178748000D01*
X146590000Y-174378000D02*
X146590000Y-172878000D01*
X140620000Y-197138000D02*
X140620000Y-203908000D01*
X141491000Y-182156942D02*
X140590000Y-183057942D01*
X140590000Y-183057942D02*
X140590000Y-197108000D01*
X146090000Y-172378000D02*
X144160029Y-172378000D01*
X140620000Y-203908000D02*
X140630000Y-203918000D01*
X144160029Y-172378000D02*
X141884000Y-174654029D01*
%TO.N,D5*%
X151090000Y-92974500D02*
X157890000Y-86174500D01*
X127772113Y-173324807D02*
X128098793Y-173324807D01*
X157890000Y-86174500D02*
X157890000Y-74174500D01*
X136355600Y-165068000D02*
X145370000Y-165068000D01*
X128098793Y-173324807D02*
X136355600Y-165068000D01*
X145370000Y-165068000D02*
X151090000Y-159348000D01*
X151090000Y-159348000D02*
X151090000Y-92974500D01*
%TO.N,MISO{slash}D12*%
X124967600Y-177629700D02*
X124967600Y-173007600D01*
X127463000Y-180125100D02*
X124967600Y-177629700D01*
X139440000Y-132608000D02*
X139440000Y-158535200D01*
X139440000Y-158535200D02*
X139220000Y-158755200D01*
X140110000Y-74174500D02*
X140110000Y-131938000D01*
X140110000Y-131938000D02*
X139440000Y-132608000D01*
X124967600Y-173007600D02*
X139116000Y-158859200D01*
D34*
X139220000Y-158755200D02*
X139116000Y-158859200D01*
D36*
%TO.N,D2*%
X154090000Y-125193082D02*
X154069000Y-125214082D01*
X154090000Y-126022918D02*
X154090000Y-161198000D01*
X164560000Y-87124500D02*
X164560000Y-89768000D01*
X154069000Y-126001918D02*
X154090000Y-126022918D01*
X154090000Y-161198000D02*
X142020900Y-173267100D01*
X142020900Y-173267100D02*
X141179000Y-173267100D01*
X164560000Y-89768000D02*
X154090000Y-100238000D01*
X154069000Y-125214082D02*
X154069000Y-126001918D01*
X154090000Y-100238000D02*
X154090000Y-125193082D01*
X165510000Y-86174500D02*
X164560000Y-87124500D01*
X165510000Y-86174500D02*
X165510000Y-74174500D01*
%TO.N,D4*%
X142324000Y-169604000D02*
X152090000Y-159838000D01*
X152090000Y-94514500D02*
X160430000Y-86174500D01*
X160430000Y-86174500D02*
X160430000Y-74174500D01*
X137108800Y-169604000D02*
X142324000Y-169604000D01*
X152090000Y-159838000D02*
X152090000Y-94514500D01*
D34*
%TO.N,SCL*%
X143535000Y-195933000D02*
X143535000Y-195461200D01*
D36*
X159368200Y-196196200D02*
X144270000Y-196196200D01*
X145580000Y-173378000D02*
X143535000Y-175423000D01*
X162050000Y-198878000D02*
X159368200Y-196196200D01*
X143535000Y-195461200D02*
X143535000Y-178748000D01*
X143535000Y-175423000D02*
X143535000Y-178748000D01*
X142590000Y-196878000D02*
X143535000Y-195933000D01*
X143535000Y-195461200D02*
X144270000Y-196196200D01*
%TO.N,D8*%
X123067600Y-174988000D02*
X123316600Y-174739000D01*
X123316600Y-162931400D02*
X127910000Y-158338000D01*
X128010000Y-151388000D02*
X128010000Y-147258000D01*
D34*
X128020000Y-158228000D02*
X127910000Y-158338000D01*
D36*
X123316600Y-174739000D02*
X123316600Y-162931400D01*
X128020000Y-151398000D02*
X128010000Y-151388000D01*
X128020000Y-151398000D02*
X128020000Y-158228000D01*
%TO.N,D10*%
X144940000Y-186968000D02*
X144940000Y-184878000D01*
X153480000Y-176338000D02*
X172780000Y-176338000D01*
X151640000Y-178178000D02*
X153480000Y-176338000D01*
X131750000Y-186968000D02*
X136970000Y-186968000D01*
X124050000Y-179268000D02*
X131750000Y-186968000D01*
X144940000Y-184878000D02*
X151640000Y-178178000D01*
D34*
%TO.N,D7*%
X130550000Y-162988000D02*
X130440000Y-163098000D01*
D36*
X124266599Y-171107898D02*
X124266599Y-169266128D01*
X126710000Y-166828000D02*
X130440000Y-163098000D01*
X130530000Y-147278000D02*
X130550000Y-147258000D01*
X130550000Y-147258000D02*
X130550000Y-162988000D01*
X124266599Y-169266128D02*
X126704727Y-166828000D01*
X126704727Y-166828000D02*
X126710000Y-166828000D01*
%TO.N,MOSI{slash}D11*%
X127463000Y-178728100D02*
X126085200Y-177350300D01*
D34*
X142104000Y-130864000D02*
X142104000Y-130824000D01*
D36*
X142104000Y-157598400D02*
X142104000Y-130864000D01*
X142104000Y-130824000D02*
X145190000Y-127738000D01*
X145190000Y-127738000D02*
X145190000Y-74174500D01*
X126085200Y-177350300D02*
X126085200Y-173617200D01*
X126085200Y-173617200D02*
X142084000Y-157618400D01*
X142084000Y-157618400D02*
X142104000Y-157598400D01*
%TO.N,D6*%
X125498248Y-169876248D02*
X132980000Y-162394496D01*
D34*
X133090000Y-162284496D02*
X132980000Y-162394496D01*
D36*
X133070000Y-147278000D02*
X133090000Y-147258000D01*
X133090000Y-147258000D02*
X133090000Y-162284496D01*
%TO.N,D3*%
X137877000Y-170854100D02*
X142693900Y-170854100D01*
X153090000Y-96054500D02*
X162970000Y-86174500D01*
X142693900Y-170854100D02*
X153090000Y-160458000D01*
X153090000Y-160458000D02*
X153090000Y-96054500D01*
X162970000Y-86174500D02*
X162970000Y-74174500D01*
%TO.N,20V_Rang*%
X184937000Y-186495000D02*
X184937000Y-160587000D01*
X184937000Y-148243786D02*
X184937000Y-142431000D01*
X167634600Y-189162000D02*
X182270000Y-189162000D01*
X165810800Y-190985800D02*
X167634600Y-189162000D01*
X184937000Y-142431000D02*
X184937000Y-130651000D01*
X182270000Y-189162000D02*
X184937000Y-186495000D01*
X184937000Y-160587000D02*
X184937000Y-148243786D01*
X184937000Y-130651000D02*
X189990000Y-125598000D01*
%TO.N,200V_Rang*%
X186780000Y-137008000D02*
X186080000Y-137708000D01*
X186080000Y-137708000D02*
X186080000Y-187384000D01*
X182473200Y-190990800D02*
X179476000Y-190990800D01*
X186080000Y-187384000D02*
X182473200Y-190990800D01*
X181990000Y-136958000D02*
X181990000Y-125598000D01*
D34*
%TO.N,V_ADC_Input*%
X187610000Y-155798000D02*
X187620000Y-155808000D01*
D37*
X202990000Y-140378000D02*
X202990000Y-128598000D01*
X174120000Y-155868000D02*
X174160000Y-155908000D01*
D36*
X169163000Y-196878000D02*
X165810800Y-193525800D01*
D37*
X189107234Y-154260766D02*
X202990000Y-140378000D01*
X174180000Y-151918000D02*
X174120000Y-151978000D01*
X189107234Y-154356617D02*
X189107234Y-154260766D01*
X189107234Y-191214766D02*
X189107234Y-154356617D01*
X179476000Y-193530800D02*
X186791200Y-193530800D01*
X187620000Y-155808000D02*
X189097234Y-155808000D01*
X186791200Y-193530800D02*
X189107234Y-191214766D01*
X174120000Y-151978000D02*
X174120000Y-155868000D01*
D36*
%TO.N,Net-(J8-Pin_2)*%
X158490000Y-181378000D02*
X153860000Y-186008000D01*
X186580000Y-133808000D02*
X186560000Y-133828000D01*
X176140000Y-174718000D02*
X171840000Y-179018000D01*
X194980000Y-125408000D02*
X195180000Y-125408000D01*
X175412000Y-133830000D02*
X175810000Y-134228000D01*
X175810000Y-161768000D02*
X176140000Y-162098000D01*
X176140000Y-162098000D02*
X176140000Y-174718000D01*
X171840000Y-179018000D02*
X167810000Y-179018000D01*
X153860000Y-186008000D02*
X150820000Y-186008000D01*
X175810000Y-134228000D02*
X175810000Y-161768000D01*
X186580000Y-133808000D02*
X194980000Y-125408000D01*
X195180000Y-125408000D02*
X197990000Y-122598000D01*
X165450000Y-181378000D02*
X158490000Y-181378000D01*
X167810000Y-179018000D02*
X165450000Y-181378000D01*
%TO.N,Net-(J10-Pin_2)*%
X182940000Y-132208000D02*
X182940000Y-129648000D01*
X159634000Y-185991600D02*
X162627600Y-182998000D01*
X177342400Y-176055600D02*
X177342400Y-154695600D01*
D34*
X177402400Y-159225600D02*
X177410000Y-159218000D01*
D36*
X177402400Y-136720400D02*
X177402400Y-159225600D01*
X168436000Y-180272000D02*
X173126000Y-180272000D01*
X177340000Y-132188000D02*
X177340000Y-136658000D01*
X177340000Y-136658000D02*
X177402400Y-136720400D01*
X159634000Y-186007400D02*
X159634000Y-185991600D01*
X182940000Y-129648000D02*
X189990000Y-122598000D01*
X165710000Y-182998000D02*
X168436000Y-180272000D01*
X162627600Y-182998000D02*
X165710000Y-182998000D01*
X173126000Y-180272000D02*
X177342400Y-176055600D01*
%TO.N,Net-(J12-Pin_2)*%
X179280000Y-176150000D02*
X169443000Y-185987000D01*
X179280000Y-125308000D02*
X181990000Y-122598000D01*
X169443000Y-185987000D02*
X169365000Y-185987000D01*
X179280000Y-137088000D02*
X179280000Y-125308000D01*
X179280000Y-137088000D02*
X179280000Y-176150000D01*
%TO.N,Net-(J13-Pin_2)*%
X181400000Y-176062000D02*
X176174000Y-181288000D01*
X176682000Y-185987000D02*
X179105600Y-185987000D01*
X148850000Y-169098000D02*
X147650000Y-169098000D01*
X147660000Y-161178000D02*
X149990000Y-158848000D01*
X159920000Y-158028000D02*
X148850000Y-169098000D01*
X176174000Y-185479000D02*
X176682000Y-185987000D01*
X176174000Y-181288000D02*
X176174000Y-185479000D01*
X149990000Y-158848000D02*
X149990000Y-122598000D01*
X181400000Y-158098000D02*
X181400000Y-176062000D01*
D34*
%TO.N,Net-(J5-Pin_2)*%
X139160000Y-122428000D02*
X138990000Y-122598000D01*
D36*
X159330000Y-167868000D02*
X159330000Y-171478000D01*
X164080000Y-163118000D02*
X159330000Y-167868000D01*
X160670000Y-135228000D02*
X164080000Y-138638000D01*
X164080000Y-138638000D02*
X164080000Y-163118000D01*
X159330000Y-171478000D02*
X157480000Y-173328000D01*
X160670000Y-115618000D02*
X160670000Y-135228000D01*
X139160000Y-116368000D02*
X139160000Y-122428000D01*
%TO.N,Net-(J14-Pin_2)*%
X127750000Y-120818000D02*
X125990000Y-122578000D01*
X163120000Y-139558000D02*
X163120000Y-159718000D01*
X155560000Y-167278000D02*
X155560000Y-171488000D01*
X159490000Y-117708000D02*
X159490000Y-135928000D01*
X159490000Y-135928000D02*
X163120000Y-139558000D01*
X155560000Y-171488000D02*
X153720000Y-173328000D01*
X163120000Y-159718000D02*
X155560000Y-167278000D01*
X127750000Y-117208000D02*
X127750000Y-120818000D01*
%TO.N,Net-(J16-Pin_2)*%
X171620000Y-171818000D02*
X171620000Y-142118000D01*
X171401057Y-141899057D02*
X170990000Y-141488000D01*
X171620000Y-142118000D02*
X171401057Y-141899057D01*
X170990000Y-141488000D02*
X170990000Y-122598000D01*
X170080000Y-173358000D02*
X171620000Y-171818000D01*
%TO.N,Net-(J18-Pin_2)*%
X170130000Y-132288000D02*
X162990000Y-125148000D01*
X165750000Y-173318000D02*
X167940000Y-171128000D01*
X167940000Y-171128000D02*
X167940000Y-169318000D01*
X170130000Y-167128000D02*
X170130000Y-132288000D01*
X167940000Y-169318000D02*
X170130000Y-167128000D01*
X162990000Y-125148000D02*
X162990000Y-122598000D01*
%TO.N,Net-(J20-Pin_2)*%
X174020000Y-138668000D02*
X172590000Y-137238000D01*
X172599000Y-123989000D02*
X173990000Y-122598000D01*
X172599000Y-142329000D02*
X174020000Y-140908000D01*
X174020000Y-140908000D02*
X174020000Y-138668000D01*
X172599000Y-171717000D02*
X172599000Y-142329000D01*
X172590000Y-137238000D02*
X172590000Y-123998000D01*
D34*
X172590000Y-123998000D02*
X172599000Y-123989000D01*
D36*
X174190000Y-173308000D02*
X172599000Y-171717000D01*
%TO.N,Net-(J21-Pin_2)*%
X165060000Y-166178000D02*
X163440000Y-167798000D01*
X161910000Y-134774727D02*
X165060000Y-137924727D01*
D34*
X142060000Y-122528000D02*
X141990000Y-122598000D01*
D36*
X163440000Y-167798000D02*
X163440000Y-171248000D01*
X165060000Y-137924727D02*
X165060000Y-166178000D01*
X161910000Y-114448000D02*
X161910000Y-134774727D01*
X142060000Y-115398000D02*
X142060000Y-122528000D01*
X163440000Y-171248000D02*
X161280000Y-173408000D01*
D35*
%TO.N,Net-(U2-OUTPUT)*%
X158590000Y-146308000D02*
X158590000Y-149708000D01*
X160030000Y-144868000D02*
X158590000Y-146308000D01*
X158590000Y-149708000D02*
X155650000Y-152648000D01*
D37*
%TO.N,Net-(U8-AIN3)*%
X180590000Y-210878000D02*
X175590000Y-210878000D01*
X191090000Y-200378000D02*
X180590000Y-210878000D01*
X191090000Y-159878000D02*
X191090000Y-200378000D01*
%TO.N,Net-(U8-AIN2)*%
X194090000Y-206078000D02*
X175590000Y-224578000D01*
X194090000Y-157688000D02*
X194090000Y-206078000D01*
%TD*%
M02*
