%TF.GenerationSoftware,KiCad,Pcbnew,8.0.0*%
%TF.CreationDate,2025-03-31T17:33:55-04:00*%
%TF.ProjectId,oshe_dmm_project_v1,6f736865-5f64-46d6-9d5f-70726f6a6563,V1*%
%TF.SameCoordinates,Original*%
%TF.FileFunction,Copper,L4,Bot*%
%TF.FilePolarity,Positive*%
%FSLAX46Y46*%
G04 Gerber Fmt 4.6, Leading zero omitted, Abs format (unit mm)*
G04 Created by KiCad (PCBNEW 8.0.0) date 2025-03-31 17:33:55*
%MOMM*%
%LPD*%
G01*
G04 APERTURE LIST*
%TA.AperFunction,ComponentPad*%
%ADD10C,1.440000*%
%TD*%
%TA.AperFunction,ComponentPad*%
%ADD11C,3.000000*%
%TD*%
%TA.AperFunction,ComponentPad*%
%ADD12R,1.800000X2.600000*%
%TD*%
%TA.AperFunction,ComponentPad*%
%ADD13O,1.800000X2.600000*%
%TD*%
%TA.AperFunction,ComponentPad*%
%ADD14C,1.980000*%
%TD*%
%TA.AperFunction,ComponentPad*%
%ADD15C,4.000000*%
%TD*%
%TA.AperFunction,ComponentPad*%
%ADD16O,1.700000X1.100000*%
%TD*%
%TA.AperFunction,ComponentPad*%
%ADD17R,1.700000X1.700000*%
%TD*%
%TA.AperFunction,ComponentPad*%
%ADD18O,1.700000X1.700000*%
%TD*%
%TA.AperFunction,ComponentPad*%
%ADD19C,6.918200*%
%TD*%
%TA.AperFunction,ComponentPad*%
%ADD20C,1.500000*%
%TD*%
%TA.AperFunction,ViaPad*%
%ADD21C,1.000000*%
%TD*%
%TA.AperFunction,ViaPad*%
%ADD22C,0.600000*%
%TD*%
%TA.AperFunction,Conductor*%
%ADD23C,0.500000*%
%TD*%
%TA.AperFunction,Conductor*%
%ADD24C,1.000000*%
%TD*%
%TA.AperFunction,Conductor*%
%ADD25C,0.200000*%
%TD*%
G04 APERTURE END LIST*
D10*
%TO.P,RV1,1,1*%
%TO.N,+5V*%
X126161400Y-133205800D03*
%TO.P,RV1,2,2*%
%TO.N,Net-(DS1-VO)*%
X126161400Y-130665800D03*
%TO.P,RV1,3,3*%
%TO.N,GND*%
X126161400Y-128125800D03*
%TD*%
D11*
%TO.P,DS1,*%
%TO.N,*%
X126990900Y-86174500D03*
X126990900Y-117175200D03*
X201989480Y-117175200D03*
X201990000Y-86174500D03*
D12*
%TO.P,DS1,1,VSS*%
%TO.N,GND*%
X132490000Y-86174500D03*
D13*
%TO.P,DS1,2,VDD*%
%TO.N,+5V*%
X135030000Y-86174500D03*
%TO.P,DS1,3,VO*%
%TO.N,Net-(DS1-VO)*%
X137570000Y-86174500D03*
%TO.P,DS1,4,RS*%
%TO.N,MISO{slash}D12*%
X140110000Y-86174500D03*
%TO.P,DS1,5,R/W*%
%TO.N,GND*%
X142650000Y-86174500D03*
%TO.P,DS1,6,E*%
%TO.N,MOSI{slash}D11*%
X145190000Y-86174500D03*
%TO.P,DS1,7,D0*%
%TO.N,unconnected-(DS1-D0-Pad7)*%
X147730000Y-86174500D03*
%TO.P,DS1,8,D1*%
%TO.N,unconnected-(DS1-D1-Pad8)*%
X150270000Y-86174500D03*
%TO.P,DS1,9,D2*%
%TO.N,unconnected-(DS1-D2-Pad9)*%
X152810000Y-86174500D03*
%TO.P,DS1,10,D3*%
%TO.N,unconnected-(DS1-D3-Pad10)*%
X155350000Y-86174500D03*
%TO.P,DS1,11,D4*%
%TO.N,D5*%
X157890000Y-86174500D03*
%TO.P,DS1,12,D5*%
%TO.N,D4*%
X160430000Y-86174500D03*
%TO.P,DS1,13,D6*%
%TO.N,D3*%
X162970000Y-86174500D03*
%TO.P,DS1,14,D7*%
%TO.N,D2*%
X165510000Y-86174500D03*
%TO.P,DS1,15,LED(+)*%
%TO.N,Net-(DS1-LED(+))*%
X168050000Y-86174500D03*
%TO.P,DS1,16,LED(-)*%
%TO.N,GND*%
X170590000Y-86174500D03*
%TD*%
D14*
%TO.P,F2,1*%
%TO.N,Current_Input*%
X193977200Y-221572400D03*
%TO.P,F2,2*%
%TO.N,Net-(U2-IN+)*%
X171477200Y-221572400D03*
%TD*%
D15*
%TO.P,BAT-1,1,1*%
%TO.N,GND*%
X128447400Y-222766200D03*
%TD*%
D16*
%TO.P,J5,S1,SHIELD*%
%TO.N,GND*%
X126596000Y-198558000D03*
X122796000Y-198558000D03*
X126596000Y-207198000D03*
X122796000Y-207198000D03*
%TD*%
D15*
%TO.P,BAT+1,1,1*%
%TO.N,Net-(JP1-C)*%
X141909400Y-222766200D03*
%TD*%
D17*
%TO.P,J1,1,Pin_1*%
%TO.N,DTR*%
X125608950Y-154414800D03*
D18*
%TO.P,J1,2,Pin_2*%
%TO.N,TXD*%
X125608950Y-151874800D03*
%TO.P,J1,3,Pin_3*%
%TO.N,RXD*%
X125608950Y-149334800D03*
%TO.P,J1,4,Pin_4*%
%TO.N,+5V*%
X125608950Y-146794800D03*
%TO.P,J1,5,Pin_5*%
%TO.N,GND*%
X125608950Y-144254800D03*
%TO.P,J1,6,Pin_6*%
X125608950Y-141714800D03*
%TD*%
D17*
%TO.P,J6,1,Pin_1*%
%TO.N,9V_BAT_IN*%
X146451000Y-211006000D03*
D18*
%TO.P,J6,2,Pin_2*%
%TO.N,Net-(J6-Pin_2)*%
X148991000Y-211006000D03*
%TD*%
D17*
%TO.P,J10,1,Pin_1*%
%TO.N,+5V*%
X159634000Y-183467400D03*
D18*
%TO.P,J10,2,Pin_2*%
%TO.N,Net-(J10-Pin_2)*%
X159634000Y-186007400D03*
%TD*%
D17*
%TO.P,J13,1,Pin_1*%
%TO.N,+5V*%
X179105600Y-183447000D03*
D18*
%TO.P,J13,2,Pin_2*%
%TO.N,Net-(J13-Pin_2)*%
X179105600Y-185987000D03*
%TD*%
D14*
%TO.P,F1,1*%
%TO.N,Voltage_Input*%
X201116800Y-169678000D03*
%TO.P,F1,2*%
%TO.N,2V_Rang*%
X201116800Y-147178000D03*
%TD*%
D19*
%TO.P,J3,1,1*%
%TO.N,Input_Negative*%
X201193000Y-198610000D03*
%TD*%
D20*
%TO.P,Y1,1,1*%
%TO.N,Net-(U1-XTAL2{slash}PB7)*%
X125343389Y-169837812D03*
%TO.P,Y1,2,2*%
%TO.N,Net-(U1-XTAL1{slash}PB6)*%
X128794070Y-166387131D03*
%TD*%
D17*
%TO.P,J7,1,Pin_1*%
%TO.N,2V_Rang*%
X147218000Y-190990800D03*
D18*
%TO.P,J7,2,Pin_2*%
%TO.N,V_ADC_Input*%
X147218000Y-193530800D03*
%TD*%
D17*
%TO.P,J11,1,Pin_1*%
%TO.N,200V_Rang*%
X179476000Y-190990800D03*
D18*
%TO.P,J11,2,Pin_2*%
%TO.N,V_ADC_Input*%
X179476000Y-193530800D03*
%TD*%
D17*
%TO.P,J12,1,Pin_1*%
%TO.N,+5V*%
X169365000Y-183447000D03*
D18*
%TO.P,J12,2,Pin_2*%
%TO.N,Net-(J12-Pin_2)*%
X169365000Y-185987000D03*
%TD*%
D19*
%TO.P,J2,1,1*%
%TO.N,Voltage_Input*%
X201193000Y-179610000D03*
%TD*%
%TO.P,J4,1,1*%
%TO.N,Current_Input*%
X201193000Y-217610000D03*
%TD*%
D17*
%TO.P,J9,1,Pin_1*%
%TO.N,20V_Rang*%
X165810800Y-190985800D03*
D18*
%TO.P,J9,2,Pin_2*%
%TO.N,V_ADC_Input*%
X165810800Y-193525800D03*
%TD*%
D17*
%TO.P,J8,1,Pin_1*%
%TO.N,+5V*%
X149885000Y-183442000D03*
D18*
%TO.P,J8,2,Pin_2*%
%TO.N,Net-(J8-Pin_2)*%
X149885000Y-185982000D03*
%TD*%
D15*
%TO.P,Thermistor1,1,1*%
%TO.N,TS*%
X135259400Y-223198000D03*
%TD*%
D21*
%TO.N,GND*%
X126923400Y-217991000D03*
X128320400Y-217991000D03*
X166649000Y-207450000D03*
D22*
X136198400Y-209685200D03*
D21*
X134067000Y-178919600D03*
X167284000Y-216467000D03*
X184302000Y-216173400D03*
D22*
X136198400Y-208923200D03*
D21*
X129717400Y-217991000D03*
X124129400Y-214892200D03*
X167284000Y-213927000D03*
X172313200Y-208974000D03*
X126923400Y-219388000D03*
X129717400Y-219388000D03*
X167284000Y-220277000D03*
X190525000Y-201543000D03*
X167284000Y-215197000D03*
X122783200Y-159545600D03*
X167284000Y-217737000D03*
X138480400Y-202573200D03*
X138480400Y-200922200D03*
X124129400Y-213495200D03*
X134067000Y-176125600D03*
X134067000Y-177522600D03*
X167284000Y-219007000D03*
X128320400Y-219388000D03*
D22*
X135436400Y-208923200D03*
X135436400Y-209685200D03*
D21*
X167919000Y-207450000D03*
X134067000Y-174728600D03*
%TO.N,+5V*%
X158267000Y-218397400D03*
X154076000Y-223680600D03*
X172313200Y-205824400D03*
X177393200Y-197975800D03*
X168757757Y-140329115D03*
X131774800Y-145296200D03*
X156616000Y-223680600D03*
X159537000Y-218397400D03*
X160210970Y-140333216D03*
X155346000Y-223680600D03*
X159156000Y-223680600D03*
X131686000Y-178900400D03*
X155727000Y-218372000D03*
X131686000Y-176131800D03*
X154330000Y-218372000D03*
X175615200Y-197975800D03*
X157886000Y-223680600D03*
X181203200Y-216122600D03*
X156997000Y-218372000D03*
%TO.N,9V_BAT_IN*%
X139979000Y-209482000D03*
X141503000Y-209482000D03*
X139979000Y-207958000D03*
X141503000Y-207958000D03*
%TO.N,2V_Rang*%
X177510000Y-136898000D03*
D22*
%TO.N,Net-(D4-K)*%
X138445900Y-207868700D03*
X134111600Y-195359600D03*
D21*
%TO.N,SDA*%
X173176800Y-201379400D03*
X141884000Y-184336000D03*
X182854200Y-201379400D03*
X141884000Y-178748000D03*
%TO.N,D5*%
X127463000Y-173960600D03*
%TO.N,MISO{slash}D12*%
X127463000Y-180125100D03*
%TO.N,D2*%
X141179000Y-173267100D03*
%TO.N,D4*%
X137108800Y-169604000D03*
%TO.N,SCL*%
X182092200Y-202801800D03*
X143535000Y-178748000D03*
X173202200Y-202827200D03*
%TO.N,MOSI{slash}D11*%
X127463000Y-178728100D03*
%TO.N,D3*%
X137877000Y-170854100D03*
%TO.N,20V_Rang*%
X183350000Y-145458000D03*
%TO.N,200V_Rang*%
X184180000Y-155678000D03*
%TO.N,V_ADC_Input*%
X173063852Y-128594197D03*
X189107234Y-156435951D03*
%TO.N,Net-(J8-Pin_2)*%
X174140000Y-140628000D03*
%TO.N,Net-(J10-Pin_2)*%
X178630000Y-146948000D03*
%TO.N,Net-(J12-Pin_2)*%
X179280000Y-154638000D03*
%TO.N,Net-(J13-Pin_2)*%
X177825000Y-179637000D03*
X154847449Y-140587953D03*
%TD*%
D23*
%TO.N,2V_Rang*%
X183794000Y-185606000D02*
X183794000Y-161044200D01*
X181127000Y-188273000D02*
X183794000Y-185606000D01*
X181304800Y-158555000D02*
X181304800Y-143543600D01*
D24*
X201116800Y-147178000D02*
X190836800Y-136898000D01*
D23*
X181304800Y-143543600D02*
X177510000Y-139748800D01*
X149935800Y-188273000D02*
X181127000Y-188273000D01*
X183794000Y-161044200D02*
X181304800Y-158555000D01*
D24*
X190836800Y-136898000D02*
X177510000Y-136898000D01*
D23*
X177510000Y-139748800D02*
X177510000Y-136898000D01*
X147218000Y-190990800D02*
X149935800Y-188273000D01*
D25*
%TO.N,Net-(D4-K)*%
X134111600Y-195359600D02*
X134111600Y-203534400D01*
X134111600Y-203534400D02*
X138445900Y-207868700D01*
D23*
%TO.N,SDA*%
X141884000Y-178748000D02*
X141884000Y-184336000D01*
X182854200Y-201379400D02*
X173176800Y-201379400D01*
%TO.N,D5*%
X157886000Y-143537600D02*
X127463000Y-173960600D01*
D25*
X157890000Y-86174500D02*
X157886000Y-86178500D01*
D23*
X157886000Y-86178500D02*
X157886000Y-143537600D01*
%TO.N,MISO{slash}D12*%
X140110000Y-157865200D02*
X124967600Y-173007600D01*
X124967600Y-173007600D02*
X124967600Y-177629700D01*
X124967600Y-177629700D02*
X127463000Y-180125100D01*
X140110000Y-86174500D02*
X140110000Y-157865200D01*
%TO.N,D2*%
X165510000Y-86174500D02*
X165506000Y-86178500D01*
X165506000Y-145321600D02*
X141172800Y-169654800D01*
X141172800Y-169654800D02*
X141172800Y-170213600D01*
X165506000Y-86178500D02*
X165506000Y-145321600D01*
D25*
X141172800Y-170213600D02*
X141179000Y-170219800D01*
D23*
X141179000Y-170219800D02*
X141179000Y-173267100D01*
%TO.N,D4*%
X161645200Y-135212400D02*
X160430000Y-133997200D01*
X160430000Y-133997200D02*
X160430000Y-86174500D01*
X137108800Y-169604000D02*
X161645200Y-145067600D01*
X161645200Y-145067600D02*
X161645200Y-135212400D01*
%TO.N,SCL*%
X150901000Y-202827200D02*
X143535000Y-195461200D01*
X182092200Y-202801800D02*
X182066800Y-202827200D01*
X143535000Y-195461200D02*
X143535000Y-178748000D01*
X182066800Y-202827200D02*
X150901000Y-202827200D01*
%TO.N,MOSI{slash}D11*%
X126085200Y-177350300D02*
X126085200Y-173617200D01*
X127463000Y-178728100D02*
X126085200Y-177350300D01*
X145190000Y-154512400D02*
X145190000Y-86174500D01*
X126085200Y-173617200D02*
X145190000Y-154512400D01*
%TO.N,D3*%
X162970000Y-145761100D02*
X162970000Y-86174500D01*
X137877000Y-170854100D02*
X162970000Y-145761100D01*
%TO.N,20V_Rang*%
X184937000Y-186495000D02*
X184937000Y-160587000D01*
X182524000Y-146284000D02*
X183350000Y-145458000D01*
X167634600Y-189162000D02*
X182270000Y-189162000D01*
X165810800Y-190985800D02*
X167634600Y-189162000D01*
X184937000Y-160587000D02*
X182524000Y-158174000D01*
X182524000Y-158174000D02*
X182524000Y-146284000D01*
X182270000Y-189162000D02*
X184937000Y-186495000D01*
%TO.N,200V_Rang*%
X186080000Y-187384000D02*
X182473200Y-190990800D01*
X186080000Y-160079000D02*
X186080000Y-187384000D01*
X182473200Y-190990800D02*
X179476000Y-190990800D01*
X184180000Y-155678000D02*
X184180000Y-158179000D01*
X184180000Y-158179000D02*
X186080000Y-160079000D01*
D24*
%TO.N,V_ADC_Input*%
X186791200Y-193530800D02*
X189107234Y-191214766D01*
X179476000Y-193530800D02*
X186791200Y-193530800D01*
X189107234Y-191214766D02*
X189107234Y-156435951D01*
D23*
%TO.N,Net-(J8-Pin_2)*%
X149885000Y-185982000D02*
X149890000Y-185982000D01*
X172110000Y-178748000D02*
X175412000Y-175446000D01*
X157124000Y-178748000D02*
X172110000Y-178748000D01*
X175412000Y-175446000D02*
X175412000Y-141900000D01*
X175412000Y-141900000D02*
X174140000Y-140628000D01*
X149890000Y-185982000D02*
X157124000Y-178748000D01*
%TO.N,Net-(J10-Pin_2)*%
X165353600Y-180272000D02*
X173126000Y-180272000D01*
X177342400Y-176055600D02*
X177342400Y-148235600D01*
X159634000Y-185991600D02*
X165353600Y-180272000D01*
X173126000Y-180272000D02*
X177342400Y-176055600D01*
X177342400Y-148235600D02*
X178630000Y-146948000D01*
X159634000Y-186007400D02*
X159634000Y-185991600D01*
%TO.N,Net-(J12-Pin_2)*%
X179280000Y-176150000D02*
X179280000Y-154638000D01*
X169365000Y-185987000D02*
X169443000Y-185987000D01*
X169443000Y-185987000D02*
X179280000Y-176150000D01*
%TO.N,Net-(J13-Pin_2)*%
X176174000Y-185479000D02*
X176682000Y-185987000D01*
X176174000Y-181288000D02*
X176174000Y-185479000D01*
X176682000Y-185987000D02*
X179105600Y-185987000D01*
X177825000Y-179637000D02*
X176174000Y-181288000D01*
%TD*%
M02*
