%TF.GenerationSoftware,KiCad,Pcbnew,8.0.0*%
%TF.CreationDate,2025-03-31T17:33:55-04:00*%
%TF.ProjectId,oshe_dmm_project_v1,6f736865-5f64-46d6-9d5f-70726f6a6563,V1*%
%TF.SameCoordinates,Original*%
%TF.FileFunction,Soldermask,Top*%
%TF.FilePolarity,Negative*%
%FSLAX46Y46*%
G04 Gerber Fmt 4.6, Leading zero omitted, Abs format (unit mm)*
G04 Created by KiCad (PCBNEW 8.0.0) date 2025-03-31 17:33:55*
%MOMM*%
%LPD*%
G01*
G04 APERTURE LIST*
G04 Aperture macros list*
%AMRoundRect*
0 Rectangle with rounded corners*
0 $1 Rounding radius*
0 $2 $3 $4 $5 $6 $7 $8 $9 X,Y pos of 4 corners*
0 Add a 4 corners polygon primitive as box body*
4,1,4,$2,$3,$4,$5,$6,$7,$8,$9,$2,$3,0*
0 Add four circle primitives for the rounded corners*
1,1,$1+$1,$2,$3*
1,1,$1+$1,$4,$5*
1,1,$1+$1,$6,$7*
1,1,$1+$1,$8,$9*
0 Add four rect primitives between the rounded corners*
20,1,$1+$1,$2,$3,$4,$5,0*
20,1,$1+$1,$4,$5,$6,$7,0*
20,1,$1+$1,$6,$7,$8,$9,0*
20,1,$1+$1,$8,$9,$2,$3,0*%
G04 Aperture macros list end*
%ADD10C,2.000000*%
%ADD11C,0.150000*%
%ADD12C,0.010000*%
%ADD13R,3.800000X2.000000*%
%ADD14RoundRect,0.250000X0.625000X-0.400000X0.625000X0.400000X-0.625000X0.400000X-0.625000X-0.400000X0*%
%ADD15C,1.440000*%
%ADD16C,3.000000*%
%ADD17R,1.800000X2.600000*%
%ADD18O,1.800000X2.600000*%
%ADD19RoundRect,0.250000X0.412500X0.650000X-0.412500X0.650000X-0.412500X-0.650000X0.412500X-0.650000X0*%
%ADD20RoundRect,0.250000X0.325000X0.450000X-0.325000X0.450000X-0.325000X-0.450000X0.325000X-0.450000X0*%
%ADD21RoundRect,0.250000X0.650000X-0.412500X0.650000X0.412500X-0.650000X0.412500X-0.650000X-0.412500X0*%
%ADD22RoundRect,0.250000X-0.400000X-0.625000X0.400000X-0.625000X0.400000X0.625000X-0.400000X0.625000X0*%
%ADD23RoundRect,0.250000X0.400000X0.625000X-0.400000X0.625000X-0.400000X-0.625000X0.400000X-0.625000X0*%
%ADD24C,2.184000*%
%ADD25R,0.250000X1.100000*%
%ADD26R,0.550000X1.600000*%
%ADD27R,1.600000X0.550000*%
%ADD28C,4.000000*%
%ADD29RoundRect,0.250000X-0.650000X0.412500X-0.650000X-0.412500X0.650000X-0.412500X0.650000X0.412500X0*%
%ADD30RoundRect,0.250000X-0.412500X-0.650000X0.412500X-0.650000X0.412500X0.650000X-0.412500X0.650000X0*%
%ADD31RoundRect,0.175000X-0.425000X0.175000X-0.425000X-0.175000X0.425000X-0.175000X0.425000X0.175000X0*%
%ADD32RoundRect,0.190000X0.410000X-0.190000X0.410000X0.190000X-0.410000X0.190000X-0.410000X-0.190000X0*%
%ADD33RoundRect,0.200000X0.400000X-0.200000X0.400000X0.200000X-0.400000X0.200000X-0.400000X-0.200000X0*%
%ADD34RoundRect,0.175000X0.425000X-0.175000X0.425000X0.175000X-0.425000X0.175000X-0.425000X-0.175000X0*%
%ADD35RoundRect,0.190000X-0.410000X0.190000X-0.410000X-0.190000X0.410000X-0.190000X0.410000X0.190000X0*%
%ADD36RoundRect,0.200000X-0.400000X0.200000X-0.400000X-0.200000X0.400000X-0.200000X0.400000X0.200000X0*%
%ADD37O,1.700000X1.100000*%
%ADD38R,1.700000X1.700000*%
%ADD39O,1.700000X1.700000*%
%ADD40RoundRect,0.250000X-0.650000X1.000000X-0.650000X-1.000000X0.650000X-1.000000X0.650000X1.000000X0*%
%ADD41R,2.000000X3.800000*%
%ADD42RoundRect,0.150000X-0.150000X0.825000X-0.150000X-0.825000X0.150000X-0.825000X0.150000X0.825000X0*%
%ADD43RoundRect,0.250000X-0.625000X0.400000X-0.625000X-0.400000X0.625000X-0.400000X0.625000X0.400000X0*%
%ADD44RoundRect,0.250000X0.167938X-0.751301X0.751301X-0.167938X-0.167938X0.751301X-0.751301X0.167938X0*%
%ADD45C,6.918200*%
%ADD46RoundRect,0.250000X-1.050000X-0.550000X1.050000X-0.550000X1.050000X0.550000X-1.050000X0.550000X0*%
%ADD47C,1.500000*%
%ADD48RoundRect,0.250001X-0.462499X-0.624999X0.462499X-0.624999X0.462499X0.624999X-0.462499X0.624999X0*%
%ADD49R,1.500000X1.000000*%
%ADD50RoundRect,0.375000X-0.375000X0.625000X-0.375000X-0.625000X0.375000X-0.625000X0.375000X0.625000X0*%
%ADD51RoundRect,0.500000X-1.400000X0.500000X-1.400000X-0.500000X1.400000X-0.500000X1.400000X0.500000X0*%
%ADD52RoundRect,0.249999X1.425001X-0.450001X1.425001X0.450001X-1.425001X0.450001X-1.425001X-0.450001X0*%
%ADD53RoundRect,0.250000X0.650000X-1.000000X0.650000X1.000000X-0.650000X1.000000X-0.650000X-1.000000X0*%
%ADD54RoundRect,0.250001X0.462499X0.624999X-0.462499X0.624999X-0.462499X-0.624999X0.462499X-0.624999X0*%
%ADD55R,1.000000X1.500000*%
%ADD56RoundRect,0.062500X0.062500X-0.375000X0.062500X0.375000X-0.062500X0.375000X-0.062500X-0.375000X0*%
%ADD57RoundRect,0.062500X0.375000X-0.062500X0.375000X0.062500X-0.375000X0.062500X-0.375000X-0.062500X0*%
%ADD58R,1.600000X1.600000*%
%ADD59R,0.952500X0.558800*%
G04 APERTURE END LIST*
D10*
X171355591Y-133293334D02*
G75*
G02*
X177369640Y-136777187I-6865591J-18784666D01*
G01*
X169612907Y-137979922D02*
G75*
G02*
X174125374Y-140581933I-5122907J-14098078D01*
G01*
X179264323Y-149485840D02*
G75*
G02*
X179260853Y-154689859I-14774323J-2592160D01*
G01*
X175981284Y-142436923D02*
G75*
G02*
X178587194Y-146952663I-11491284J-9641077D01*
G01*
X173063852Y-128594198D02*
G75*
G02*
X189107233Y-156435951I-8573852J-23483802D01*
G01*
X184191459Y-148635270D02*
G75*
G02*
X184181344Y-155578124I-19701459J-3442730D01*
G01*
X168757757Y-140329116D02*
G75*
G02*
X160210970Y-140333217I-4267757J-11748884D01*
G01*
X179834186Y-139250063D02*
G75*
G02*
X183291804Y-145259484I-15344186J-12827937D01*
G01*
X154847450Y-140587954D02*
G75*
G02*
X159363042Y-137981396I9642550J-11490046D01*
G01*
X173063852Y-128594198D02*
G75*
G02*
X189107233Y-156435951I-8573852J-23483802D01*
G01*
D11*
X168752969Y-139907819D02*
X168276779Y-139907819D01*
X168276779Y-139907819D02*
X168229160Y-140384009D01*
X168229160Y-140384009D02*
X168276779Y-140336390D01*
X168276779Y-140336390D02*
X168372017Y-140288771D01*
X168372017Y-140288771D02*
X168610112Y-140288771D01*
X168610112Y-140288771D02*
X168705350Y-140336390D01*
X168705350Y-140336390D02*
X168752969Y-140384009D01*
X168752969Y-140384009D02*
X168800588Y-140479247D01*
X168800588Y-140479247D02*
X168800588Y-140717342D01*
X168800588Y-140717342D02*
X168752969Y-140812580D01*
X168752969Y-140812580D02*
X168705350Y-140860200D01*
X168705350Y-140860200D02*
X168610112Y-140907819D01*
X168610112Y-140907819D02*
X168372017Y-140907819D01*
X168372017Y-140907819D02*
X168276779Y-140860200D01*
X168276779Y-140860200D02*
X168229160Y-140812580D01*
X169086303Y-139907819D02*
X169419636Y-140907819D01*
X169419636Y-140907819D02*
X169752969Y-139907819D01*
D12*
%TO.C,REF\u002A\u002A*%
X131700803Y-67222640D02*
X131869676Y-68118427D01*
X132492796Y-68375298D01*
X133115916Y-68632168D01*
X133863453Y-68123849D01*
X134072802Y-67982316D01*
X134262043Y-67855945D01*
X134422343Y-67750507D01*
X134544874Y-67671770D01*
X134620802Y-67625505D01*
X134641480Y-67615529D01*
X134678731Y-67641186D01*
X134758332Y-67712115D01*
X134871361Y-67819257D01*
X135008895Y-67953550D01*
X135162012Y-68105934D01*
X135321789Y-68267347D01*
X135479305Y-68428730D01*
X135625637Y-68581022D01*
X135751863Y-68715162D01*
X135849060Y-68822089D01*
X135908307Y-68892742D01*
X135922471Y-68916388D01*
X135902087Y-68959979D01*
X135844941Y-69055481D01*
X135757041Y-69193550D01*
X135644396Y-69364845D01*
X135513013Y-69560025D01*
X135436882Y-69671352D01*
X135298118Y-69874633D01*
X135174811Y-70058073D01*
X135072945Y-70212542D01*
X134998501Y-70328909D01*
X134957461Y-70398042D01*
X134951294Y-70412570D01*
X134965274Y-70453860D01*
X135003382Y-70550092D01*
X135059867Y-70687734D01*
X135128980Y-70853258D01*
X135204970Y-71033132D01*
X135282089Y-71213828D01*
X135354585Y-71381814D01*
X135416709Y-71523560D01*
X135462712Y-71625537D01*
X135486843Y-71674214D01*
X135488267Y-71676130D01*
X135526158Y-71685425D01*
X135627069Y-71706160D01*
X135780540Y-71736298D01*
X135976112Y-71773801D01*
X136203325Y-71816629D01*
X136335891Y-71841326D01*
X136578679Y-71887553D01*
X136797974Y-71931540D01*
X136982681Y-71970881D01*
X137121705Y-72003169D01*
X137203952Y-72025997D01*
X137220485Y-72033240D01*
X137236678Y-72082261D01*
X137249744Y-72192977D01*
X137259691Y-72352438D01*
X137266528Y-72547700D01*
X137270264Y-72765814D01*
X137270907Y-72993835D01*
X137268468Y-73218815D01*
X137262953Y-73427809D01*
X137254374Y-73607868D01*
X137242737Y-73746047D01*
X137228052Y-73829398D01*
X137219245Y-73846750D01*
X137166599Y-73867548D01*
X137055043Y-73897282D01*
X136899335Y-73932459D01*
X136714229Y-73969586D01*
X136649613Y-73981597D01*
X136338071Y-74038662D01*
X136091976Y-74084618D01*
X135903195Y-74121293D01*
X135763598Y-74150513D01*
X135665052Y-74174104D01*
X135599426Y-74193892D01*
X135558589Y-74211706D01*
X135534409Y-74229370D01*
X135531026Y-74232861D01*
X135497255Y-74289100D01*
X135445737Y-74398547D01*
X135381617Y-74547800D01*
X135310039Y-74723459D01*
X135236146Y-74912121D01*
X135165083Y-75100385D01*
X135101993Y-75274848D01*
X135052021Y-75422108D01*
X135020312Y-75528764D01*
X135012008Y-75581413D01*
X135012700Y-75583257D01*
X135040836Y-75626292D01*
X135104665Y-75720978D01*
X135197480Y-75857460D01*
X135312573Y-76025882D01*
X135443237Y-76216390D01*
X135480448Y-76270529D01*
X135613129Y-76466804D01*
X135729883Y-76645886D01*
X135824349Y-76797492D01*
X135890168Y-76911338D01*
X135920978Y-76977141D01*
X135922471Y-76985225D01*
X135896584Y-77027715D01*
X135825054Y-77111891D01*
X135717076Y-77228705D01*
X135581846Y-77369110D01*
X135428558Y-77524061D01*
X135266409Y-77684509D01*
X135104593Y-77841409D01*
X134952306Y-77985713D01*
X134818743Y-78108376D01*
X134713100Y-78200350D01*
X134644572Y-78252589D01*
X134625614Y-78261118D01*
X134581487Y-78241029D01*
X134491142Y-78186849D01*
X134369295Y-78107704D01*
X134275546Y-78044001D01*
X134105678Y-77927110D01*
X133904512Y-77789476D01*
X133702733Y-77652063D01*
X133594250Y-77578519D01*
X133227058Y-77330155D01*
X132918826Y-77496813D01*
X132778404Y-77569822D01*
X132658996Y-77626571D01*
X132578202Y-77658937D01*
X132557636Y-77663441D01*
X132532906Y-77630189D01*
X132484118Y-77536224D01*
X132414913Y-77390213D01*
X132328935Y-77200824D01*
X132229824Y-76976724D01*
X132121224Y-76726581D01*
X132006775Y-76459063D01*
X131890120Y-76182836D01*
X131774901Y-75906568D01*
X131664760Y-75638927D01*
X131563339Y-75388580D01*
X131474280Y-75164195D01*
X131401225Y-74974439D01*
X131347816Y-74827980D01*
X131317695Y-74733485D01*
X131312851Y-74701031D01*
X131351245Y-74659636D01*
X131435308Y-74592438D01*
X131547467Y-74513400D01*
X131556881Y-74507147D01*
X131846768Y-74275103D01*
X132080512Y-74004386D01*
X132256087Y-73703653D01*
X132371469Y-73381561D01*
X132424630Y-73046765D01*
X132413547Y-72707922D01*
X132336192Y-72373688D01*
X132190540Y-72052719D01*
X132147688Y-71982495D01*
X131924802Y-71698927D01*
X131661491Y-71471218D01*
X131366865Y-71300551D01*
X131050041Y-71188112D01*
X130720130Y-71135083D01*
X130386246Y-71142651D01*
X130057503Y-71211998D01*
X129743014Y-71344309D01*
X129451893Y-71540768D01*
X129361840Y-71620506D01*
X129132653Y-71870108D01*
X128965646Y-72132868D01*
X128851085Y-72427399D01*
X128787281Y-72719075D01*
X128771530Y-73047012D01*
X128824051Y-73376577D01*
X128939510Y-73696630D01*
X129112571Y-73996032D01*
X129337899Y-74263643D01*
X129610160Y-74488325D01*
X129645942Y-74512008D01*
X129759302Y-74589568D01*
X129845478Y-74656768D01*
X129886677Y-74699675D01*
X129887276Y-74701031D01*
X129878431Y-74747446D01*
X129843369Y-74852786D01*
X129785733Y-75008388D01*
X129709166Y-75205584D01*
X129617314Y-75435710D01*
X129513817Y-75690101D01*
X129402321Y-75960090D01*
X129286468Y-76237012D01*
X129169903Y-76512201D01*
X129056267Y-76776993D01*
X128949206Y-77022721D01*
X128852362Y-77240721D01*
X128769379Y-77422326D01*
X128703901Y-77558871D01*
X128659569Y-77641690D01*
X128641717Y-77663441D01*
X128587166Y-77646504D01*
X128485095Y-77601077D01*
X128353105Y-77535280D01*
X128280526Y-77496813D01*
X127972295Y-77330155D01*
X127605103Y-77578519D01*
X127417660Y-77705754D01*
X127212443Y-77845773D01*
X127020133Y-77977612D01*
X126923807Y-78044001D01*
X126788327Y-78134976D01*
X126673607Y-78207071D01*
X126594612Y-78251154D01*
X126568954Y-78260473D01*
X126531609Y-78235334D01*
X126448958Y-78165154D01*
X126329015Y-78057220D01*
X126179791Y-77918818D01*
X126009301Y-77757235D01*
X125901474Y-77653488D01*
X125712828Y-77468135D01*
X125549795Y-77302351D01*
X125418968Y-77163227D01*
X125326935Y-77057856D01*
X125280287Y-76993329D01*
X125275812Y-76980234D01*
X125296580Y-76930425D01*
X125353969Y-76829713D01*
X125441613Y-76688295D01*
X125553146Y-76516367D01*
X125682203Y-76324124D01*
X125718904Y-76270529D01*
X125852632Y-76075733D01*
X125972607Y-75900353D01*
X126072121Y-75754243D01*
X126144467Y-75647258D01*
X126182936Y-75589255D01*
X126186653Y-75583257D01*
X126181095Y-75537032D01*
X126151593Y-75435398D01*
X126103291Y-75291758D01*
X126041333Y-75119514D01*
X125970863Y-74932066D01*
X125897025Y-74742818D01*
X125824963Y-74565171D01*
X125759822Y-74412527D01*
X125706745Y-74298288D01*
X125670877Y-74235856D01*
X125668327Y-74232861D01*
X125646394Y-74215019D01*
X125609348Y-74197374D01*
X125549059Y-74178101D01*
X125457396Y-74155374D01*
X125326226Y-74127364D01*
X125147418Y-74092247D01*
X124912842Y-74048195D01*
X124614365Y-73993382D01*
X124549740Y-73981597D01*
X124358206Y-73944591D01*
X124191231Y-73908389D01*
X124063568Y-73876485D01*
X123989976Y-73852372D01*
X123980108Y-73846750D01*
X123963847Y-73796910D01*
X123950630Y-73685532D01*
X123940464Y-73525563D01*
X123933360Y-73329950D01*
X123929326Y-73111640D01*
X123928370Y-72883579D01*
X123930502Y-72658714D01*
X123935731Y-72449991D01*
X123944065Y-72270358D01*
X123955513Y-72132762D01*
X123970084Y-72050148D01*
X123978868Y-72033240D01*
X124027770Y-72016184D01*
X124139127Y-71988436D01*
X124301844Y-71952403D01*
X124504826Y-71910493D01*
X124736979Y-71865111D01*
X124863462Y-71841326D01*
X125103445Y-71796465D01*
X125317451Y-71755825D01*
X125495022Y-71721446D01*
X125625698Y-71695365D01*
X125699018Y-71679621D01*
X125711085Y-71676130D01*
X125731481Y-71636779D01*
X125774594Y-71541993D01*
X125834679Y-71405315D01*
X125905987Y-71240286D01*
X125982773Y-71060447D01*
X126059290Y-70879340D01*
X126129790Y-70710507D01*
X126188527Y-70567488D01*
X126229754Y-70463826D01*
X126247724Y-70413061D01*
X126248059Y-70410842D01*
X126227687Y-70370796D01*
X126170573Y-70278639D01*
X126082721Y-70143533D01*
X125970133Y-69974635D01*
X125838811Y-69781105D01*
X125762471Y-69669941D01*
X125623364Y-69466116D01*
X125499812Y-69281063D01*
X125397842Y-69124146D01*
X125323483Y-69004724D01*
X125282763Y-68932160D01*
X125276882Y-68915893D01*
X125302163Y-68878030D01*
X125372052Y-68797186D01*
X125477623Y-68682419D01*
X125609948Y-68542785D01*
X125760099Y-68387342D01*
X125919148Y-68225146D01*
X126078167Y-68065254D01*
X126228229Y-67916724D01*
X126360406Y-67788613D01*
X126465770Y-67689977D01*
X126535393Y-67629873D01*
X126558685Y-67615529D01*
X126596610Y-67635699D01*
X126687317Y-67692363D01*
X126821989Y-67779753D01*
X126991805Y-67892100D01*
X127187946Y-68023638D01*
X127335900Y-68123849D01*
X128083436Y-68632168D01*
X128706556Y-68375298D01*
X129329676Y-68118427D01*
X129667424Y-66326853D01*
X131531929Y-66326853D01*
X131700803Y-67222640D01*
G36*
X131700803Y-67222640D02*
G01*
X131869676Y-68118427D01*
X132492796Y-68375298D01*
X133115916Y-68632168D01*
X133863453Y-68123849D01*
X134072802Y-67982316D01*
X134262043Y-67855945D01*
X134422343Y-67750507D01*
X134544874Y-67671770D01*
X134620802Y-67625505D01*
X134641480Y-67615529D01*
X134678731Y-67641186D01*
X134758332Y-67712115D01*
X134871361Y-67819257D01*
X135008895Y-67953550D01*
X135162012Y-68105934D01*
X135321789Y-68267347D01*
X135479305Y-68428730D01*
X135625637Y-68581022D01*
X135751863Y-68715162D01*
X135849060Y-68822089D01*
X135908307Y-68892742D01*
X135922471Y-68916388D01*
X135902087Y-68959979D01*
X135844941Y-69055481D01*
X135757041Y-69193550D01*
X135644396Y-69364845D01*
X135513013Y-69560025D01*
X135436882Y-69671352D01*
X135298118Y-69874633D01*
X135174811Y-70058073D01*
X135072945Y-70212542D01*
X134998501Y-70328909D01*
X134957461Y-70398042D01*
X134951294Y-70412570D01*
X134965274Y-70453860D01*
X135003382Y-70550092D01*
X135059867Y-70687734D01*
X135128980Y-70853258D01*
X135204970Y-71033132D01*
X135282089Y-71213828D01*
X135354585Y-71381814D01*
X135416709Y-71523560D01*
X135462712Y-71625537D01*
X135486843Y-71674214D01*
X135488267Y-71676130D01*
X135526158Y-71685425D01*
X135627069Y-71706160D01*
X135780540Y-71736298D01*
X135976112Y-71773801D01*
X136203325Y-71816629D01*
X136335891Y-71841326D01*
X136578679Y-71887553D01*
X136797974Y-71931540D01*
X136982681Y-71970881D01*
X137121705Y-72003169D01*
X137203952Y-72025997D01*
X137220485Y-72033240D01*
X137236678Y-72082261D01*
X137249744Y-72192977D01*
X137259691Y-72352438D01*
X137266528Y-72547700D01*
X137270264Y-72765814D01*
X137270907Y-72993835D01*
X137268468Y-73218815D01*
X137262953Y-73427809D01*
X137254374Y-73607868D01*
X137242737Y-73746047D01*
X137228052Y-73829398D01*
X137219245Y-73846750D01*
X137166599Y-73867548D01*
X137055043Y-73897282D01*
X136899335Y-73932459D01*
X136714229Y-73969586D01*
X136649613Y-73981597D01*
X136338071Y-74038662D01*
X136091976Y-74084618D01*
X135903195Y-74121293D01*
X135763598Y-74150513D01*
X135665052Y-74174104D01*
X135599426Y-74193892D01*
X135558589Y-74211706D01*
X135534409Y-74229370D01*
X135531026Y-74232861D01*
X135497255Y-74289100D01*
X135445737Y-74398547D01*
X135381617Y-74547800D01*
X135310039Y-74723459D01*
X135236146Y-74912121D01*
X135165083Y-75100385D01*
X135101993Y-75274848D01*
X135052021Y-75422108D01*
X135020312Y-75528764D01*
X135012008Y-75581413D01*
X135012700Y-75583257D01*
X135040836Y-75626292D01*
X135104665Y-75720978D01*
X135197480Y-75857460D01*
X135312573Y-76025882D01*
X135443237Y-76216390D01*
X135480448Y-76270529D01*
X135613129Y-76466804D01*
X135729883Y-76645886D01*
X135824349Y-76797492D01*
X135890168Y-76911338D01*
X135920978Y-76977141D01*
X135922471Y-76985225D01*
X135896584Y-77027715D01*
X135825054Y-77111891D01*
X135717076Y-77228705D01*
X135581846Y-77369110D01*
X135428558Y-77524061D01*
X135266409Y-77684509D01*
X135104593Y-77841409D01*
X134952306Y-77985713D01*
X134818743Y-78108376D01*
X134713100Y-78200350D01*
X134644572Y-78252589D01*
X134625614Y-78261118D01*
X134581487Y-78241029D01*
X134491142Y-78186849D01*
X134369295Y-78107704D01*
X134275546Y-78044001D01*
X134105678Y-77927110D01*
X133904512Y-77789476D01*
X133702733Y-77652063D01*
X133594250Y-77578519D01*
X133227058Y-77330155D01*
X132918826Y-77496813D01*
X132778404Y-77569822D01*
X132658996Y-77626571D01*
X132578202Y-77658937D01*
X132557636Y-77663441D01*
X132532906Y-77630189D01*
X132484118Y-77536224D01*
X132414913Y-77390213D01*
X132328935Y-77200824D01*
X132229824Y-76976724D01*
X132121224Y-76726581D01*
X132006775Y-76459063D01*
X131890120Y-76182836D01*
X131774901Y-75906568D01*
X131664760Y-75638927D01*
X131563339Y-75388580D01*
X131474280Y-75164195D01*
X131401225Y-74974439D01*
X131347816Y-74827980D01*
X131317695Y-74733485D01*
X131312851Y-74701031D01*
X131351245Y-74659636D01*
X131435308Y-74592438D01*
X131547467Y-74513400D01*
X131556881Y-74507147D01*
X131846768Y-74275103D01*
X132080512Y-74004386D01*
X132256087Y-73703653D01*
X132371469Y-73381561D01*
X132424630Y-73046765D01*
X132413547Y-72707922D01*
X132336192Y-72373688D01*
X132190540Y-72052719D01*
X132147688Y-71982495D01*
X131924802Y-71698927D01*
X131661491Y-71471218D01*
X131366865Y-71300551D01*
X131050041Y-71188112D01*
X130720130Y-71135083D01*
X130386246Y-71142651D01*
X130057503Y-71211998D01*
X129743014Y-71344309D01*
X129451893Y-71540768D01*
X129361840Y-71620506D01*
X129132653Y-71870108D01*
X128965646Y-72132868D01*
X128851085Y-72427399D01*
X128787281Y-72719075D01*
X128771530Y-73047012D01*
X128824051Y-73376577D01*
X128939510Y-73696630D01*
X129112571Y-73996032D01*
X129337899Y-74263643D01*
X129610160Y-74488325D01*
X129645942Y-74512008D01*
X129759302Y-74589568D01*
X129845478Y-74656768D01*
X129886677Y-74699675D01*
X129887276Y-74701031D01*
X129878431Y-74747446D01*
X129843369Y-74852786D01*
X129785733Y-75008388D01*
X129709166Y-75205584D01*
X129617314Y-75435710D01*
X129513817Y-75690101D01*
X129402321Y-75960090D01*
X129286468Y-76237012D01*
X129169903Y-76512201D01*
X129056267Y-76776993D01*
X128949206Y-77022721D01*
X128852362Y-77240721D01*
X128769379Y-77422326D01*
X128703901Y-77558871D01*
X128659569Y-77641690D01*
X128641717Y-77663441D01*
X128587166Y-77646504D01*
X128485095Y-77601077D01*
X128353105Y-77535280D01*
X128280526Y-77496813D01*
X127972295Y-77330155D01*
X127605103Y-77578519D01*
X127417660Y-77705754D01*
X127212443Y-77845773D01*
X127020133Y-77977612D01*
X126923807Y-78044001D01*
X126788327Y-78134976D01*
X126673607Y-78207071D01*
X126594612Y-78251154D01*
X126568954Y-78260473D01*
X126531609Y-78235334D01*
X126448958Y-78165154D01*
X126329015Y-78057220D01*
X126179791Y-77918818D01*
X126009301Y-77757235D01*
X125901474Y-77653488D01*
X125712828Y-77468135D01*
X125549795Y-77302351D01*
X125418968Y-77163227D01*
X125326935Y-77057856D01*
X125280287Y-76993329D01*
X125275812Y-76980234D01*
X125296580Y-76930425D01*
X125353969Y-76829713D01*
X125441613Y-76688295D01*
X125553146Y-76516367D01*
X125682203Y-76324124D01*
X125718904Y-76270529D01*
X125852632Y-76075733D01*
X125972607Y-75900353D01*
X126072121Y-75754243D01*
X126144467Y-75647258D01*
X126182936Y-75589255D01*
X126186653Y-75583257D01*
X126181095Y-75537032D01*
X126151593Y-75435398D01*
X126103291Y-75291758D01*
X126041333Y-75119514D01*
X125970863Y-74932066D01*
X125897025Y-74742818D01*
X125824963Y-74565171D01*
X125759822Y-74412527D01*
X125706745Y-74298288D01*
X125670877Y-74235856D01*
X125668327Y-74232861D01*
X125646394Y-74215019D01*
X125609348Y-74197374D01*
X125549059Y-74178101D01*
X125457396Y-74155374D01*
X125326226Y-74127364D01*
X125147418Y-74092247D01*
X124912842Y-74048195D01*
X124614365Y-73993382D01*
X124549740Y-73981597D01*
X124358206Y-73944591D01*
X124191231Y-73908389D01*
X124063568Y-73876485D01*
X123989976Y-73852372D01*
X123980108Y-73846750D01*
X123963847Y-73796910D01*
X123950630Y-73685532D01*
X123940464Y-73525563D01*
X123933360Y-73329950D01*
X123929326Y-73111640D01*
X123928370Y-72883579D01*
X123930502Y-72658714D01*
X123935731Y-72449991D01*
X123944065Y-72270358D01*
X123955513Y-72132762D01*
X123970084Y-72050148D01*
X123978868Y-72033240D01*
X124027770Y-72016184D01*
X124139127Y-71988436D01*
X124301844Y-71952403D01*
X124504826Y-71910493D01*
X124736979Y-71865111D01*
X124863462Y-71841326D01*
X125103445Y-71796465D01*
X125317451Y-71755825D01*
X125495022Y-71721446D01*
X125625698Y-71695365D01*
X125699018Y-71679621D01*
X125711085Y-71676130D01*
X125731481Y-71636779D01*
X125774594Y-71541993D01*
X125834679Y-71405315D01*
X125905987Y-71240286D01*
X125982773Y-71060447D01*
X126059290Y-70879340D01*
X126129790Y-70710507D01*
X126188527Y-70567488D01*
X126229754Y-70463826D01*
X126247724Y-70413061D01*
X126248059Y-70410842D01*
X126227687Y-70370796D01*
X126170573Y-70278639D01*
X126082721Y-70143533D01*
X125970133Y-69974635D01*
X125838811Y-69781105D01*
X125762471Y-69669941D01*
X125623364Y-69466116D01*
X125499812Y-69281063D01*
X125397842Y-69124146D01*
X125323483Y-69004724D01*
X125282763Y-68932160D01*
X125276882Y-68915893D01*
X125302163Y-68878030D01*
X125372052Y-68797186D01*
X125477623Y-68682419D01*
X125609948Y-68542785D01*
X125760099Y-68387342D01*
X125919148Y-68225146D01*
X126078167Y-68065254D01*
X126228229Y-67916724D01*
X126360406Y-67788613D01*
X126465770Y-67689977D01*
X126535393Y-67629873D01*
X126558685Y-67615529D01*
X126596610Y-67635699D01*
X126687317Y-67692363D01*
X126821989Y-67779753D01*
X126991805Y-67892100D01*
X127187946Y-68023638D01*
X127335900Y-68123849D01*
X128083436Y-68632168D01*
X128706556Y-68375298D01*
X129329676Y-68118427D01*
X129667424Y-66326853D01*
X131531929Y-66326853D01*
X131700803Y-67222640D01*
G37*
%TD*%
D13*
%TO.C,BAT1*%
X142798400Y-218321200D03*
%TD*%
D14*
%TO.C,R11*%
X129729950Y-148409300D03*
X129729950Y-145309300D03*
%TD*%
D15*
%TO.C,RV1*%
X126161400Y-133205800D03*
X126161400Y-130665800D03*
X126161400Y-128125800D03*
%TD*%
D16*
%TO.C,DS1*%
X126990900Y-86174500D03*
X126990900Y-117175200D03*
X201989480Y-117175200D03*
X201990000Y-86174500D03*
D17*
X132490000Y-86174500D03*
D18*
X135030000Y-86174500D03*
X137570000Y-86174500D03*
X140110000Y-86174500D03*
X142650000Y-86174500D03*
X145190000Y-86174500D03*
X147730000Y-86174500D03*
X150270000Y-86174500D03*
X152810000Y-86174500D03*
X155350000Y-86174500D03*
X157890000Y-86174500D03*
X160430000Y-86174500D03*
X162970000Y-86174500D03*
X165510000Y-86174500D03*
X168050000Y-86174500D03*
X170590000Y-86174500D03*
%TD*%
D19*
%TO.C,C8*%
X136232900Y-217940200D03*
X133107900Y-217940200D03*
%TD*%
D20*
%TO.C,D2*%
X184506800Y-193530800D03*
X182456800Y-193530800D03*
%TD*%
D21*
%TO.C,C7*%
X174040400Y-208961700D03*
X174040400Y-205836700D03*
%TD*%
D22*
%TO.C,R7*%
X182244000Y-190990800D03*
X185344000Y-190990800D03*
%TD*%
D19*
%TO.C,C1*%
X136137500Y-184634600D03*
X133012500Y-184634600D03*
%TD*%
D23*
%TO.C,R8*%
X188900000Y-201289000D03*
X185800000Y-201289000D03*
%TD*%
D24*
%TO.C,F2*%
X193977200Y-221572400D03*
X171477200Y-221572400D03*
%TD*%
D25*
%TO.C,U3*%
X176139200Y-209456986D03*
X176639200Y-209456986D03*
X177139200Y-209456986D03*
X177639200Y-209456986D03*
X178139200Y-209456986D03*
X178139200Y-205156986D03*
X177639200Y-205156986D03*
X177139200Y-205156986D03*
X176639200Y-205156986D03*
X176139200Y-205156986D03*
%TD*%
D26*
%TO.C,U1*%
X136486000Y-172510600D03*
X135686000Y-172510600D03*
X134886000Y-172510600D03*
X134086000Y-172510600D03*
X133286000Y-172510600D03*
X132486000Y-172510600D03*
X131686000Y-172510600D03*
X130886000Y-172510600D03*
D27*
X129436000Y-173960600D03*
X129436000Y-174760600D03*
X129436000Y-175560600D03*
X129436000Y-176360600D03*
X129436000Y-177160600D03*
X129436000Y-177960600D03*
X129436000Y-178760600D03*
X129436000Y-179560600D03*
D26*
X130886000Y-181010600D03*
X131686000Y-181010600D03*
X132486000Y-181010600D03*
X133286000Y-181010600D03*
X134086000Y-181010600D03*
X134886000Y-181010600D03*
X135686000Y-181010600D03*
X136486000Y-181010600D03*
D27*
X137936000Y-179560600D03*
X137936000Y-178760600D03*
X137936000Y-177960600D03*
X137936000Y-177160600D03*
X137936000Y-176360600D03*
X137936000Y-175560600D03*
X137936000Y-174760600D03*
X137936000Y-173960600D03*
%TD*%
D28*
%TO.C,BAT-1*%
X128447400Y-222766200D03*
%TD*%
D19*
%TO.C,C2*%
X184315100Y-214104800D03*
X181190100Y-214104800D03*
%TD*%
D22*
%TO.C,R4*%
X159942800Y-190990800D03*
X163042800Y-190990800D03*
%TD*%
D29*
%TO.C,C9*%
X131622400Y-207868700D03*
X131622400Y-210993700D03*
%TD*%
D30*
%TO.C,C12*%
X163308500Y-209482000D03*
X166433500Y-209482000D03*
%TD*%
D22*
%TO.C,R19*%
X163321000Y-212022000D03*
X166421000Y-212022000D03*
%TD*%
D31*
%TO.C,J5*%
X126676000Y-202378000D03*
D32*
X126676000Y-204398000D03*
D33*
X126676000Y-205628000D03*
D34*
X126676000Y-203378000D03*
D35*
X126676000Y-201358000D03*
D36*
X126676000Y-200128000D03*
D37*
X126596000Y-198558000D03*
X122796000Y-198558000D03*
X126596000Y-207198000D03*
X122796000Y-207198000D03*
%TD*%
D28*
%TO.C,BAT+1*%
X141909400Y-222766200D03*
%TD*%
D38*
%TO.C,J1*%
X125608950Y-154414800D03*
D39*
X125608950Y-151874800D03*
X125608950Y-149334800D03*
X125608950Y-146794800D03*
X125608950Y-144254800D03*
X125608950Y-141714800D03*
%TD*%
D40*
%TO.C,D1*%
X191922000Y-168112000D03*
X191922000Y-172112000D03*
%TD*%
D29*
%TO.C,C6*%
X122630800Y-162605900D03*
X122630800Y-165730900D03*
%TD*%
D38*
%TO.C,J6*%
X146451000Y-211006000D03*
D39*
X148991000Y-211006000D03*
%TD*%
D41*
%TO.C,TP1*%
X141884000Y-187892000D03*
%TD*%
D38*
%TO.C,J10*%
X159634000Y-183467400D03*
D39*
X159634000Y-186007400D03*
%TD*%
D42*
%TO.C,U2*%
X186842000Y-206499000D03*
X185572000Y-206499000D03*
X184302000Y-206499000D03*
X183032000Y-206499000D03*
X183032000Y-211449000D03*
X184302000Y-211449000D03*
X185572000Y-211449000D03*
X186842000Y-211449000D03*
%TD*%
D43*
%TO.C,R22*%
X153949000Y-181389000D03*
X153949000Y-184489000D03*
%TD*%
D38*
%TO.C,J13*%
X179105600Y-183447000D03*
D39*
X179105600Y-185987000D03*
%TD*%
D24*
%TO.C,F1*%
X201116800Y-169678000D03*
X201116800Y-147178000D03*
%TD*%
D43*
%TO.C,R16*%
X126542400Y-210167200D03*
X126542400Y-213267200D03*
%TD*%
D44*
%TO.C,C3*%
X133489346Y-169565854D03*
X135699054Y-167356146D03*
%TD*%
D43*
%TO.C,R23*%
X163687800Y-181516000D03*
X163687800Y-184616000D03*
%TD*%
D13*
%TO.C,TP3*%
X174954800Y-211869600D03*
%TD*%
D45*
%TO.C,J3*%
X201193000Y-198610000D03*
%TD*%
D43*
%TO.C,R25*%
X183118800Y-181516000D03*
X183118800Y-184616000D03*
%TD*%
D13*
%TO.C,TP2*%
X169214400Y-203436800D03*
%TD*%
D46*
%TO.C,C13*%
X163452000Y-223579000D03*
X167052000Y-223579000D03*
%TD*%
D23*
%TO.C,R9*%
X190170000Y-203829000D03*
X187070000Y-203829000D03*
%TD*%
D22*
%TO.C,R3*%
X154964400Y-190990800D03*
X158064400Y-190990800D03*
%TD*%
D23*
%TO.C,R15*%
X134315400Y-213495200D03*
X131215400Y-213495200D03*
%TD*%
D22*
%TO.C,R14*%
X130402600Y-133205800D03*
X133502600Y-133205800D03*
%TD*%
D47*
%TO.C,Y1*%
X125343389Y-169837812D03*
X128794070Y-166387131D03*
%TD*%
D48*
%TO.C,D4*%
X134071900Y-197036000D03*
X137046900Y-197036000D03*
%TD*%
D22*
%TO.C,R6*%
X173608000Y-190990800D03*
X176708000Y-190990800D03*
%TD*%
D43*
%TO.C,R13*%
X177647200Y-199727800D03*
X177647200Y-202827800D03*
%TD*%
D14*
%TO.C,R21*%
X140639400Y-205266200D03*
X140639400Y-202166200D03*
%TD*%
D38*
%TO.C,J7*%
X147218000Y-190990800D03*
D39*
X147218000Y-193530800D03*
%TD*%
D38*
%TO.C,J11*%
X179476000Y-190990800D03*
D39*
X179476000Y-193530800D03*
%TD*%
D49*
%TO.C,JP2*%
X151485200Y-217182800D03*
X151485200Y-215882800D03*
X151485200Y-214582800D03*
%TD*%
D29*
%TO.C,C4*%
X129729950Y-150376800D03*
X129729950Y-153501800D03*
%TD*%
D50*
%TO.C,U5*%
X159297000Y-214942600D03*
X156997000Y-214942600D03*
D51*
X156997000Y-221242600D03*
D50*
X154697000Y-214942600D03*
%TD*%
D43*
%TO.C,R24*%
X173416000Y-181516000D03*
X173416000Y-184616000D03*
%TD*%
D52*
%TO.C,R1*%
X190245600Y-214868800D03*
X190245600Y-208768800D03*
%TD*%
D13*
%TO.C,BMS_Out1*%
X144805000Y-206053000D03*
%TD*%
D38*
%TO.C,J12*%
X169365000Y-183447000D03*
D39*
X169365000Y-185987000D03*
%TD*%
D45*
%TO.C,J2*%
X201193000Y-179610000D03*
%TD*%
D22*
%TO.C,R2*%
X149986000Y-190990800D03*
X153086000Y-190990800D03*
%TD*%
D41*
%TO.C,GND1*%
X124256400Y-218702200D03*
%TD*%
D21*
%TO.C,C11*%
X136575400Y-205913700D03*
X136575400Y-202788700D03*
%TD*%
D45*
%TO.C,J4*%
X201193000Y-217610000D03*
%TD*%
D46*
%TO.C,C10*%
X155197000Y-208085000D03*
X158797000Y-208085000D03*
%TD*%
D22*
%TO.C,R5*%
X168578800Y-190990800D03*
X171678800Y-190990800D03*
%TD*%
D41*
%TO.C,5V1*%
X150647000Y-222156600D03*
%TD*%
D38*
%TO.C,J9*%
X165810800Y-190985800D03*
D39*
X165810800Y-193525800D03*
%TD*%
D53*
%TO.C,D5*%
X162839000Y-219102000D03*
X162839000Y-215102000D03*
%TD*%
D54*
%TO.C,D3*%
X130773100Y-186723600D03*
X127798100Y-186723600D03*
%TD*%
D55*
%TO.C,JP1*%
X139847400Y-215146200D03*
X141147400Y-215146200D03*
X142447400Y-215146200D03*
%TD*%
D22*
%TO.C,R10*%
X127786400Y-183980400D03*
X130886400Y-183980400D03*
%TD*%
D21*
%TO.C,C5*%
X125297800Y-163571900D03*
X125297800Y-160446900D03*
%TD*%
D43*
%TO.C,R18*%
X128955400Y-210294200D03*
X128955400Y-213394200D03*
%TD*%
%TO.C,R12*%
X175056400Y-199727800D03*
X175056400Y-202827800D03*
%TD*%
D14*
%TO.C,R17*%
X134162400Y-205317000D03*
X134162400Y-202217000D03*
%TD*%
D22*
%TO.C,R20*%
X157098000Y-212276000D03*
X160198000Y-212276000D03*
%TD*%
D38*
%TO.C,J8*%
X149885000Y-183442000D03*
D39*
X149885000Y-185982000D03*
%TD*%
D28*
%TO.C,Thermistor1*%
X135259400Y-223198000D03*
%TD*%
D56*
%TO.C,U4*%
X135065400Y-210743700D03*
X135565400Y-210743700D03*
X136065400Y-210743700D03*
X136565400Y-210743700D03*
D57*
X137252900Y-210056200D03*
X137252900Y-209556200D03*
X137252900Y-209056200D03*
X137252900Y-208556200D03*
D56*
X136565400Y-207868700D03*
X136065400Y-207868700D03*
X135565400Y-207868700D03*
X135065400Y-207868700D03*
D57*
X134377900Y-208556200D03*
X134377900Y-209056200D03*
X134377900Y-209556200D03*
X134377900Y-210056200D03*
D58*
X135815400Y-209306200D03*
%TD*%
D59*
%TO.C,SW1*%
X135394300Y-142680000D03*
X129031600Y-142680000D03*
X135394300Y-138971600D03*
X129031600Y-138971600D03*
%TD*%
M02*
