%TF.GenerationSoftware,KiCad,Pcbnew,8.0.0*%
%TF.CreationDate,2025-03-31T17:33:55-04:00*%
%TF.ProjectId,oshe_dmm_project_v1,6f736865-5f64-46d6-9d5f-70726f6a6563,V1*%
%TF.SameCoordinates,Original*%
%TF.FileFunction,Profile,NP*%
%FSLAX46Y46*%
G04 Gerber Fmt 4.6, Leading zero omitted, Abs format (unit mm)*
G04 Created by KiCad (PCBNEW 8.0.0) date 2025-03-31 17:33:55*
%MOMM*%
%LPD*%
G01*
G04 APERTURE LIST*
%TA.AperFunction,Profile*%
%ADD10C,0.050000*%
%TD*%
%TA.AperFunction,Profile*%
%ADD11C,0.200000*%
%TD*%
G04 APERTURE END LIST*
D10*
X207416000Y-66226000D02*
G75*
G02*
X204368000Y-66226000I-1524000J0D01*
G01*
X204368000Y-66226000D02*
G75*
G02*
X207416000Y-66226000I1524000J0D01*
G01*
X124612000Y-225230000D02*
G75*
G02*
X121564000Y-225230000I-1524000J0D01*
G01*
X121564000Y-225230000D02*
G75*
G02*
X124612000Y-225230000I1524000J0D01*
G01*
X149758000Y-125535000D02*
G75*
G02*
X146710000Y-125535000I-1524000J0D01*
G01*
X146710000Y-125535000D02*
G75*
G02*
X149758000Y-125535000I1524000J0D01*
G01*
D11*
X120040000Y-63178000D02*
X208940000Y-63178000D01*
X208940000Y-228278000D01*
X120040000Y-228278000D01*
X120040000Y-63178000D01*
D10*
X182270000Y-125535000D02*
G75*
G02*
X179222000Y-125535000I-1524000J0D01*
G01*
X179222000Y-125535000D02*
G75*
G02*
X182270000Y-125535000I1524000J0D01*
G01*
X207416000Y-225230000D02*
G75*
G02*
X204368000Y-225230000I-1524000J0D01*
G01*
X204368000Y-225230000D02*
G75*
G02*
X207416000Y-225230000I1524000J0D01*
G01*
X124612000Y-66226000D02*
G75*
G02*
X121564000Y-66226000I-1524000J0D01*
G01*
X121564000Y-66226000D02*
G75*
G02*
X124612000Y-66226000I1524000J0D01*
G01*
X182270000Y-178875000D02*
G75*
G02*
X179222000Y-178875000I-1524000J0D01*
G01*
X179222000Y-178875000D02*
G75*
G02*
X182270000Y-178875000I1524000J0D01*
G01*
X166990000Y-152078000D02*
G75*
G02*
X161990000Y-152078000I-2500000J0D01*
G01*
X161990000Y-152078000D02*
G75*
G02*
X166990000Y-152078000I2500000J0D01*
G01*
X149758000Y-178875000D02*
G75*
G02*
X146710000Y-178875000I-1524000J0D01*
G01*
X146710000Y-178875000D02*
G75*
G02*
X149758000Y-178875000I1524000J0D01*
G01*
M02*
