%TF.GenerationSoftware,KiCad,Pcbnew,8.0.0*%
%TF.CreationDate,2025-03-31T17:33:55-04:00*%
%TF.ProjectId,oshe_dmm_project_v1,6f736865-5f64-46d6-9d5f-70726f6a6563,V1*%
%TF.SameCoordinates,Original*%
%TF.FileFunction,Soldermask,Bot*%
%TF.FilePolarity,Negative*%
%FSLAX46Y46*%
G04 Gerber Fmt 4.6, Leading zero omitted, Abs format (unit mm)*
G04 Created by KiCad (PCBNEW 8.0.0) date 2025-03-31 17:33:55*
%MOMM*%
%LPD*%
G01*
G04 APERTURE LIST*
%ADD10C,1.440000*%
%ADD11C,3.000000*%
%ADD12R,1.800000X2.600000*%
%ADD13O,1.800000X2.600000*%
%ADD14C,2.184000*%
%ADD15C,4.000000*%
%ADD16O,1.700000X1.100000*%
%ADD17R,1.700000X1.700000*%
%ADD18O,1.700000X1.700000*%
%ADD19C,6.918200*%
%ADD20C,1.500000*%
G04 APERTURE END LIST*
D10*
%TO.C,RV1*%
X126161400Y-133205800D03*
X126161400Y-130665800D03*
X126161400Y-128125800D03*
%TD*%
D11*
%TO.C,DS1*%
X126990900Y-86174500D03*
X126990900Y-117175200D03*
X201989480Y-117175200D03*
X201990000Y-86174500D03*
D12*
X132490000Y-86174500D03*
D13*
X135030000Y-86174500D03*
X137570000Y-86174500D03*
X140110000Y-86174500D03*
X142650000Y-86174500D03*
X145190000Y-86174500D03*
X147730000Y-86174500D03*
X150270000Y-86174500D03*
X152810000Y-86174500D03*
X155350000Y-86174500D03*
X157890000Y-86174500D03*
X160430000Y-86174500D03*
X162970000Y-86174500D03*
X165510000Y-86174500D03*
X168050000Y-86174500D03*
X170590000Y-86174500D03*
%TD*%
D14*
%TO.C,F2*%
X193977200Y-221572400D03*
X171477200Y-221572400D03*
%TD*%
D15*
%TO.C,BAT-1*%
X128447400Y-222766200D03*
%TD*%
D16*
%TO.C,J5*%
X126596000Y-198558000D03*
X122796000Y-198558000D03*
X126596000Y-207198000D03*
X122796000Y-207198000D03*
%TD*%
D15*
%TO.C,BAT+1*%
X141909400Y-222766200D03*
%TD*%
D17*
%TO.C,J1*%
X125608950Y-154414800D03*
D18*
X125608950Y-151874800D03*
X125608950Y-149334800D03*
X125608950Y-146794800D03*
X125608950Y-144254800D03*
X125608950Y-141714800D03*
%TD*%
D17*
%TO.C,J6*%
X146451000Y-211006000D03*
D18*
X148991000Y-211006000D03*
%TD*%
D17*
%TO.C,J10*%
X159634000Y-183467400D03*
D18*
X159634000Y-186007400D03*
%TD*%
D17*
%TO.C,J13*%
X179105600Y-183447000D03*
D18*
X179105600Y-185987000D03*
%TD*%
D14*
%TO.C,F1*%
X201116800Y-169678000D03*
X201116800Y-147178000D03*
%TD*%
D19*
%TO.C,J3*%
X201193000Y-198610000D03*
%TD*%
D20*
%TO.C,Y1*%
X125343389Y-169837812D03*
X128794070Y-166387131D03*
%TD*%
D17*
%TO.C,J7*%
X147218000Y-190990800D03*
D18*
X147218000Y-193530800D03*
%TD*%
D17*
%TO.C,J11*%
X179476000Y-190990800D03*
D18*
X179476000Y-193530800D03*
%TD*%
D17*
%TO.C,J12*%
X169365000Y-183447000D03*
D18*
X169365000Y-185987000D03*
%TD*%
D19*
%TO.C,J2*%
X201193000Y-179610000D03*
%TD*%
%TO.C,J4*%
X201193000Y-217610000D03*
%TD*%
D17*
%TO.C,J9*%
X165810800Y-190985800D03*
D18*
X165810800Y-193525800D03*
%TD*%
D17*
%TO.C,J8*%
X149885000Y-183442000D03*
D18*
X149885000Y-185982000D03*
%TD*%
D15*
%TO.C,Thermistor1*%
X135259400Y-223198000D03*
%TD*%
M02*
