%TF.GenerationSoftware,KiCad,Pcbnew,8.0.0*%
%TF.CreationDate,2025-03-31T17:33:55-04:00*%
%TF.ProjectId,oshe_dmm_project_v1,6f736865-5f64-46d6-9d5f-70726f6a6563,V1*%
%TF.SameCoordinates,Original*%
%TF.FileFunction,Paste,Top*%
%TF.FilePolarity,Positive*%
%FSLAX46Y46*%
G04 Gerber Fmt 4.6, Leading zero omitted, Abs format (unit mm)*
G04 Created by KiCad (PCBNEW 8.0.0) date 2025-03-31 17:33:55*
%MOMM*%
%LPD*%
G01*
G04 APERTURE LIST*
G04 Aperture macros list*
%AMRoundRect*
0 Rectangle with rounded corners*
0 $1 Rounding radius*
0 $2 $3 $4 $5 $6 $7 $8 $9 X,Y pos of 4 corners*
0 Add a 4 corners polygon primitive as box body*
4,1,4,$2,$3,$4,$5,$6,$7,$8,$9,$2,$3,0*
0 Add four circle primitives for the rounded corners*
1,1,$1+$1,$2,$3*
1,1,$1+$1,$4,$5*
1,1,$1+$1,$6,$7*
1,1,$1+$1,$8,$9*
0 Add four rect primitives between the rounded corners*
20,1,$1+$1,$2,$3,$4,$5,0*
20,1,$1+$1,$4,$5,$6,$7,0*
20,1,$1+$1,$6,$7,$8,$9,0*
20,1,$1+$1,$8,$9,$2,$3,0*%
G04 Aperture macros list end*
%ADD10R,3.800000X2.000000*%
%ADD11RoundRect,0.250000X0.625000X-0.400000X0.625000X0.400000X-0.625000X0.400000X-0.625000X-0.400000X0*%
%ADD12RoundRect,0.250000X0.412500X0.650000X-0.412500X0.650000X-0.412500X-0.650000X0.412500X-0.650000X0*%
%ADD13RoundRect,0.250000X0.325000X0.450000X-0.325000X0.450000X-0.325000X-0.450000X0.325000X-0.450000X0*%
%ADD14RoundRect,0.250000X0.650000X-0.412500X0.650000X0.412500X-0.650000X0.412500X-0.650000X-0.412500X0*%
%ADD15RoundRect,0.250000X-0.400000X-0.625000X0.400000X-0.625000X0.400000X0.625000X-0.400000X0.625000X0*%
%ADD16RoundRect,0.250000X0.400000X0.625000X-0.400000X0.625000X-0.400000X-0.625000X0.400000X-0.625000X0*%
%ADD17R,0.250000X1.100000*%
%ADD18R,0.550000X1.600000*%
%ADD19R,1.600000X0.550000*%
%ADD20RoundRect,0.250000X-0.650000X0.412500X-0.650000X-0.412500X0.650000X-0.412500X0.650000X0.412500X0*%
%ADD21RoundRect,0.250000X-0.412500X-0.650000X0.412500X-0.650000X0.412500X0.650000X-0.412500X0.650000X0*%
%ADD22RoundRect,0.175000X-0.425000X0.175000X-0.425000X-0.175000X0.425000X-0.175000X0.425000X0.175000X0*%
%ADD23RoundRect,0.190000X0.410000X-0.190000X0.410000X0.190000X-0.410000X0.190000X-0.410000X-0.190000X0*%
%ADD24RoundRect,0.200000X0.400000X-0.200000X0.400000X0.200000X-0.400000X0.200000X-0.400000X-0.200000X0*%
%ADD25RoundRect,0.175000X0.425000X-0.175000X0.425000X0.175000X-0.425000X0.175000X-0.425000X-0.175000X0*%
%ADD26RoundRect,0.190000X-0.410000X0.190000X-0.410000X-0.190000X0.410000X-0.190000X0.410000X0.190000X0*%
%ADD27RoundRect,0.200000X-0.400000X0.200000X-0.400000X-0.200000X0.400000X-0.200000X0.400000X0.200000X0*%
%ADD28O,1.700000X1.100000*%
%ADD29RoundRect,0.250000X-0.650000X1.000000X-0.650000X-1.000000X0.650000X-1.000000X0.650000X1.000000X0*%
%ADD30R,2.000000X3.800000*%
%ADD31RoundRect,0.150000X-0.150000X0.825000X-0.150000X-0.825000X0.150000X-0.825000X0.150000X0.825000X0*%
%ADD32RoundRect,0.250000X-0.625000X0.400000X-0.625000X-0.400000X0.625000X-0.400000X0.625000X0.400000X0*%
%ADD33RoundRect,0.250000X0.167938X-0.751301X0.751301X-0.167938X-0.167938X0.751301X-0.751301X0.167938X0*%
%ADD34RoundRect,0.250000X-1.050000X-0.550000X1.050000X-0.550000X1.050000X0.550000X-1.050000X0.550000X0*%
%ADD35RoundRect,0.250001X-0.462499X-0.624999X0.462499X-0.624999X0.462499X0.624999X-0.462499X0.624999X0*%
%ADD36RoundRect,0.375000X-0.375000X0.625000X-0.375000X-0.625000X0.375000X-0.625000X0.375000X0.625000X0*%
%ADD37RoundRect,0.500000X-1.400000X0.500000X-1.400000X-0.500000X1.400000X-0.500000X1.400000X0.500000X0*%
%ADD38RoundRect,0.249999X1.425001X-0.450001X1.425001X0.450001X-1.425001X0.450001X-1.425001X-0.450001X0*%
%ADD39RoundRect,0.250000X0.650000X-1.000000X0.650000X1.000000X-0.650000X1.000000X-0.650000X-1.000000X0*%
%ADD40RoundRect,0.250001X0.462499X0.624999X-0.462499X0.624999X-0.462499X-0.624999X0.462499X-0.624999X0*%
%ADD41RoundRect,0.160000X0.160000X-0.160000X0.160000X0.160000X-0.160000X0.160000X-0.160000X-0.160000X0*%
%ADD42RoundRect,0.062500X0.062500X-0.375000X0.062500X0.375000X-0.062500X0.375000X-0.062500X-0.375000X0*%
%ADD43RoundRect,0.062500X0.375000X-0.062500X0.375000X0.062500X-0.375000X0.062500X-0.375000X-0.062500X0*%
%ADD44R,0.952500X0.558800*%
G04 APERTURE END LIST*
D10*
%TO.C,BAT1*%
X142798400Y-218321200D03*
%TD*%
D11*
%TO.C,R11*%
X129729950Y-148409300D03*
X129729950Y-145309300D03*
%TD*%
D12*
%TO.C,C8*%
X136232900Y-217940200D03*
X133107900Y-217940200D03*
%TD*%
D13*
%TO.C,D2*%
X184506800Y-193530800D03*
X182456800Y-193530800D03*
%TD*%
D14*
%TO.C,C7*%
X174040400Y-208961700D03*
X174040400Y-205836700D03*
%TD*%
D15*
%TO.C,R7*%
X182244000Y-190990800D03*
X185344000Y-190990800D03*
%TD*%
D12*
%TO.C,C1*%
X136137500Y-184634600D03*
X133012500Y-184634600D03*
%TD*%
D16*
%TO.C,R8*%
X188900000Y-201289000D03*
X185800000Y-201289000D03*
%TD*%
D17*
%TO.C,U3*%
X176139200Y-209456986D03*
X176639200Y-209456986D03*
X177139200Y-209456986D03*
X177639200Y-209456986D03*
X178139200Y-209456986D03*
X178139200Y-205156986D03*
X177639200Y-205156986D03*
X177139200Y-205156986D03*
X176639200Y-205156986D03*
X176139200Y-205156986D03*
%TD*%
D18*
%TO.C,U1*%
X136486000Y-172510600D03*
X135686000Y-172510600D03*
X134886000Y-172510600D03*
X134086000Y-172510600D03*
X133286000Y-172510600D03*
X132486000Y-172510600D03*
X131686000Y-172510600D03*
X130886000Y-172510600D03*
D19*
X129436000Y-173960600D03*
X129436000Y-174760600D03*
X129436000Y-175560600D03*
X129436000Y-176360600D03*
X129436000Y-177160600D03*
X129436000Y-177960600D03*
X129436000Y-178760600D03*
X129436000Y-179560600D03*
D18*
X130886000Y-181010600D03*
X131686000Y-181010600D03*
X132486000Y-181010600D03*
X133286000Y-181010600D03*
X134086000Y-181010600D03*
X134886000Y-181010600D03*
X135686000Y-181010600D03*
X136486000Y-181010600D03*
D19*
X137936000Y-179560600D03*
X137936000Y-178760600D03*
X137936000Y-177960600D03*
X137936000Y-177160600D03*
X137936000Y-176360600D03*
X137936000Y-175560600D03*
X137936000Y-174760600D03*
X137936000Y-173960600D03*
%TD*%
D12*
%TO.C,C2*%
X184315100Y-214104800D03*
X181190100Y-214104800D03*
%TD*%
D15*
%TO.C,R4*%
X159942800Y-190990800D03*
X163042800Y-190990800D03*
%TD*%
D20*
%TO.C,C9*%
X131622400Y-207868700D03*
X131622400Y-210993700D03*
%TD*%
D21*
%TO.C,C12*%
X163308500Y-209482000D03*
X166433500Y-209482000D03*
%TD*%
D15*
%TO.C,R19*%
X163321000Y-212022000D03*
X166421000Y-212022000D03*
%TD*%
D22*
%TO.C,J5*%
X126676000Y-202378000D03*
D23*
X126676000Y-204398000D03*
D24*
X126676000Y-205628000D03*
D25*
X126676000Y-203378000D03*
D26*
X126676000Y-201358000D03*
D27*
X126676000Y-200128000D03*
D28*
X126596000Y-198558000D03*
X122796000Y-198558000D03*
X126596000Y-207198000D03*
X122796000Y-207198000D03*
%TD*%
D29*
%TO.C,D1*%
X191922000Y-168112000D03*
X191922000Y-172112000D03*
%TD*%
D20*
%TO.C,C6*%
X122630800Y-162605900D03*
X122630800Y-165730900D03*
%TD*%
D30*
%TO.C,TP1*%
X141884000Y-187892000D03*
%TD*%
D31*
%TO.C,U2*%
X186842000Y-206499000D03*
X185572000Y-206499000D03*
X184302000Y-206499000D03*
X183032000Y-206499000D03*
X183032000Y-211449000D03*
X184302000Y-211449000D03*
X185572000Y-211449000D03*
X186842000Y-211449000D03*
%TD*%
D32*
%TO.C,R22*%
X153949000Y-181389000D03*
X153949000Y-184489000D03*
%TD*%
%TO.C,R16*%
X126542400Y-210167200D03*
X126542400Y-213267200D03*
%TD*%
D33*
%TO.C,C3*%
X133489346Y-169565854D03*
X135699054Y-167356146D03*
%TD*%
D32*
%TO.C,R23*%
X163687800Y-181516000D03*
X163687800Y-184616000D03*
%TD*%
D10*
%TO.C,TP3*%
X174954800Y-211869600D03*
%TD*%
D32*
%TO.C,R25*%
X183118800Y-181516000D03*
X183118800Y-184616000D03*
%TD*%
D10*
%TO.C,TP2*%
X169214400Y-203436800D03*
%TD*%
D34*
%TO.C,C13*%
X163452000Y-223579000D03*
X167052000Y-223579000D03*
%TD*%
D16*
%TO.C,R9*%
X190170000Y-203829000D03*
X187070000Y-203829000D03*
%TD*%
D15*
%TO.C,R3*%
X154964400Y-190990800D03*
X158064400Y-190990800D03*
%TD*%
D16*
%TO.C,R15*%
X134315400Y-213495200D03*
X131215400Y-213495200D03*
%TD*%
D15*
%TO.C,R14*%
X130402600Y-133205800D03*
X133502600Y-133205800D03*
%TD*%
D35*
%TO.C,D4*%
X134071900Y-197036000D03*
X137046900Y-197036000D03*
%TD*%
D15*
%TO.C,R6*%
X173608000Y-190990800D03*
X176708000Y-190990800D03*
%TD*%
D32*
%TO.C,R13*%
X177647200Y-199727800D03*
X177647200Y-202827800D03*
%TD*%
D11*
%TO.C,R21*%
X140639400Y-205266200D03*
X140639400Y-202166200D03*
%TD*%
D20*
%TO.C,C4*%
X129729950Y-150376800D03*
X129729950Y-153501800D03*
%TD*%
D36*
%TO.C,U5*%
X159297000Y-214942600D03*
X156997000Y-214942600D03*
D37*
X156997000Y-221242600D03*
D36*
X154697000Y-214942600D03*
%TD*%
D32*
%TO.C,R24*%
X173416000Y-181516000D03*
X173416000Y-184616000D03*
%TD*%
D38*
%TO.C,R1*%
X190245600Y-214868800D03*
X190245600Y-208768800D03*
%TD*%
D10*
%TO.C,BMS_Out1*%
X144805000Y-206053000D03*
%TD*%
D15*
%TO.C,R2*%
X149986000Y-190990800D03*
X153086000Y-190990800D03*
%TD*%
D30*
%TO.C,GND1*%
X124256400Y-218702200D03*
%TD*%
D14*
%TO.C,C11*%
X136575400Y-205913700D03*
X136575400Y-202788700D03*
%TD*%
D34*
%TO.C,C10*%
X155197000Y-208085000D03*
X158797000Y-208085000D03*
%TD*%
D15*
%TO.C,R5*%
X168578800Y-190990800D03*
X171678800Y-190990800D03*
%TD*%
D30*
%TO.C,5V1*%
X150647000Y-222156600D03*
%TD*%
D39*
%TO.C,D5*%
X162839000Y-219102000D03*
X162839000Y-215102000D03*
%TD*%
D40*
%TO.C,D3*%
X130773100Y-186723600D03*
X127798100Y-186723600D03*
%TD*%
D15*
%TO.C,R10*%
X127786400Y-183980400D03*
X130886400Y-183980400D03*
%TD*%
D14*
%TO.C,C5*%
X125297800Y-163571900D03*
X125297800Y-160446900D03*
%TD*%
D32*
%TO.C,R18*%
X128955400Y-210294200D03*
X128955400Y-213394200D03*
%TD*%
%TO.C,R12*%
X175056400Y-199727800D03*
X175056400Y-202827800D03*
%TD*%
D11*
%TO.C,R17*%
X134162400Y-205317000D03*
X134162400Y-202217000D03*
%TD*%
D15*
%TO.C,R20*%
X157098000Y-212276000D03*
X160198000Y-212276000D03*
%TD*%
D41*
%TO.C,U4*%
X135415400Y-209706200D03*
X136215400Y-209706200D03*
X135415400Y-208906200D03*
X136215400Y-208906200D03*
D42*
X135065400Y-210743700D03*
X135565400Y-210743700D03*
X136065400Y-210743700D03*
X136565400Y-210743700D03*
D43*
X137252900Y-210056200D03*
X137252900Y-209556200D03*
X137252900Y-209056200D03*
X137252900Y-208556200D03*
D42*
X136565400Y-207868700D03*
X136065400Y-207868700D03*
X135565400Y-207868700D03*
X135065400Y-207868700D03*
D43*
X134377900Y-208556200D03*
X134377900Y-209056200D03*
X134377900Y-209556200D03*
X134377900Y-210056200D03*
%TD*%
D44*
%TO.C,SW1*%
X135394300Y-142680000D03*
X129031600Y-142680000D03*
X135394300Y-138971600D03*
X129031600Y-138971600D03*
%TD*%
M02*
