%TF.GenerationSoftware,KiCad,Pcbnew,9.0.5*%
%TF.CreationDate,2025-10-29T10:13:22-04:00*%
%TF.ProjectId,oshe_dmm_project_v1,6f736865-5f64-46d6-9d5f-70726f6a6563,V1*%
%TF.SameCoordinates,Original*%
%TF.FileFunction,Paste,Top*%
%TF.FilePolarity,Positive*%
%FSLAX46Y46*%
G04 Gerber Fmt 4.6, Leading zero omitted, Abs format (unit mm)*
G04 Created by KiCad (PCBNEW 9.0.5) date 2025-10-29 10:13:22*
%MOMM*%
%LPD*%
G01*
G04 APERTURE LIST*
G04 Aperture macros list*
%AMRoundRect*
0 Rectangle with rounded corners*
0 $1 Rounding radius*
0 $2 $3 $4 $5 $6 $7 $8 $9 X,Y pos of 4 corners*
0 Add a 4 corners polygon primitive as box body*
4,1,4,$2,$3,$4,$5,$6,$7,$8,$9,$2,$3,0*
0 Add four circle primitives for the rounded corners*
1,1,$1+$1,$2,$3*
1,1,$1+$1,$4,$5*
1,1,$1+$1,$6,$7*
1,1,$1+$1,$8,$9*
0 Add four rect primitives between the rounded corners*
20,1,$1+$1,$2,$3,$4,$5,0*
20,1,$1+$1,$4,$5,$6,$7,0*
20,1,$1+$1,$6,$7,$8,$9,0*
20,1,$1+$1,$8,$9,$2,$3,0*%
G04 Aperture macros list end*
%ADD10R,3.800000X2.000000*%
%ADD11RoundRect,0.250000X0.625000X-0.400000X0.625000X0.400000X-0.625000X0.400000X-0.625000X-0.400000X0*%
%ADD12RoundRect,0.250000X0.412500X0.650000X-0.412500X0.650000X-0.412500X-0.650000X0.412500X-0.650000X0*%
%ADD13RoundRect,0.250000X0.325000X0.450000X-0.325000X0.450000X-0.325000X-0.450000X0.325000X-0.450000X0*%
%ADD14RoundRect,0.250000X-0.412500X-0.650000X0.412500X-0.650000X0.412500X0.650000X-0.412500X0.650000X0*%
%ADD15RoundRect,0.250000X-0.400000X-0.625000X0.400000X-0.625000X0.400000X0.625000X-0.400000X0.625000X0*%
%ADD16RoundRect,0.250000X-0.625000X0.400000X-0.625000X-0.400000X0.625000X-0.400000X0.625000X0.400000X0*%
%ADD17RoundRect,0.150000X0.150000X-0.512500X0.150000X0.512500X-0.150000X0.512500X-0.150000X-0.512500X0*%
%ADD18R,0.550000X1.600000*%
%ADD19R,1.600000X0.550000*%
%ADD20R,1.290000X1.910000*%
%ADD21RoundRect,0.250000X-0.650000X1.000000X-0.650000X-1.000000X0.650000X-1.000000X0.650000X1.000000X0*%
%ADD22RoundRect,0.250000X-0.650000X0.412500X-0.650000X-0.412500X0.650000X-0.412500X0.650000X0.412500X0*%
%ADD23RoundRect,0.250000X1.000000X0.650000X-1.000000X0.650000X-1.000000X-0.650000X1.000000X-0.650000X0*%
%ADD24RoundRect,0.250000X0.167938X-0.751301X0.751301X-0.167938X-0.167938X0.751301X-0.751301X0.167938X0*%
%ADD25RoundRect,0.250000X-1.050000X-0.550000X1.050000X-0.550000X1.050000X0.550000X-1.050000X0.550000X0*%
%ADD26RoundRect,0.250000X0.400000X0.625000X-0.400000X0.625000X-0.400000X-0.625000X0.400000X-0.625000X0*%
%ADD27RoundRect,0.250000X0.550000X-1.050000X0.550000X1.050000X-0.550000X1.050000X-0.550000X-1.050000X0*%
%ADD28RoundRect,0.250000X0.650000X-0.412500X0.650000X0.412500X-0.650000X0.412500X-0.650000X-0.412500X0*%
%ADD29RoundRect,0.250000X0.650000X-1.000000X0.650000X1.000000X-0.650000X1.000000X-0.650000X-1.000000X0*%
%ADD30RoundRect,0.375000X-0.375000X0.625000X-0.375000X-0.625000X0.375000X-0.625000X0.375000X0.625000X0*%
%ADD31RoundRect,0.500000X-1.400000X0.500000X-1.400000X-0.500000X1.400000X-0.500000X1.400000X0.500000X0*%
%ADD32RoundRect,0.249999X1.425001X-0.450001X1.425001X0.450001X-1.425001X0.450001X-1.425001X-0.450001X0*%
%ADD33R,2.000000X3.800000*%
%ADD34RoundRect,0.250000X1.050000X0.550000X-1.050000X0.550000X-1.050000X-0.550000X1.050000X-0.550000X0*%
%ADD35RoundRect,0.250001X0.462499X0.624999X-0.462499X0.624999X-0.462499X-0.624999X0.462499X-0.624999X0*%
%ADD36R,0.952500X0.558800*%
G04 APERTURE END LIST*
D10*
%TO.C,BAT1*%
X142798400Y-218321200D03*
%TD*%
D11*
%TO.C,R11*%
X130265000Y-199975500D03*
X130265000Y-196875500D03*
%TD*%
D12*
%TO.C,C8*%
X136232900Y-217940200D03*
X133107900Y-217940200D03*
%TD*%
D11*
%TO.C,R39*%
X161270000Y-179488000D03*
X161270000Y-176388000D03*
%TD*%
D13*
%TO.C,D2*%
X184506800Y-193530800D03*
X182456800Y-193530800D03*
%TD*%
D14*
%TO.C,C7*%
X164090000Y-202378000D03*
X167215000Y-202378000D03*
%TD*%
D15*
%TO.C,R7*%
X182244000Y-190990800D03*
X185344000Y-190990800D03*
%TD*%
D16*
%TO.C,R30*%
X145820000Y-133918000D03*
X145820000Y-137018000D03*
%TD*%
%TO.C,R26*%
X170650000Y-149808000D03*
X170650000Y-152908000D03*
%TD*%
D12*
%TO.C,C1*%
X136137500Y-184634600D03*
X133012500Y-184634600D03*
%TD*%
D17*
%TO.C,U7*%
X169750000Y-143908000D03*
X170700000Y-143908000D03*
X171650000Y-143908000D03*
X171650000Y-141633000D03*
X169750000Y-141633000D03*
%TD*%
D18*
%TO.C,U1*%
X136486000Y-172510600D03*
X135686000Y-172510600D03*
X134886000Y-172510600D03*
X134086000Y-172510600D03*
X133286000Y-172510600D03*
X132486000Y-172510600D03*
X131686000Y-172510600D03*
X130886000Y-172510600D03*
D19*
X129436000Y-173960600D03*
X129436000Y-174760600D03*
X129436000Y-175560600D03*
X129436000Y-176360600D03*
X129436000Y-177160600D03*
X129436000Y-177960600D03*
X129436000Y-178760600D03*
X129436000Y-179560600D03*
D18*
X130886000Y-181010600D03*
X131686000Y-181010600D03*
X132486000Y-181010600D03*
X133286000Y-181010600D03*
X134086000Y-181010600D03*
X134886000Y-181010600D03*
X135686000Y-181010600D03*
X136486000Y-181010600D03*
D19*
X137936000Y-179560600D03*
X137936000Y-178760600D03*
X137936000Y-177960600D03*
X137936000Y-177160600D03*
X137936000Y-176360600D03*
X137936000Y-175560600D03*
X137936000Y-174760600D03*
X137936000Y-173960600D03*
%TD*%
D15*
%TO.C,R4*%
X159942800Y-190990800D03*
X163042800Y-190990800D03*
%TD*%
D11*
%TO.C,R18*%
X143260000Y-152208000D03*
X143260000Y-149108000D03*
%TD*%
D14*
%TO.C,C12*%
X163308500Y-209482000D03*
X166433500Y-209482000D03*
%TD*%
D15*
%TO.C,R19*%
X163321000Y-212022000D03*
X166421000Y-212022000D03*
%TD*%
D20*
%TO.C,C15*%
X165150000Y-139408000D03*
X162230000Y-139408000D03*
%TD*%
D21*
%TO.C,D1*%
X191922000Y-168112000D03*
X191922000Y-172112000D03*
%TD*%
D11*
%TO.C,R16*%
X138190000Y-152248000D03*
X138190000Y-149148000D03*
%TD*%
D22*
%TO.C,C6*%
X122646730Y-157586769D03*
X122646730Y-160711769D03*
%TD*%
D16*
%TO.C,R31*%
X135620000Y-134278000D03*
X135620000Y-137378000D03*
%TD*%
D23*
%TO.C,D7*%
X185830000Y-164758000D03*
X181830000Y-164758000D03*
%TD*%
D16*
%TO.C,R22*%
X153949000Y-181389000D03*
X153949000Y-184489000D03*
%TD*%
D24*
%TO.C,C3*%
X133489346Y-169565854D03*
X135699054Y-167356146D03*
%TD*%
D16*
%TO.C,R23*%
X163687800Y-181516000D03*
X163687800Y-184616000D03*
%TD*%
%TO.C,R32*%
X143230000Y-134208000D03*
X143230000Y-137308000D03*
%TD*%
%TO.C,R25*%
X183118800Y-181516000D03*
X183118800Y-184616000D03*
%TD*%
D11*
%TO.C,R37*%
X165740000Y-179478000D03*
X165740000Y-176378000D03*
%TD*%
%TO.C,R38*%
X175920000Y-179358000D03*
X175920000Y-176258000D03*
%TD*%
D25*
%TO.C,C13*%
X163452000Y-223579000D03*
X167052000Y-223579000D03*
%TD*%
D15*
%TO.C,R3*%
X154964400Y-190990800D03*
X158064400Y-190990800D03*
%TD*%
D16*
%TO.C,R33*%
X138210000Y-134258000D03*
X138210000Y-137358000D03*
%TD*%
D26*
%TO.C,R15*%
X134315400Y-213495200D03*
X131215400Y-213495200D03*
%TD*%
D15*
%TO.C,R14*%
X147240000Y-111608000D03*
X150340000Y-111608000D03*
%TD*%
D27*
%TO.C,C14*%
X177650000Y-145508000D03*
X177650000Y-141908000D03*
%TD*%
D28*
%TO.C,C2*%
X166650000Y-155533000D03*
X166650000Y-152408000D03*
%TD*%
D16*
%TO.C,R8*%
X147720000Y-178278000D03*
X147720000Y-181378000D03*
%TD*%
D29*
%TO.C,D4*%
X201150000Y-142198000D03*
X201150000Y-138198000D03*
%TD*%
D15*
%TO.C,R6*%
X173608000Y-190990800D03*
X176708000Y-190990800D03*
%TD*%
%TO.C,R13*%
X136990000Y-201378000D03*
X140090000Y-201378000D03*
%TD*%
D27*
%TO.C,C18*%
X177650000Y-153008000D03*
X177650000Y-149408000D03*
%TD*%
D22*
%TO.C,C4*%
X130265000Y-201943000D03*
X130265000Y-205068000D03*
%TD*%
D30*
%TO.C,U5*%
X159297000Y-214942600D03*
X156997000Y-214942600D03*
D31*
X156997000Y-221242600D03*
D30*
X154697000Y-214942600D03*
%TD*%
D16*
%TO.C,R24*%
X173416000Y-181516000D03*
X173416000Y-184616000D03*
%TD*%
D32*
%TO.C,R1*%
X194590000Y-209378000D03*
X194590000Y-203278000D03*
%TD*%
D11*
%TO.C,R36*%
X170130000Y-179488000D03*
X170130000Y-176388000D03*
%TD*%
%TO.C,R21*%
X135620000Y-152198000D03*
X135620000Y-149098000D03*
%TD*%
D15*
%TO.C,R2*%
X149986000Y-190990800D03*
X153086000Y-190990800D03*
%TD*%
D33*
%TO.C,GND1*%
X124256400Y-218702200D03*
%TD*%
D34*
%TO.C,C11*%
X170410000Y-135988000D03*
X166810000Y-135988000D03*
%TD*%
D25*
%TO.C,C10*%
X155197000Y-208085000D03*
X158797000Y-208085000D03*
%TD*%
D15*
%TO.C,R5*%
X168578800Y-190990800D03*
X171678800Y-190990800D03*
%TD*%
D33*
%TO.C,5V1*%
X150647000Y-222156600D03*
%TD*%
D29*
%TO.C,D5*%
X162839000Y-219102000D03*
X162839000Y-215102000D03*
%TD*%
D35*
%TO.C,D3*%
X130773100Y-186723600D03*
X127798100Y-186723600D03*
%TD*%
D15*
%TO.C,R10*%
X127786400Y-183980400D03*
X130886400Y-183980400D03*
%TD*%
D14*
%TO.C,C17*%
X170525000Y-147408000D03*
X173650000Y-147408000D03*
%TD*%
D28*
%TO.C,C5*%
X125313730Y-158552769D03*
X125313730Y-155427769D03*
%TD*%
D15*
%TO.C,R12*%
X136990000Y-198878000D03*
X140090000Y-198878000D03*
%TD*%
D11*
%TO.C,R17*%
X140720000Y-152238000D03*
X140720000Y-149138000D03*
%TD*%
D15*
%TO.C,R20*%
X157098000Y-212276000D03*
X160198000Y-212276000D03*
%TD*%
D11*
%TO.C,R34*%
X157470000Y-179478000D03*
X157470000Y-176378000D03*
%TD*%
%TO.C,R9*%
X151160000Y-179718000D03*
X151160000Y-176618000D03*
%TD*%
D36*
%TO.C,SW1*%
X135929350Y-194246200D03*
X129566650Y-194246200D03*
X135929350Y-190537800D03*
X129566650Y-190537800D03*
%TD*%
D22*
%TO.C,C16*%
X159650000Y-136908000D03*
X159650000Y-140033000D03*
%TD*%
M02*
