%TF.GenerationSoftware,KiCad,Pcbnew,9.0.5*%
%TF.CreationDate,2025-10-29T10:13:22-04:00*%
%TF.ProjectId,oshe_dmm_project_v1,6f736865-5f64-46d6-9d5f-70726f6a6563,V1*%
%TF.SameCoordinates,Original*%
%TF.FileFunction,Copper,L1,Top*%
%TF.FilePolarity,Positive*%
%FSLAX46Y46*%
G04 Gerber Fmt 4.6, Leading zero omitted, Abs format (unit mm)*
G04 Created by KiCad (PCBNEW 9.0.5) date 2025-10-29 10:13:22*
%MOMM*%
%LPD*%
G01*
G04 APERTURE LIST*
G04 Aperture macros list*
%AMRoundRect*
0 Rectangle with rounded corners*
0 $1 Rounding radius*
0 $2 $3 $4 $5 $6 $7 $8 $9 X,Y pos of 4 corners*
0 Add a 4 corners polygon primitive as box body*
4,1,4,$2,$3,$4,$5,$6,$7,$8,$9,$2,$3,0*
0 Add four circle primitives for the rounded corners*
1,1,$1+$1,$2,$3*
1,1,$1+$1,$4,$5*
1,1,$1+$1,$6,$7*
1,1,$1+$1,$8,$9*
0 Add four rect primitives between the rounded corners*
20,1,$1+$1,$2,$3,$4,$5,0*
20,1,$1+$1,$4,$5,$6,$7,0*
20,1,$1+$1,$6,$7,$8,$9,0*
20,1,$1+$1,$8,$9,$2,$3,0*%
G04 Aperture macros list end*
%TA.AperFunction,NonConductor*%
%ADD10C,2.000000*%
%TD*%
%TA.AperFunction,Conductor*%
%ADD11C,2.000000*%
%TD*%
%TA.AperFunction,SMDPad,CuDef*%
%ADD12R,3.800000X2.000000*%
%TD*%
%TA.AperFunction,SMDPad,CuDef*%
%ADD13RoundRect,0.250000X0.625000X-0.400000X0.625000X0.400000X-0.625000X0.400000X-0.625000X-0.400000X0*%
%TD*%
%TA.AperFunction,ComponentPad*%
%ADD14C,1.440000*%
%TD*%
%TA.AperFunction,ComponentPad*%
%ADD15C,3.000000*%
%TD*%
%TA.AperFunction,ComponentPad*%
%ADD16R,1.800000X2.600000*%
%TD*%
%TA.AperFunction,ComponentPad*%
%ADD17O,1.800000X2.600000*%
%TD*%
%TA.AperFunction,SMDPad,CuDef*%
%ADD18RoundRect,0.250000X0.412500X0.650000X-0.412500X0.650000X-0.412500X-0.650000X0.412500X-0.650000X0*%
%TD*%
%TA.AperFunction,SMDPad,CuDef*%
%ADD19RoundRect,0.250000X0.325000X0.450000X-0.325000X0.450000X-0.325000X-0.450000X0.325000X-0.450000X0*%
%TD*%
%TA.AperFunction,SMDPad,CuDef*%
%ADD20RoundRect,0.250000X-0.412500X-0.650000X0.412500X-0.650000X0.412500X0.650000X-0.412500X0.650000X0*%
%TD*%
%TA.AperFunction,SMDPad,CuDef*%
%ADD21RoundRect,0.250000X-0.400000X-0.625000X0.400000X-0.625000X0.400000X0.625000X-0.400000X0.625000X0*%
%TD*%
%TA.AperFunction,SMDPad,CuDef*%
%ADD22RoundRect,0.250000X-0.625000X0.400000X-0.625000X-0.400000X0.625000X-0.400000X0.625000X0.400000X0*%
%TD*%
%TA.AperFunction,ComponentPad*%
%ADD23C,1.980000*%
%TD*%
%TA.AperFunction,SMDPad,CuDef*%
%ADD24RoundRect,0.150000X0.150000X-0.512500X0.150000X0.512500X-0.150000X0.512500X-0.150000X-0.512500X0*%
%TD*%
%TA.AperFunction,ComponentPad*%
%ADD25R,1.778000X1.778000*%
%TD*%
%TA.AperFunction,ComponentPad*%
%ADD26C,1.778000*%
%TD*%
%TA.AperFunction,ComponentPad*%
%ADD27O,3.500000X1.750000*%
%TD*%
%TA.AperFunction,ComponentPad*%
%ADD28O,1.750000X3.500000*%
%TD*%
%TA.AperFunction,SMDPad,CuDef*%
%ADD29R,0.550000X1.600000*%
%TD*%
%TA.AperFunction,SMDPad,CuDef*%
%ADD30R,1.600000X0.550000*%
%TD*%
%TA.AperFunction,ComponentPad*%
%ADD31C,4.000000*%
%TD*%
%TA.AperFunction,ComponentPad*%
%ADD32RoundRect,0.250000X-0.550000X0.550000X-0.550000X-0.550000X0.550000X-0.550000X0.550000X0.550000X0*%
%TD*%
%TA.AperFunction,ComponentPad*%
%ADD33C,1.600000*%
%TD*%
%TA.AperFunction,SMDPad,CuDef*%
%ADD34R,1.290000X1.910000*%
%TD*%
%TA.AperFunction,ComponentPad*%
%ADD35R,1.700000X1.700000*%
%TD*%
%TA.AperFunction,ComponentPad*%
%ADD36O,1.700000X1.700000*%
%TD*%
%TA.AperFunction,SMDPad,CuDef*%
%ADD37RoundRect,0.250000X-0.650000X1.000000X-0.650000X-1.000000X0.650000X-1.000000X0.650000X1.000000X0*%
%TD*%
%TA.AperFunction,SMDPad,CuDef*%
%ADD38RoundRect,0.250000X-0.650000X0.412500X-0.650000X-0.412500X0.650000X-0.412500X0.650000X0.412500X0*%
%TD*%
%TA.AperFunction,SMDPad,CuDef*%
%ADD39RoundRect,0.250000X1.000000X0.650000X-1.000000X0.650000X-1.000000X-0.650000X1.000000X-0.650000X0*%
%TD*%
%TA.AperFunction,ComponentPad*%
%ADD40R,1.397000X1.397000*%
%TD*%
%TA.AperFunction,ComponentPad*%
%ADD41C,1.397000*%
%TD*%
%TA.AperFunction,SMDPad,CuDef*%
%ADD42RoundRect,0.250000X0.167938X-0.751301X0.751301X-0.167938X-0.167938X0.751301X-0.751301X0.167938X0*%
%TD*%
%TA.AperFunction,ComponentPad*%
%ADD43C,6.918200*%
%TD*%
%TA.AperFunction,SMDPad,CuDef*%
%ADD44RoundRect,0.250000X-1.050000X-0.550000X1.050000X-0.550000X1.050000X0.550000X-1.050000X0.550000X0*%
%TD*%
%TA.AperFunction,ComponentPad*%
%ADD45C,1.700000*%
%TD*%
%TA.AperFunction,SMDPad,CuDef*%
%ADD46RoundRect,0.250000X0.400000X0.625000X-0.400000X0.625000X-0.400000X-0.625000X0.400000X-0.625000X0*%
%TD*%
%TA.AperFunction,SMDPad,CuDef*%
%ADD47RoundRect,0.250000X0.550000X-1.050000X0.550000X1.050000X-0.550000X1.050000X-0.550000X-1.050000X0*%
%TD*%
%TA.AperFunction,SMDPad,CuDef*%
%ADD48RoundRect,0.250000X0.650000X-0.412500X0.650000X0.412500X-0.650000X0.412500X-0.650000X-0.412500X0*%
%TD*%
%TA.AperFunction,ComponentPad*%
%ADD49C,1.500000*%
%TD*%
%TA.AperFunction,SMDPad,CuDef*%
%ADD50RoundRect,0.250000X0.650000X-1.000000X0.650000X1.000000X-0.650000X1.000000X-0.650000X-1.000000X0*%
%TD*%
%TA.AperFunction,SMDPad,CuDef*%
%ADD51R,1.500000X1.000000*%
%TD*%
%TA.AperFunction,SMDPad,CuDef*%
%ADD52RoundRect,0.375000X-0.375000X0.625000X-0.375000X-0.625000X0.375000X-0.625000X0.375000X0.625000X0*%
%TD*%
%TA.AperFunction,SMDPad,CuDef*%
%ADD53RoundRect,0.500000X-1.400000X0.500000X-1.400000X-0.500000X1.400000X-0.500000X1.400000X0.500000X0*%
%TD*%
%TA.AperFunction,SMDPad,CuDef*%
%ADD54RoundRect,0.249999X1.425001X-0.450001X1.425001X0.450001X-1.425001X0.450001X-1.425001X-0.450001X0*%
%TD*%
%TA.AperFunction,SMDPad,CuDef*%
%ADD55R,2.000000X3.800000*%
%TD*%
%TA.AperFunction,SMDPad,CuDef*%
%ADD56RoundRect,0.250000X1.050000X0.550000X-1.050000X0.550000X-1.050000X-0.550000X1.050000X-0.550000X0*%
%TD*%
%TA.AperFunction,SMDPad,CuDef*%
%ADD57RoundRect,0.250001X0.462499X0.624999X-0.462499X0.624999X-0.462499X-0.624999X0.462499X-0.624999X0*%
%TD*%
%TA.AperFunction,SMDPad,CuDef*%
%ADD58R,1.000000X1.500000*%
%TD*%
%TA.AperFunction,ComponentPad*%
%ADD59R,1.210000X1.210000*%
%TD*%
%TA.AperFunction,ComponentPad*%
%ADD60C,1.210000*%
%TD*%
%TA.AperFunction,SMDPad,CuDef*%
%ADD61R,0.952500X0.558800*%
%TD*%
%TA.AperFunction,ViaPad*%
%ADD62C,1.000000*%
%TD*%
%TA.AperFunction,ViaPad*%
%ADD63C,0.600000*%
%TD*%
%TA.AperFunction,ViaPad*%
%ADD64C,1.500000*%
%TD*%
%TA.AperFunction,Conductor*%
%ADD65C,0.200000*%
%TD*%
%TA.AperFunction,Conductor*%
%ADD66C,0.300000*%
%TD*%
%TA.AperFunction,Conductor*%
%ADD67C,0.500000*%
%TD*%
%TA.AperFunction,Conductor*%
%ADD68C,1.000000*%
%TD*%
G04 APERTURE END LIST*
D10*
X133990000Y-125598000D02*
X138990000Y-125598000D01*
D11*
%TO.N,20V_Rang*%
X189990000Y-125598000D02*
X194990000Y-125598000D01*
%TO.N,Net-(J20-Pin_2)*%
X173990000Y-122598000D02*
X178990000Y-122598000D01*
%TO.N,Net-(J5-Pin_2)*%
X133990000Y-122598000D02*
X138990000Y-122598000D01*
D10*
X149990000Y-125598000D02*
X154990000Y-125598000D01*
D11*
%TO.N,2V_Rang*%
X197990000Y-125598000D02*
X202990000Y-125598000D01*
%TO.N,Net-(J21-Pin_2)*%
X141990000Y-122598000D02*
X146990000Y-122598000D01*
D10*
X141990000Y-125598000D02*
X146990000Y-125598000D01*
D11*
%TO.N,Net-(J12-Pin_2)*%
X181990000Y-122598000D02*
X186990000Y-122598000D01*
D10*
X125990000Y-125598000D02*
X130990000Y-125598000D01*
D11*
%TO.N,Net-(J14-Pin_2)*%
X125990000Y-122598000D02*
X130990000Y-122598000D01*
%TO.N,+5V*%
X202990000Y-119598000D02*
X125990000Y-119598000D01*
%TO.N,Net-(J18-Pin_2)*%
X157990000Y-122598000D02*
X162990000Y-122598000D01*
%TO.N,V_ADC_Input*%
X202990000Y-128598000D02*
X141990000Y-128598000D01*
%TO.N,Net-(J13-Pin_2)*%
X149990000Y-122598000D02*
X154990000Y-122598000D01*
%TO.N,200V_Rang*%
X157990000Y-125598000D02*
X162990000Y-125598000D01*
X181990000Y-125598000D02*
X186990000Y-125598000D01*
%TO.N,Net-(J16-Pin_2)*%
X165990000Y-122598000D02*
X170990000Y-122598000D01*
%TO.N,20V_Rang*%
X165990000Y-125598000D02*
X170990000Y-125598000D01*
%TO.N,2V_Rang*%
X173990000Y-125598000D02*
X178990000Y-125598000D01*
%TO.N,Net-(J8-Pin_2)*%
X197990000Y-122598000D02*
X202990000Y-122598000D01*
%TO.N,Net-(J10-Pin_2)*%
X189990000Y-122598000D02*
X194990000Y-122598000D01*
%TD*%
D12*
%TO.P,BAT1,1,1*%
%TO.N,Net-(JP1-C)*%
X142798400Y-218321200D03*
%TD*%
D13*
%TO.P,R11,1*%
%TO.N,Net-(U1-~{RESET}{slash}PC6)*%
X130265000Y-199975500D03*
%TO.P,R11,2*%
%TO.N,+5V*%
X130265000Y-196875500D03*
%TD*%
D14*
%TO.P,RV1,1,1*%
%TO.N,+5V*%
X138130000Y-113378000D03*
%TO.P,RV1,2,2*%
%TO.N,Net-(DS1-VO)*%
X135590000Y-113378000D03*
%TO.P,RV1,3,3*%
%TO.N,GND*%
X133050000Y-113378000D03*
%TD*%
D15*
%TO.P,DS1,*%
%TO.N,*%
X126990900Y-74174500D03*
X126990900Y-105175200D03*
X201989480Y-105175200D03*
X201990000Y-74174500D03*
D16*
%TO.P,DS1,1,VSS*%
%TO.N,GND*%
X132490000Y-74174500D03*
D17*
%TO.P,DS1,2,VDD*%
%TO.N,+5V*%
X135030000Y-74174500D03*
%TO.P,DS1,3,VO*%
%TO.N,Net-(DS1-VO)*%
X137570000Y-74174500D03*
%TO.P,DS1,4,RS*%
%TO.N,MISO{slash}D12*%
X140110000Y-74174500D03*
%TO.P,DS1,5,R/W*%
%TO.N,GND*%
X142650000Y-74174500D03*
%TO.P,DS1,6,E*%
%TO.N,MOSI{slash}D11*%
X145190000Y-74174500D03*
%TO.P,DS1,7,D0*%
%TO.N,unconnected-(DS1-D0-Pad7)*%
X147730000Y-74174500D03*
%TO.P,DS1,8,D1*%
%TO.N,unconnected-(DS1-D1-Pad8)*%
X150270000Y-74174500D03*
%TO.P,DS1,9,D2*%
%TO.N,unconnected-(DS1-D2-Pad9)*%
X152810000Y-74174500D03*
%TO.P,DS1,10,D3*%
%TO.N,unconnected-(DS1-D3-Pad10)*%
X155350000Y-74174500D03*
%TO.P,DS1,11,D4*%
%TO.N,D5*%
X157890000Y-74174500D03*
%TO.P,DS1,12,D5*%
%TO.N,D4*%
X160430000Y-74174500D03*
%TO.P,DS1,13,D6*%
%TO.N,D3*%
X162970000Y-74174500D03*
%TO.P,DS1,14,D7*%
%TO.N,D2*%
X165510000Y-74174500D03*
%TO.P,DS1,15,LED(+)*%
%TO.N,Net-(DS1-LED(+))*%
X168050000Y-74174500D03*
%TO.P,DS1,16,LED(-)*%
%TO.N,GND*%
X170590000Y-74174500D03*
%TD*%
D18*
%TO.P,C8,1*%
%TO.N,Net-(JP1-C)*%
X136232900Y-217940200D03*
%TO.P,C8,2*%
%TO.N,GND*%
X133107900Y-217940200D03*
%TD*%
D13*
%TO.P,R39,1*%
%TO.N,A3*%
X161270000Y-179488000D03*
%TO.P,R39,2*%
%TO.N,Net-(J21-Pin_2)*%
X161270000Y-176388000D03*
%TD*%
D19*
%TO.P,D2,1,A1*%
%TO.N,GND*%
X184506800Y-193530800D03*
%TO.P,D2,2,A2*%
%TO.N,V_ADC_Input*%
X182456800Y-193530800D03*
%TD*%
D20*
%TO.P,C7,1*%
%TO.N,GND*%
X164090000Y-202378000D03*
%TO.P,C7,2*%
%TO.N,+5V*%
X167215000Y-202378000D03*
%TD*%
D21*
%TO.P,R7,1*%
%TO.N,200V_Rang*%
X182244000Y-190990800D03*
%TO.P,R7,2*%
%TO.N,GND*%
X185344000Y-190990800D03*
%TD*%
D22*
%TO.P,R30,1*%
%TO.N,+5V*%
X145820000Y-133918000D03*
%TO.P,R30,2*%
%TO.N,Net-(U4-X4)*%
X145820000Y-137018000D03*
%TD*%
%TO.P,R26,1*%
%TO.N,Net-(U2-Vin)*%
X170650000Y-149808000D03*
%TO.P,R26,2*%
%TO.N,GND*%
X170650000Y-152908000D03*
%TD*%
D18*
%TO.P,C1,1*%
%TO.N,GND*%
X136137500Y-184634600D03*
%TO.P,C1,2*%
%TO.N,Net-(U1-AREF)*%
X133012500Y-184634600D03*
%TD*%
D23*
%TO.P,F2,1*%
%TO.N,Current_Input*%
X187590000Y-221628000D03*
%TO.P,F2,2*%
%TO.N,Net-(U3-AIN2)*%
X187590000Y-199128000D03*
%TD*%
D24*
%TO.P,U7,1,OUT*%
%TO.N,Net-(U2--Vs)*%
X169750000Y-143908000D03*
%TO.P,U7,2,IN*%
%TO.N,+5V*%
X170700000Y-143908000D03*
%TO.P,U7,3,C_{FLY-}*%
%TO.N,Net-(U7-C_{FLY-})*%
X171650000Y-143908000D03*
%TO.P,U7,4,GND*%
%TO.N,GND*%
X171650000Y-141633000D03*
%TO.P,U7,5,C_{FLY+}*%
%TO.N,Net-(U7-C_{FLY+})*%
X169750000Y-141633000D03*
%TD*%
D25*
%TO.P,U3,1,VDD*%
%TO.N,+5V*%
X167130000Y-198878000D03*
D26*
%TO.P,U3,2,GND*%
%TO.N,GND*%
X164590000Y-198878000D03*
%TO.P,U3,3,SCL*%
%TO.N,SCL*%
X162050000Y-198878000D03*
%TO.P,U3,4,SDA*%
%TO.N,SDA*%
X159510000Y-198878000D03*
%TO.P,U3,5,ADDR*%
%TO.N,GND*%
X156970000Y-198878000D03*
%TO.P,U3,6,ALERT/RDY*%
%TO.N,unconnected-(U3-ALERT{slash}RDY-Pad6)*%
X154430000Y-198878000D03*
%TO.P,U3,7,AIN0*%
%TO.N,V_ADC_Input*%
X151890000Y-198878000D03*
%TO.P,U3,8,AIN1*%
%TO.N,GND*%
X149350000Y-198878000D03*
%TO.P,U3,9,AIN2*%
%TO.N,Net-(U3-AIN2)*%
X146810000Y-198878000D03*
%TO.P,U3,10,AIN3*%
%TO.N,GND*%
X144270000Y-198878000D03*
%TD*%
D27*
%TO.P,J22,1*%
%TO.N,Net-(U8-AIN2)*%
X175590000Y-224578000D03*
%TO.P,J22,2*%
%TO.N,Net-(U8-AIN3)*%
X175590000Y-210878000D03*
D28*
%TO.P,J22,3*%
%TO.N,unconnected-(J22-Pad3)*%
X180790000Y-213378000D03*
%TD*%
D29*
%TO.P,U1,1,PD3*%
%TO.N,D3*%
X136486000Y-172510600D03*
%TO.P,U1,2,PD4*%
%TO.N,D4*%
X135686000Y-172510600D03*
%TO.P,U1,3,GND*%
%TO.N,GND*%
X134886000Y-172510600D03*
%TO.P,U1,4,VCC*%
%TO.N,+5V*%
X134086000Y-172510600D03*
%TO.P,U1,5,GND*%
%TO.N,GND*%
X133286000Y-172510600D03*
%TO.P,U1,6,VCC*%
%TO.N,+5V*%
X132486000Y-172510600D03*
%TO.P,U1,7,XTAL1/PB6*%
%TO.N,Net-(U1-XTAL1{slash}PB6)*%
X131686000Y-172510600D03*
%TO.P,U1,8,XTAL2/PB7*%
%TO.N,Net-(U1-XTAL2{slash}PB7)*%
X130886000Y-172510600D03*
D30*
%TO.P,U1,9,PD5*%
%TO.N,D5*%
X129436000Y-173960600D03*
%TO.P,U1,10,PD6*%
%TO.N,D6*%
X129436000Y-174760600D03*
%TO.P,U1,11,PD7*%
%TO.N,D7*%
X129436000Y-175560600D03*
%TO.P,U1,12,PB0*%
%TO.N,D8*%
X129436000Y-176360600D03*
%TO.P,U1,13,PB1*%
%TO.N,D9*%
X129436000Y-177160600D03*
%TO.P,U1,14,PB2*%
%TO.N,D10*%
X129436000Y-177960600D03*
%TO.P,U1,15,PB3*%
%TO.N,MOSI{slash}D11*%
X129436000Y-178760600D03*
%TO.P,U1,16,PB4*%
%TO.N,MISO{slash}D12*%
X129436000Y-179560600D03*
D29*
%TO.P,U1,17,PB5*%
%TO.N,SCK{slash}D13*%
X130886000Y-181010600D03*
%TO.P,U1,18,AVCC*%
%TO.N,+5V*%
X131686000Y-181010600D03*
%TO.P,U1,19,ADC6*%
%TO.N,A6*%
X132486000Y-181010600D03*
%TO.P,U1,20,AREF*%
%TO.N,Net-(U1-AREF)*%
X133286000Y-181010600D03*
%TO.P,U1,21,GND*%
%TO.N,GND*%
X134086000Y-181010600D03*
%TO.P,U1,22,ADC7*%
%TO.N,A7*%
X134886000Y-181010600D03*
%TO.P,U1,23,PC0*%
%TO.N,A0*%
X135686000Y-181010600D03*
%TO.P,U1,24,PC1*%
%TO.N,A1*%
X136486000Y-181010600D03*
D30*
%TO.P,U1,25,PC2*%
%TO.N,A2*%
X137936000Y-179560600D03*
%TO.P,U1,26,PC3*%
%TO.N,A3*%
X137936000Y-178760600D03*
%TO.P,U1,27,PC4*%
%TO.N,SDA*%
X137936000Y-177960600D03*
%TO.P,U1,28,PC5*%
%TO.N,SCL*%
X137936000Y-177160600D03*
%TO.P,U1,29,~{RESET}/PC6*%
%TO.N,Net-(U1-~{RESET}{slash}PC6)*%
X137936000Y-176360600D03*
%TO.P,U1,30,PD0*%
%TO.N,RXD*%
X137936000Y-175560600D03*
%TO.P,U1,31,PD1*%
%TO.N,TXD*%
X137936000Y-174760600D03*
%TO.P,U1,32,PD2*%
%TO.N,D2*%
X137936000Y-173960600D03*
%TD*%
D31*
%TO.P,BAT-1,1,1*%
%TO.N,GND*%
X128447400Y-222766200D03*
%TD*%
D32*
%TO.P,C9,1*%
%TO.N,+5V*%
X124030000Y-134838000D03*
D33*
%TO.P,C9,2*%
%TO.N,GND*%
X124030000Y-137338000D03*
%TD*%
D21*
%TO.P,R4,1*%
%TO.N,Net-(R3-Pad2)*%
X159942800Y-190990800D03*
%TO.P,R4,2*%
%TO.N,20V_Rang*%
X163042800Y-190990800D03*
%TD*%
D13*
%TO.P,R18,1*%
%TO.N,+5V*%
X143260000Y-152208000D03*
%TO.P,R18,2*%
%TO.N,Net-(U4-X2)*%
X143260000Y-149108000D03*
%TD*%
D20*
%TO.P,C12,1*%
%TO.N,Net-(D5-A)*%
X163308500Y-209482000D03*
%TO.P,C12,2*%
%TO.N,GND*%
X166433500Y-209482000D03*
%TD*%
D21*
%TO.P,R19,1*%
%TO.N,Net-(D5-A)*%
X163321000Y-212022000D03*
%TO.P,R19,2*%
%TO.N,GND*%
X166421000Y-212022000D03*
%TD*%
D34*
%TO.P,C15,1*%
%TO.N,Net-(U2--Vs)*%
X165150000Y-139408000D03*
%TO.P,C15,2*%
%TO.N,Net-(U2-Cav)*%
X162230000Y-139408000D03*
%TD*%
D31*
%TO.P,BAT+1,1,1*%
%TO.N,Net-(JP1-C)*%
X141909400Y-222766200D03*
%TD*%
D35*
%TO.P,J1,1,Pin_1*%
%TO.N,DTR*%
X126144000Y-205981000D03*
D36*
%TO.P,J1,2,Pin_2*%
%TO.N,TXD*%
X126144000Y-203441000D03*
%TO.P,J1,3,Pin_3*%
%TO.N,RXD*%
X126144000Y-200901000D03*
%TO.P,J1,4,Pin_4*%
%TO.N,+5V*%
X126144000Y-198361000D03*
%TO.P,J1,5,Pin_5*%
%TO.N,GND*%
X126144000Y-195821000D03*
%TO.P,J1,6,Pin_6*%
X126144000Y-193281000D03*
%TD*%
D37*
%TO.P,D1,1,A1*%
%TO.N,2V_Rang*%
X191922000Y-168112000D03*
%TO.P,D1,2,A2*%
%TO.N,GND*%
X191922000Y-172112000D03*
%TD*%
D13*
%TO.P,R16,1*%
%TO.N,+5V*%
X138190000Y-152248000D03*
%TO.P,R16,2*%
%TO.N,Net-(U4-X0)*%
X138190000Y-149148000D03*
%TD*%
D38*
%TO.P,C6,1*%
%TO.N,GND*%
X122646730Y-157586769D03*
%TO.P,C6,2*%
%TO.N,Net-(U1-XTAL2{slash}PB7)*%
X122646730Y-160711769D03*
%TD*%
D22*
%TO.P,R31,1*%
%TO.N,+5V*%
X135620000Y-134278000D03*
%TO.P,R31,2*%
%TO.N,Net-(U4-X5)*%
X135620000Y-137378000D03*
%TD*%
D35*
%TO.P,J6,1,Pin_1*%
%TO.N,9V_BAT_IN*%
X146451000Y-211006000D03*
D36*
%TO.P,J6,2,Pin_2*%
%TO.N,Net-(J6-Pin_2)*%
X148991000Y-211006000D03*
%TD*%
D35*
%TO.P,J10,1,Pin_1*%
%TO.N,+5V*%
X159634000Y-183467400D03*
D36*
%TO.P,J10,2,Pin_2*%
%TO.N,Net-(J10-Pin_2)*%
X159634000Y-186007400D03*
%TD*%
D39*
%TO.P,D7,1,A1*%
%TO.N,2V_Rang*%
X185830000Y-164758000D03*
%TO.P,D7,2,A2*%
%TO.N,D10*%
X181830000Y-164758000D03*
%TD*%
D22*
%TO.P,R22,1*%
%TO.N,A3*%
X153949000Y-181389000D03*
%TO.P,R22,2*%
%TO.N,Net-(J8-Pin_2)*%
X153949000Y-184489000D03*
%TD*%
D40*
%TO.P,U2,1,Cc*%
%TO.N,GND*%
X167650000Y-149948000D03*
D41*
%TO.P,U2,2,Vin*%
%TO.N,Net-(U2-Vin)*%
X167650000Y-147408000D03*
%TO.P,U2,3,Cf*%
%TO.N,Net-(U2-Cf)*%
X167650000Y-144868000D03*
%TO.P,U2,4,-Vs*%
%TO.N,Net-(U2--Vs)*%
X167650000Y-142328000D03*
%TO.P,U2,5,Cav*%
%TO.N,Net-(U2-Cav)*%
X160030000Y-142328000D03*
%TO.P,U2,6,OUTPUT*%
%TO.N,Net-(U2-OUTPUT)*%
X160030000Y-144868000D03*
%TO.P,U2,7,+Vs*%
%TO.N,+5V*%
X160030000Y-147408000D03*
%TO.P,U2,8,COM*%
%TO.N,GND*%
X160030000Y-149948000D03*
%TD*%
D35*
%TO.P,J13,1,Pin_1*%
%TO.N,+5V*%
X179105600Y-183447000D03*
D36*
%TO.P,J13,2,Pin_2*%
%TO.N,Net-(J13-Pin_2)*%
X179105600Y-185987000D03*
%TD*%
D23*
%TO.P,F1,1*%
%TO.N,Voltage_Input*%
X201116800Y-169678000D03*
%TO.P,F1,2*%
%TO.N,2V_Rang*%
X201116800Y-147178000D03*
%TD*%
D42*
%TO.P,C3,1*%
%TO.N,+5V*%
X133489346Y-169565854D03*
%TO.P,C3,2*%
%TO.N,GND*%
X135699054Y-167356146D03*
%TD*%
D22*
%TO.P,R23,1*%
%TO.N,A3*%
X163687800Y-181516000D03*
%TO.P,R23,2*%
%TO.N,Net-(J10-Pin_2)*%
X163687800Y-184616000D03*
%TD*%
D43*
%TO.P,J3,1,1*%
%TO.N,GND*%
X201193000Y-198610000D03*
%TD*%
D22*
%TO.P,R32,1*%
%TO.N,+5V*%
X143230000Y-134208000D03*
%TO.P,R32,2*%
%TO.N,Net-(U4-X6)*%
X143230000Y-137308000D03*
%TD*%
%TO.P,R25,1*%
%TO.N,A3*%
X183118800Y-181516000D03*
%TO.P,R25,2*%
%TO.N,Net-(J13-Pin_2)*%
X183118800Y-184616000D03*
%TD*%
D13*
%TO.P,R37,1*%
%TO.N,A3*%
X165740000Y-179478000D03*
%TO.P,R37,2*%
%TO.N,Net-(J18-Pin_2)*%
X165740000Y-176378000D03*
%TD*%
%TO.P,R38,1*%
%TO.N,A3*%
X175920000Y-179358000D03*
%TO.P,R38,2*%
%TO.N,Net-(J20-Pin_2)*%
X175920000Y-176258000D03*
%TD*%
D44*
%TO.P,C13,1*%
%TO.N,+5V*%
X163452000Y-223579000D03*
%TO.P,C13,2*%
%TO.N,GND*%
X167052000Y-223579000D03*
%TD*%
D21*
%TO.P,R3,1*%
%TO.N,Net-(R2-Pad2)*%
X154964400Y-190990800D03*
%TO.P,R3,2*%
%TO.N,Net-(R3-Pad2)*%
X158064400Y-190990800D03*
%TD*%
D22*
%TO.P,R33,1*%
%TO.N,+5V*%
X138210000Y-134258000D03*
%TO.P,R33,2*%
%TO.N,Net-(U4-X7)*%
X138210000Y-137358000D03*
%TD*%
D35*
%TO.P,J18,1,Pin_1*%
%TO.N,+5V*%
X165750000Y-170778000D03*
D45*
%TO.P,J18,2,Pin_2*%
%TO.N,Net-(J18-Pin_2)*%
X165750000Y-173318000D03*
%TD*%
D46*
%TO.P,R15,1*%
%TO.N,TS*%
X134315400Y-213495200D03*
%TO.P,R15,2*%
%TO.N,GND*%
X131215400Y-213495200D03*
%TD*%
D21*
%TO.P,R14,1*%
%TO.N,+5V*%
X147240000Y-111608000D03*
%TO.P,R14,2*%
%TO.N,Net-(DS1-LED(+))*%
X150340000Y-111608000D03*
%TD*%
D47*
%TO.P,C14,1*%
%TO.N,GND*%
X177650000Y-145508000D03*
%TO.P,C14,2*%
%TO.N,Net-(U2--Vs)*%
X177650000Y-141908000D03*
%TD*%
D48*
%TO.P,C2,1*%
%TO.N,+5V*%
X166650000Y-155533000D03*
%TO.P,C2,2*%
%TO.N,GND*%
X166650000Y-152408000D03*
%TD*%
D22*
%TO.P,R8,1*%
%TO.N,GND*%
X147720000Y-178278000D03*
%TO.P,R8,2*%
%TO.N,A3*%
X147720000Y-181378000D03*
%TD*%
D49*
%TO.P,Y1,1,1*%
%TO.N,Net-(U1-XTAL2{slash}PB7)*%
X125359319Y-164818681D03*
%TO.P,Y1,2,2*%
%TO.N,Net-(U1-XTAL1{slash}PB6)*%
X128810000Y-161368000D03*
%TD*%
D35*
%TO.P,J14,1,Pin_1*%
%TO.N,+5V*%
X153720000Y-170788000D03*
D45*
%TO.P,J14,2,Pin_2*%
%TO.N,Net-(J14-Pin_2)*%
X153720000Y-173328000D03*
%TD*%
D50*
%TO.P,D4,1,A1*%
%TO.N,2V_Rang*%
X201150000Y-142198000D03*
%TO.P,D4,2,A2*%
%TO.N,A0*%
X201150000Y-138198000D03*
%TD*%
D21*
%TO.P,R6,1*%
%TO.N,Net-(R5-Pad2)*%
X173608000Y-190990800D03*
%TO.P,R6,2*%
%TO.N,200V_Rang*%
X176708000Y-190990800D03*
%TD*%
%TO.P,R13,1*%
%TO.N,+5V*%
X136990000Y-201378000D03*
%TO.P,R13,2*%
%TO.N,SDA*%
X140090000Y-201378000D03*
%TD*%
D47*
%TO.P,C18,1*%
%TO.N,GND*%
X177650000Y-153008000D03*
%TO.P,C18,2*%
%TO.N,+5V*%
X177650000Y-149408000D03*
%TD*%
D35*
%TO.P,J7,1,Pin_1*%
%TO.N,2V_Rang*%
X147218000Y-190990800D03*
D36*
%TO.P,J7,2,Pin_2*%
%TO.N,V_ADC_Input*%
X147218000Y-193530800D03*
%TD*%
D25*
%TO.P,U8,1,VDD*%
%TO.N,+5V*%
X155590000Y-137438000D03*
D26*
%TO.P,U8,2,GND*%
%TO.N,GND*%
X155590000Y-139978000D03*
%TO.P,U8,3,SCL*%
%TO.N,SCL*%
X155590000Y-142518000D03*
%TO.P,U8,4,SDA*%
%TO.N,SDA*%
X155590000Y-145058000D03*
%TO.P,U8,5,ADDR*%
%TO.N,GND*%
X155590000Y-147598000D03*
%TO.P,U8,6,ALERT/RDY*%
%TO.N,unconnected-(U8-ALERT{slash}RDY-Pad6)*%
X155590000Y-150138000D03*
%TO.P,U8,7,AIN0*%
%TO.N,Net-(U2-OUTPUT)*%
X155590000Y-152678000D03*
%TO.P,U8,8,AIN1*%
%TO.N,unconnected-(U8-AIN1-Pad8)*%
X155590000Y-155218000D03*
%TO.P,U8,9,AIN2*%
%TO.N,Net-(U8-AIN2)*%
X155590000Y-157758000D03*
%TO.P,U8,10,AIN3*%
%TO.N,Net-(U8-AIN3)*%
X155590000Y-160298000D03*
%TD*%
D35*
%TO.P,J11,1,Pin_1*%
%TO.N,200V_Rang*%
X179476000Y-190990800D03*
D36*
%TO.P,J11,2,Pin_2*%
%TO.N,V_ADC_Input*%
X179476000Y-193530800D03*
%TD*%
D51*
%TO.P,JP2,1,A*%
%TO.N,+5V*%
X151485200Y-217182800D03*
%TO.P,JP2,2,C*%
%TO.N,Net-(J6-Pin_2)*%
X151485200Y-215882800D03*
%TO.P,JP2,3,B*%
%TO.N,Net-(JP2-B)*%
X151485200Y-214582800D03*
%TD*%
D38*
%TO.P,C4,1*%
%TO.N,Net-(U1-~{RESET}{slash}PC6)*%
X130265000Y-201943000D03*
%TO.P,C4,2*%
%TO.N,DTR*%
X130265000Y-205068000D03*
%TD*%
D52*
%TO.P,U5,1,ADJ*%
%TO.N,Net-(D5-A)*%
X159297000Y-214942600D03*
%TO.P,U5,2,VO*%
%TO.N,+5V*%
X156997000Y-214942600D03*
D53*
X156997000Y-221242600D03*
D52*
%TO.P,U5,3,VI*%
%TO.N,Net-(JP2-B)*%
X154697000Y-214942600D03*
%TD*%
D22*
%TO.P,R24,1*%
%TO.N,A3*%
X173416000Y-181516000D03*
%TO.P,R24,2*%
%TO.N,Net-(J12-Pin_2)*%
X173416000Y-184616000D03*
%TD*%
D54*
%TO.P,R1,1*%
%TO.N,Net-(U3-AIN2)*%
X194590000Y-209378000D03*
%TO.P,R1,2*%
%TO.N,GND*%
X194590000Y-203278000D03*
%TD*%
D35*
%TO.P,J12,1,Pin_1*%
%TO.N,+5V*%
X169365000Y-183447000D03*
D36*
%TO.P,J12,2,Pin_2*%
%TO.N,Net-(J12-Pin_2)*%
X169365000Y-185987000D03*
%TD*%
D13*
%TO.P,R36,1*%
%TO.N,A3*%
X170130000Y-179488000D03*
%TO.P,R36,2*%
%TO.N,Net-(J16-Pin_2)*%
X170130000Y-176388000D03*
%TD*%
D35*
%TO.P,J20,1,Pin_1*%
%TO.N,+5V*%
X174190000Y-170768000D03*
D45*
%TO.P,J20,2,Pin_2*%
%TO.N,Net-(J20-Pin_2)*%
X174190000Y-173308000D03*
%TD*%
D35*
%TO.P,J16,1,Pin_1*%
%TO.N,+5V*%
X170080000Y-170818000D03*
D45*
%TO.P,J16,2,Pin_2*%
%TO.N,Net-(J16-Pin_2)*%
X170080000Y-173358000D03*
%TD*%
D43*
%TO.P,J2,1,1*%
%TO.N,Voltage_Input*%
X201193000Y-179610000D03*
%TD*%
D13*
%TO.P,R21,1*%
%TO.N,+5V*%
X135620000Y-152198000D03*
%TO.P,R21,2*%
%TO.N,Net-(U4-X3)*%
X135620000Y-149098000D03*
%TD*%
D21*
%TO.P,R2,1*%
%TO.N,2V_Rang*%
X149986000Y-190990800D03*
%TO.P,R2,2*%
%TO.N,Net-(R2-Pad2)*%
X153086000Y-190990800D03*
%TD*%
D55*
%TO.P,GND1,1,1*%
%TO.N,GND*%
X124256400Y-218702200D03*
%TD*%
D56*
%TO.P,C11,1*%
%TO.N,Net-(U7-C_{FLY-})*%
X170410000Y-135988000D03*
%TO.P,C11,2*%
%TO.N,Net-(U7-C_{FLY+})*%
X166810000Y-135988000D03*
%TD*%
D43*
%TO.P,J4,1,1*%
%TO.N,Current_Input*%
X201193000Y-217610000D03*
%TD*%
D44*
%TO.P,C10,1*%
%TO.N,Net-(JP2-B)*%
X155197000Y-208085000D03*
%TO.P,C10,2*%
%TO.N,GND*%
X158797000Y-208085000D03*
%TD*%
D21*
%TO.P,R5,1*%
%TO.N,20V_Rang*%
X168578800Y-190990800D03*
%TO.P,R5,2*%
%TO.N,Net-(R5-Pad2)*%
X171678800Y-190990800D03*
%TD*%
D55*
%TO.P,5V1,1,1*%
%TO.N,+5V*%
X150647000Y-222156600D03*
%TD*%
D35*
%TO.P,J9,1,Pin_1*%
%TO.N,20V_Rang*%
X165810800Y-190985800D03*
D36*
%TO.P,J9,2,Pin_2*%
%TO.N,V_ADC_Input*%
X165810800Y-193525800D03*
%TD*%
D50*
%TO.P,D5,1,K*%
%TO.N,+5V*%
X162839000Y-219102000D03*
%TO.P,D5,2,A*%
%TO.N,Net-(D5-A)*%
X162839000Y-215102000D03*
%TD*%
D57*
%TO.P,D3,1,K*%
%TO.N,GND*%
X130773100Y-186723600D03*
%TO.P,D3,2,A*%
%TO.N,Net-(D3-A)*%
X127798100Y-186723600D03*
%TD*%
D58*
%TO.P,JP1,1,A*%
%TO.N,BMS_BAT_IN*%
X139847400Y-215146200D03*
%TO.P,JP1,2,C*%
%TO.N,Net-(JP1-C)*%
X141147400Y-215146200D03*
%TO.P,JP1,3,B*%
%TO.N,9V_BAT_IN*%
X142447400Y-215146200D03*
%TD*%
D21*
%TO.P,R10,1*%
%TO.N,Net-(D3-A)*%
X127786400Y-183980400D03*
%TO.P,R10,2*%
%TO.N,SCK{slash}D13*%
X130886400Y-183980400D03*
%TD*%
D20*
%TO.P,C17,1*%
%TO.N,Net-(U2-Vin)*%
X170525000Y-147408000D03*
%TO.P,C17,2*%
%TO.N,V_ADC_Input*%
X173650000Y-147408000D03*
%TD*%
D48*
%TO.P,C5,1*%
%TO.N,Net-(U1-XTAL1{slash}PB6)*%
X125313730Y-158552769D03*
%TO.P,C5,2*%
%TO.N,GND*%
X125313730Y-155427769D03*
%TD*%
D59*
%TO.P,U4,1,X4*%
%TO.N,Net-(U4-X4)*%
X145790000Y-139318000D03*
D60*
%TO.P,U4,2,X6*%
%TO.N,Net-(U4-X6)*%
X143250000Y-139318000D03*
%TO.P,U4,3,X*%
%TO.N,A0*%
X140710000Y-139318000D03*
%TO.P,U4,4,X7*%
%TO.N,Net-(U4-X7)*%
X138170000Y-139318000D03*
%TO.P,U4,5,X5*%
%TO.N,Net-(U4-X5)*%
X135630000Y-139318000D03*
%TO.P,U4,6,ENABLE*%
%TO.N,D9*%
X133090000Y-139318000D03*
%TO.P,U4,7,N.C.*%
%TO.N,unconnected-(U4-N.C.-Pad7)*%
X130550000Y-139318000D03*
%TO.P,U4,8,GND*%
%TO.N,GND*%
X128010000Y-139318000D03*
%TO.P,U4,9,C*%
%TO.N,D8*%
X128010000Y-147258000D03*
%TO.P,U4,10,B*%
%TO.N,D7*%
X130550000Y-147258000D03*
%TO.P,U4,11,A*%
%TO.N,D6*%
X133090000Y-147258000D03*
%TO.P,U4,12,X3*%
%TO.N,Net-(U4-X3)*%
X135630000Y-147258000D03*
%TO.P,U4,13,X0*%
%TO.N,Net-(U4-X0)*%
X138170000Y-147258000D03*
%TO.P,U4,14,X1*%
%TO.N,Net-(U4-X1)*%
X140710000Y-147258000D03*
%TO.P,U4,15,X2*%
%TO.N,Net-(U4-X2)*%
X143250000Y-147258000D03*
%TO.P,U4,16,VCC*%
%TO.N,+5V*%
X145790000Y-147258000D03*
%TD*%
D21*
%TO.P,R12,1*%
%TO.N,+5V*%
X136990000Y-198878000D03*
%TO.P,R12,2*%
%TO.N,SCL*%
X140090000Y-198878000D03*
%TD*%
D35*
%TO.P,J21,1,Pin_1*%
%TO.N,+5V*%
X161280000Y-170868000D03*
D45*
%TO.P,J21,2,Pin_2*%
%TO.N,Net-(J21-Pin_2)*%
X161280000Y-173408000D03*
%TD*%
D35*
%TO.P,J5,1,Pin_1*%
%TO.N,+5V*%
X157480000Y-170788000D03*
D45*
%TO.P,J5,2,Pin_2*%
%TO.N,Net-(J5-Pin_2)*%
X157480000Y-173328000D03*
%TD*%
D13*
%TO.P,R17,1*%
%TO.N,+5V*%
X140720000Y-152238000D03*
%TO.P,R17,2*%
%TO.N,Net-(U4-X1)*%
X140720000Y-149138000D03*
%TD*%
D21*
%TO.P,R20,1*%
%TO.N,+5V*%
X157098000Y-212276000D03*
%TO.P,R20,2*%
%TO.N,Net-(D5-A)*%
X160198000Y-212276000D03*
%TD*%
D13*
%TO.P,R34,1*%
%TO.N,A3*%
X157470000Y-179478000D03*
%TO.P,R34,2*%
%TO.N,Net-(J5-Pin_2)*%
X157470000Y-176378000D03*
%TD*%
D35*
%TO.P,J8,1,Pin_1*%
%TO.N,+5V*%
X150820000Y-183468000D03*
D36*
%TO.P,J8,2,Pin_2*%
%TO.N,Net-(J8-Pin_2)*%
X150820000Y-186008000D03*
%TD*%
D13*
%TO.P,R9,1*%
%TO.N,A3*%
X151160000Y-179718000D03*
%TO.P,R9,2*%
%TO.N,Net-(J14-Pin_2)*%
X151160000Y-176618000D03*
%TD*%
D31*
%TO.P,Thermistor1,1,1*%
%TO.N,TS*%
X135259400Y-223198000D03*
%TD*%
D61*
%TO.P,SW1,1,1*%
%TO.N,Net-(U1-~{RESET}{slash}PC6)*%
X135929350Y-194246200D03*
%TO.P,SW1,2,2*%
X129566650Y-194246200D03*
%TO.P,SW1,3,3*%
%TO.N,GND*%
X135929350Y-190537800D03*
%TO.P,SW1,4,4*%
X129566650Y-190537800D03*
%TD*%
D38*
%TO.P,C16,1*%
%TO.N,Net-(U2-Cf)*%
X159650000Y-136908000D03*
%TO.P,C16,2*%
%TO.N,Net-(U2-OUTPUT)*%
X159650000Y-140033000D03*
%TD*%
D62*
%TO.N,*%
X125990000Y-125578000D03*
X141990000Y-125598000D03*
X133990000Y-125598000D03*
X155020000Y-125608000D03*
%TO.N,GND*%
X126923400Y-217991000D03*
X128320400Y-217991000D03*
X166649000Y-207450000D03*
X134067000Y-178919600D03*
X172470000Y-139708000D03*
X167284000Y-216467000D03*
X129717400Y-217991000D03*
X124129400Y-214892200D03*
X167284000Y-213927000D03*
X126923400Y-219388000D03*
X147720000Y-176558000D03*
X129717400Y-219388000D03*
X167284000Y-220277000D03*
X167284000Y-215197000D03*
X122799130Y-154526469D03*
X167284000Y-217737000D03*
X124129400Y-213495200D03*
X134067000Y-176125600D03*
X134067000Y-177522600D03*
X167284000Y-219007000D03*
X128320400Y-219388000D03*
X167919000Y-207450000D03*
X134067000Y-174728600D03*
%TO.N,+5V*%
X158267000Y-218397400D03*
X154076000Y-223680600D03*
X125990000Y-119598000D03*
X132309850Y-196862400D03*
X156616000Y-223680600D03*
X180050000Y-119538000D03*
X159537000Y-218397400D03*
X202990000Y-119598000D03*
X155346000Y-223680600D03*
X159156000Y-223680600D03*
X131686000Y-178900400D03*
X155727000Y-218372000D03*
X131686000Y-176131800D03*
X154330000Y-218372000D03*
X157886000Y-223680600D03*
X138030000Y-119538000D03*
X156640000Y-119588000D03*
X156997000Y-218372000D03*
D63*
%TO.N,Net-(U1-~{RESET}{slash}PC6)*%
X132430000Y-202298000D03*
X139350000Y-176360600D03*
D62*
%TO.N,9V_BAT_IN*%
X141850000Y-209192000D03*
X143374000Y-209192000D03*
X141850000Y-207668000D03*
X143374000Y-207668000D03*
D63*
%TO.N,RXD*%
X139980000Y-175560600D03*
%TO.N,TXD*%
X140890000Y-174760600D03*
D62*
%TO.N,2V_Rang*%
X173990000Y-125598000D03*
X202990000Y-125598000D03*
X187030000Y-135178000D03*
X197990000Y-125598000D03*
X183890000Y-135168000D03*
%TO.N,D9*%
X124017600Y-177078000D03*
%TO.N,A0*%
X148890000Y-140998000D03*
X148940000Y-130888000D03*
X145890000Y-141038000D03*
X144930000Y-182468000D03*
X144930000Y-180328000D03*
%TO.N,SDA*%
X146590000Y-174378000D03*
X140630000Y-203918000D03*
X141884000Y-178748000D03*
%TO.N,D5*%
X127772113Y-173324807D03*
%TO.N,MISO{slash}D12*%
X127463000Y-180125100D03*
%TO.N,D2*%
X141179000Y-173267100D03*
%TO.N,D4*%
X137108800Y-169604000D03*
%TO.N,SCL*%
X143535000Y-178748000D03*
X145580000Y-173378000D03*
X142590000Y-196878000D03*
%TO.N,D8*%
X123067600Y-174988000D03*
%TO.N,D10*%
X136970000Y-186968000D03*
X144940000Y-186968000D03*
X124050000Y-179268000D03*
X172780000Y-176338000D03*
%TO.N,D7*%
X124266599Y-171107898D03*
%TO.N,MOSI{slash}D11*%
X127463000Y-178728100D03*
%TO.N,D6*%
X125498248Y-169876248D03*
%TO.N,D3*%
X137877000Y-170854100D03*
%TO.N,20V_Rang*%
X165990000Y-125608000D03*
X189990000Y-125598000D03*
%TO.N,200V_Rang*%
X186780000Y-137008000D03*
X157990000Y-125598000D03*
X181990000Y-136958000D03*
X181990000Y-125598000D03*
D64*
%TO.N,V_ADC_Input*%
X174160000Y-155908000D03*
D62*
X202990000Y-128598000D03*
D63*
X169090000Y-196878000D03*
D64*
X187610000Y-155798000D03*
X174180000Y-151918000D03*
D62*
%TO.N,Net-(J8-Pin_2)*%
X186580000Y-133808000D03*
X175412000Y-133830000D03*
X197990000Y-122598000D03*
%TO.N,Net-(J10-Pin_2)*%
X182940000Y-132208000D03*
X189990000Y-122598000D03*
X177340000Y-132188000D03*
%TO.N,Net-(J12-Pin_2)*%
X181990000Y-122598000D03*
%TO.N,Net-(J13-Pin_2)*%
X149990000Y-122598000D03*
X181400000Y-158098000D03*
X147660000Y-161178000D03*
X159920000Y-158028000D03*
X147650000Y-169098000D03*
%TO.N,Net-(J5-Pin_2)*%
X160670000Y-115618000D03*
X138990000Y-122598000D03*
X139160000Y-116368000D03*
%TO.N,Net-(J14-Pin_2)*%
X159490000Y-117708000D03*
X125990000Y-122578000D03*
X127750000Y-117208000D03*
%TO.N,Net-(J16-Pin_2)*%
X170990000Y-122598000D03*
%TO.N,Net-(J18-Pin_2)*%
X162990000Y-122598000D03*
%TO.N,Net-(J20-Pin_2)*%
X173990000Y-122598000D03*
%TO.N,Net-(J21-Pin_2)*%
X142060000Y-115398000D03*
X161910000Y-114448000D03*
X141990000Y-122598000D03*
D64*
%TO.N,Net-(U8-AIN3)*%
X191090000Y-159878000D03*
%TO.N,Net-(U8-AIN2)*%
X194090000Y-157688000D03*
%TD*%
D65*
%TO.N,GND*%
X184506800Y-193530800D02*
X184506800Y-193681600D01*
D66*
X136137500Y-186120100D02*
X136137500Y-184634600D01*
X134086000Y-181010600D02*
X134086000Y-178938600D01*
X134886000Y-172510600D02*
X134886000Y-173909600D01*
X133286000Y-172510600D02*
X133286000Y-173947600D01*
D65*
X135699054Y-167356146D02*
X135699054Y-167356054D01*
D66*
X135864200Y-169578600D02*
X135864200Y-167699092D01*
X171650000Y-141633000D02*
X171650000Y-140528000D01*
X127236200Y-190537800D02*
X126144000Y-191630000D01*
D67*
X166650000Y-150948000D02*
X167650000Y-149948000D01*
X124030000Y-137338000D02*
X126030000Y-137338000D01*
D65*
X128240000Y-139088000D02*
X128010000Y-139318000D01*
D66*
X135534000Y-186723600D02*
X136137500Y-186120100D01*
X134086000Y-183637600D02*
X134086000Y-181010600D01*
X135864200Y-167699092D02*
X135546654Y-167381546D01*
X133286000Y-173947600D02*
X134067000Y-174728600D01*
X135929350Y-190537800D02*
X129566650Y-190537800D01*
D67*
X126030000Y-137338000D02*
X128010000Y-139318000D01*
D65*
X167690000Y-149948000D02*
X167650000Y-149948000D01*
D66*
X171650000Y-140528000D02*
X172470000Y-139708000D01*
X134067000Y-174728600D02*
X134067000Y-178919600D01*
D65*
X177650000Y-145508000D02*
X178751000Y-146609000D01*
D66*
X126525000Y-195440000D02*
X126144000Y-195821000D01*
X134067000Y-178919600D02*
X134086000Y-178938600D01*
X130773100Y-186723600D02*
X135534000Y-186723600D01*
D65*
X177650000Y-153008000D02*
X170750000Y-153008000D01*
D67*
X166650000Y-152408000D02*
X166650000Y-150948000D01*
D66*
X135083000Y-184634600D02*
X134086000Y-183637600D01*
X134886000Y-172510600D02*
X134886000Y-170556800D01*
X129566650Y-190537800D02*
X127236200Y-190537800D01*
D67*
X164090000Y-199378000D02*
X164590000Y-198878000D01*
D65*
X147720000Y-176558000D02*
X147710000Y-176548000D01*
D67*
X147720000Y-178278000D02*
X147720000Y-176558000D01*
D65*
X178751000Y-146609000D02*
X178751000Y-151907000D01*
D66*
X134886000Y-170556800D02*
X135864200Y-169578600D01*
X134886000Y-173909600D02*
X134067000Y-174728600D01*
D67*
X164090000Y-202378000D02*
X164090000Y-199378000D01*
X170650000Y-152908000D02*
X167690000Y-149948000D01*
D66*
X136518500Y-184634600D02*
X135083000Y-184634600D01*
D65*
X178751000Y-151907000D02*
X177650000Y-153008000D01*
X171800000Y-141483000D02*
X171650000Y-141633000D01*
D66*
X126144000Y-191630000D02*
X126144000Y-193281000D01*
D65*
X170750000Y-153008000D02*
X170650000Y-152908000D01*
D66*
%TO.N,Net-(U1-AREF)*%
X133286000Y-181010600D02*
X133286000Y-184527100D01*
D65*
X133286000Y-184527100D02*
X133393500Y-184634600D01*
D67*
%TO.N,+5V*%
X125090000Y-207878000D02*
X124090000Y-206878000D01*
X145820000Y-133918000D02*
X147640000Y-133918000D01*
D66*
X133133700Y-169845300D02*
X134086000Y-170797600D01*
D67*
X145790000Y-149678000D02*
X145790000Y-147258000D01*
D65*
X138190000Y-134278000D02*
X138210000Y-134258000D01*
D66*
X130265000Y-196875500D02*
X128956650Y-196875500D01*
D67*
X177650000Y-149408000D02*
X177650000Y-148658000D01*
X136990000Y-201928000D02*
X131040000Y-207878000D01*
X135620000Y-134278000D02*
X138190000Y-134278000D01*
X162750000Y-150128000D02*
X161590000Y-148968000D01*
D66*
X132486000Y-172510600D02*
X132486000Y-170493000D01*
D67*
X161590000Y-148968000D02*
X160030000Y-147408000D01*
D65*
X158099000Y-145477000D02*
X158099000Y-139857000D01*
X167215000Y-198963000D02*
X167130000Y-198878000D01*
X140710000Y-152248000D02*
X140720000Y-152238000D01*
D67*
X135620000Y-134278000D02*
X124590000Y-134278000D01*
D66*
X132486000Y-174303000D02*
X132486000Y-172510600D01*
X131686000Y-175103000D02*
X132486000Y-174303000D01*
X127471150Y-198361000D02*
X126144000Y-198361000D01*
X131686000Y-181010600D02*
X131686000Y-175103000D01*
D68*
X136990000Y-198878000D02*
X136990000Y-201378000D01*
D65*
X160030000Y-147408000D02*
X158099000Y-145477000D01*
D67*
X147240000Y-111608000D02*
X139900000Y-111608000D01*
X124090000Y-206878000D02*
X124090000Y-200415000D01*
X131040000Y-207878000D02*
X125090000Y-207878000D01*
X135620000Y-152198000D02*
X138140000Y-152198000D01*
X166650000Y-155533000D02*
X162875000Y-155533000D01*
X162750000Y-152908000D02*
X162750000Y-150128000D01*
D65*
X158099000Y-139857000D02*
X155650000Y-137408000D01*
D67*
X169122499Y-146148000D02*
X164410000Y-146148000D01*
X170700000Y-144570499D02*
X169122499Y-146148000D01*
X140720000Y-152238000D02*
X143230000Y-152238000D01*
D65*
X170700000Y-143908000D02*
X170700000Y-144570499D01*
D67*
X136990000Y-201378000D02*
X136990000Y-201928000D01*
X138190000Y-152248000D02*
X140710000Y-152248000D01*
X174400000Y-145408000D02*
X171537501Y-145408000D01*
D66*
X132486000Y-170493000D02*
X133133700Y-169845300D01*
X132296750Y-196875500D02*
X130265000Y-196875500D01*
D65*
X143180000Y-134258000D02*
X143230000Y-134208000D01*
D67*
X138210000Y-134258000D02*
X143180000Y-134258000D01*
X143230000Y-134208000D02*
X145530000Y-134208000D01*
D66*
X132309850Y-196862400D02*
X132296750Y-196875500D01*
D65*
X145530000Y-134208000D02*
X145820000Y-133918000D01*
D67*
X145790000Y-147258000D02*
X147670000Y-145378000D01*
D65*
X138140000Y-152198000D02*
X138190000Y-152248000D01*
D67*
X164410000Y-146148000D02*
X161590000Y-148968000D01*
X139900000Y-111608000D02*
X138130000Y-113378000D01*
X177650000Y-148658000D02*
X174400000Y-145408000D01*
D65*
X143230000Y-152238000D02*
X143260000Y-152208000D01*
D67*
X147670000Y-145378000D02*
X147670000Y-133888000D01*
D66*
X128956650Y-196875500D02*
X127471150Y-198361000D01*
X134086000Y-170797600D02*
X134086000Y-172510600D01*
D67*
X143260000Y-152208000D02*
X145790000Y-149678000D01*
X124090000Y-200415000D02*
X126144000Y-198361000D01*
X162750000Y-155408000D02*
X162750000Y-152908000D01*
D65*
X147640000Y-133918000D02*
X147670000Y-133888000D01*
D67*
X167215000Y-202378000D02*
X167215000Y-198963000D01*
X171537501Y-145408000D02*
X170700000Y-144570499D01*
D65*
X162875000Y-155533000D02*
X162750000Y-155408000D01*
X124590000Y-134278000D02*
X124030000Y-134838000D01*
D66*
%TO.N,Net-(U1-XTAL1{slash}PB6)*%
X131686000Y-171794000D02*
X131686000Y-169762000D01*
X131686000Y-164244000D02*
X130280000Y-162838000D01*
X126262461Y-161368000D02*
X128810000Y-161368000D01*
D65*
X131686000Y-172510600D02*
X131686000Y-171794000D01*
D66*
X126262461Y-161368000D02*
X125313730Y-160419269D01*
X125313730Y-160419269D02*
X125313730Y-158552769D01*
X130280000Y-162838000D02*
X128810000Y-161368000D01*
X131686000Y-169762000D02*
X131686000Y-164244000D01*
%TO.N,Net-(U1-XTAL2{slash}PB7)*%
X123744142Y-164818681D02*
X125359319Y-164818681D01*
X122646730Y-163721269D02*
X122646730Y-160711769D01*
X128140000Y-172510600D02*
X128140000Y-167599362D01*
X130886000Y-172510600D02*
X128140000Y-172510600D01*
X122646730Y-163721269D02*
X123744142Y-164818681D01*
X128140000Y-167599362D02*
X125359319Y-164818681D01*
%TO.N,DTR*%
X128829500Y-205068000D02*
X127916500Y-205981000D01*
X130265000Y-205068000D02*
X128829500Y-205068000D01*
X127916500Y-205981000D02*
X126144000Y-205981000D01*
%TO.N,Net-(U1-~{RESET}{slash}PC6)*%
X129566650Y-194246200D02*
X135929350Y-194246200D01*
X130265000Y-199975500D02*
X133165500Y-199975500D01*
X130620000Y-202298000D02*
X132430000Y-202298000D01*
X133165500Y-199975500D02*
X135929350Y-197211650D01*
X139350000Y-176360600D02*
X137936000Y-176360600D01*
X135929350Y-197211650D02*
X135929350Y-194246200D01*
X130265000Y-199975500D02*
X130265000Y-201943000D01*
X130265000Y-201943000D02*
X130620000Y-202298000D01*
D65*
%TO.N,Net-(JP2-B)*%
X154672000Y-214917600D02*
X154697000Y-214942600D01*
D68*
X154647000Y-214942600D02*
X154672000Y-214917600D01*
D65*
%TO.N,Net-(D3-A)*%
X127786400Y-186153100D02*
X127798100Y-186164800D01*
D66*
X127786400Y-183980400D02*
X127786400Y-186711900D01*
D65*
X127786400Y-186711900D02*
X127798100Y-186723600D01*
D66*
%TO.N,RXD*%
X139980000Y-175560600D02*
X137936000Y-175560600D01*
%TO.N,TXD*%
X140890000Y-174760600D02*
X137936000Y-174760600D01*
X126320000Y-203617000D02*
X126144000Y-203441000D01*
D11*
%TO.N,2V_Rang*%
X185830000Y-164758000D02*
X191840400Y-164758000D01*
X191922000Y-164676400D02*
X191922000Y-168112000D01*
D65*
X201016800Y-147078000D02*
X201116800Y-147178000D01*
D67*
X183900000Y-135178000D02*
X183890000Y-135168000D01*
D11*
X201150000Y-145948000D02*
X201150000Y-142198000D01*
X201116800Y-147178000D02*
X201116800Y-145981200D01*
D65*
X201026800Y-147088000D02*
X201116800Y-147178000D01*
D11*
X201116800Y-147178000D02*
X201116800Y-155481600D01*
D68*
X147218000Y-190990800D02*
X149986000Y-190990800D01*
D67*
X187030000Y-135178000D02*
X183900000Y-135178000D01*
D11*
X201116800Y-155481600D02*
X191922000Y-164676400D01*
X201116800Y-145981200D02*
X201150000Y-145948000D01*
D65*
X191840400Y-164758000D02*
X191922000Y-164676400D01*
D66*
%TO.N,SCK{slash}D13*%
X130886000Y-183980000D02*
X130886400Y-183980400D01*
X130886000Y-181010600D02*
X130886000Y-183980000D01*
X130886400Y-183980400D02*
X130886400Y-183574000D01*
D67*
%TO.N,TS*%
X134670400Y-215654200D02*
X134670400Y-222609000D01*
X134670400Y-222609000D02*
X135259400Y-223198000D01*
D66*
%TO.N,D9*%
X129436000Y-177160600D02*
X124100200Y-177160600D01*
X124100200Y-177160600D02*
X124017600Y-177078000D01*
D67*
%TO.N,A0*%
X196650000Y-130898000D02*
X201150000Y-135398000D01*
D65*
X148980000Y-141088000D02*
X148890000Y-140998000D01*
D66*
X135686000Y-181010600D02*
X135686000Y-182010600D01*
X144729000Y-173025504D02*
X144729000Y-173730496D01*
D67*
X145890000Y-141038000D02*
X145860000Y-141068000D01*
D66*
X136143400Y-182468000D02*
X144930000Y-182468000D01*
D67*
X150560000Y-130888000D02*
X150570000Y-130898000D01*
D66*
X148980000Y-157948000D02*
X148980000Y-141088000D01*
D67*
X142460000Y-141068000D02*
X140710000Y-139318000D01*
X145860000Y-141068000D02*
X142460000Y-141068000D01*
D66*
X135686000Y-182010600D02*
X136143400Y-182468000D01*
X144930000Y-173931496D02*
X144930000Y-180328000D01*
X148980000Y-157948000D02*
X144930000Y-161998000D01*
X144930000Y-172824504D02*
X144729000Y-173025504D01*
D67*
X150570000Y-130898000D02*
X196650000Y-130898000D01*
X201150000Y-135398000D02*
X201150000Y-138198000D01*
X148940000Y-130888000D02*
X150560000Y-130888000D01*
D66*
X144729000Y-173730496D02*
X144930000Y-173931496D01*
X148940000Y-130888000D02*
X148980000Y-130928000D01*
X144930000Y-161998000D02*
X144930000Y-172824504D01*
D67*
%TO.N,SDA*%
X153590000Y-147058000D02*
X155590000Y-145058000D01*
X141096600Y-177960600D02*
X137936000Y-177960600D01*
X140090000Y-203358000D02*
X140640000Y-203908000D01*
X153590000Y-167378000D02*
X153590000Y-147058000D01*
X140090000Y-201378000D02*
X140090000Y-203358000D01*
X159510000Y-198878000D02*
X157010000Y-201378000D01*
D65*
X140640000Y-203908000D02*
X140630000Y-203918000D01*
X155650000Y-145028000D02*
X155030000Y-145028000D01*
D67*
X141884000Y-178748000D02*
X141096600Y-177960600D01*
D65*
X156190000Y-144868000D02*
X156150000Y-144908000D01*
D67*
X153590000Y-167378000D02*
X146590000Y-174378000D01*
X157010000Y-201378000D02*
X140090000Y-201378000D01*
D66*
%TO.N,D5*%
X128407906Y-173960600D02*
X129436000Y-173960600D01*
X127772113Y-173324807D02*
X128407906Y-173960600D01*
%TO.N,MISO{slash}D12*%
X127463000Y-180125100D02*
X128027500Y-179560600D01*
X128027500Y-179560600D02*
X129436000Y-179560600D01*
%TO.N,D2*%
X140485500Y-173960600D02*
X137936000Y-173960600D01*
X141179000Y-173267100D02*
X140485500Y-173960600D01*
%TO.N,D4*%
X137108800Y-169604000D02*
X135686000Y-171026800D01*
X135686000Y-171026800D02*
X135686000Y-172510600D01*
D67*
%TO.N,SCL*%
X152090000Y-166868000D02*
X145580000Y-173378000D01*
X152090000Y-166868000D02*
X152090000Y-146018000D01*
X137936000Y-177160600D02*
X141947600Y-177160600D01*
D65*
X142590000Y-196928000D02*
X142590000Y-196878000D01*
D67*
X152090000Y-146018000D02*
X155590000Y-142518000D01*
X140090000Y-198878000D02*
X140640000Y-198878000D01*
X141947600Y-177160600D02*
X143535000Y-178748000D01*
X140640000Y-198878000D02*
X142590000Y-196928000D01*
D66*
%TO.N,D8*%
X124645118Y-176360600D02*
X123272518Y-174988000D01*
X124645118Y-176360600D02*
X129436000Y-176360600D01*
D67*
X123272518Y-174988000D02*
X123067600Y-174988000D01*
%TO.N,D10*%
X174330000Y-177888000D02*
X177380000Y-177888000D01*
X177380000Y-177888000D02*
X181830000Y-173438000D01*
X172780000Y-176338000D02*
X174330000Y-177888000D01*
D66*
X125490000Y-177828000D02*
X124050000Y-179268000D01*
X129303400Y-177828000D02*
X125490000Y-177828000D01*
D67*
X181830000Y-173438000D02*
X181830000Y-164758000D01*
D65*
X129436000Y-177960600D02*
X129402500Y-177927100D01*
D67*
X136970000Y-186968000D02*
X144940000Y-186968000D01*
D66*
X129402500Y-177927100D02*
X129303400Y-177828000D01*
%TO.N,D7*%
X129436000Y-175560600D02*
X125332600Y-175560600D01*
X124266599Y-174481401D02*
X124266599Y-171107898D01*
X124260000Y-174488000D02*
X124266599Y-174481401D01*
X125332600Y-175560600D02*
X124260000Y-174488000D01*
%TO.N,MOSI{slash}D11*%
X127463000Y-178728100D02*
X127495500Y-178760600D01*
X127495500Y-178760600D02*
X129436000Y-178760600D01*
D67*
%TO.N,A3*%
X175920000Y-179358000D02*
X175920000Y-181339000D01*
X165760000Y-181389000D02*
X166160000Y-181389000D01*
X163662400Y-181389000D02*
X161280000Y-181389000D01*
D65*
X142899400Y-181389000D02*
X142910400Y-181378000D01*
D67*
X142878400Y-181368000D02*
X140271000Y-178760600D01*
X159370000Y-181389000D02*
X157350000Y-181389000D01*
D65*
X170150000Y-181379000D02*
X170140000Y-181389000D01*
D67*
X157010000Y-181389000D02*
X156340000Y-181389000D01*
D65*
X175920000Y-181339000D02*
X175970000Y-181389000D01*
D67*
X163662400Y-181389000D02*
X165760000Y-181389000D01*
X151130000Y-179788000D02*
X151130000Y-181378000D01*
X142899400Y-181389000D02*
X142878400Y-181368000D01*
X170150000Y-179418000D02*
X170150000Y-181379000D01*
X161280000Y-181389000D02*
X159370000Y-181389000D01*
X161280000Y-179508000D02*
X161280000Y-181389000D01*
X157350000Y-181389000D02*
X157010000Y-181389000D01*
X147720000Y-181378000D02*
X151130000Y-181378000D01*
X169690000Y-181389000D02*
X170140000Y-181389000D01*
X175970000Y-181389000D02*
X182991800Y-181389000D01*
X156340000Y-181389000D02*
X154112000Y-181389000D01*
X182991800Y-181389000D02*
X183118800Y-181516000D01*
X140271000Y-178760600D02*
X137936000Y-178760600D01*
X142910400Y-181378000D02*
X147720000Y-181378000D01*
X151130000Y-181378000D02*
X153938000Y-181378000D01*
X170140000Y-181389000D02*
X175970000Y-181389000D01*
X166160000Y-181389000D02*
X169690000Y-181389000D01*
X165730000Y-179458000D02*
X165730000Y-181359000D01*
X157430000Y-181309000D02*
X157430000Y-179398000D01*
D65*
X153938000Y-181378000D02*
X153949000Y-181389000D01*
D66*
%TO.N,D6*%
X129436000Y-174760600D02*
X127862988Y-174760600D01*
X127862988Y-174760600D02*
X125498248Y-172395860D01*
X125498248Y-172395860D02*
X125498248Y-169876248D01*
%TO.N,D3*%
X136486000Y-172510600D02*
X136486000Y-171319000D01*
X136950900Y-170854100D02*
X137877000Y-170854100D01*
X136486000Y-171319000D02*
X136950900Y-170854100D01*
D67*
%TO.N,Net-(U3-AIN2)*%
X149810000Y-195878000D02*
X184340000Y-195878000D01*
X184340000Y-195878000D02*
X187590000Y-199128000D01*
X146810000Y-198878000D02*
X149810000Y-195878000D01*
D11*
X187590000Y-199128000D02*
X187590000Y-204378000D01*
X187590000Y-204378000D02*
X192590000Y-209378000D01*
X192590000Y-209378000D02*
X194590000Y-209378000D01*
D67*
%TO.N,Net-(DS1-VO)*%
X135590000Y-113378000D02*
X135590000Y-88154500D01*
X137570000Y-86174500D02*
X137570000Y-74174500D01*
X135590000Y-88154500D02*
X137570000Y-86174500D01*
%TO.N,Net-(DS1-LED(+))*%
X168050000Y-91698200D02*
X168050000Y-86174500D01*
D65*
X150340000Y-109428200D02*
X150330000Y-109418200D01*
D67*
X168050000Y-91698200D02*
X150330000Y-109418200D01*
X168050000Y-86174500D02*
X168050000Y-74174500D01*
X150340000Y-111608000D02*
X150340000Y-109428200D01*
D68*
%TO.N,Net-(J6-Pin_2)*%
X150062800Y-215882800D02*
X148991000Y-214811000D01*
X148991000Y-214811000D02*
X148991000Y-211006000D01*
X151485200Y-215882800D02*
X150062800Y-215882800D01*
D67*
%TO.N,20V_Rang*%
X189990000Y-125598000D02*
X188440000Y-124048000D01*
X167550000Y-124048000D02*
X165990000Y-125608000D01*
X188440000Y-124048000D02*
X167550000Y-124048000D01*
X168573800Y-190985800D02*
X168578800Y-190990800D01*
D68*
X165810800Y-190985800D02*
X168573800Y-190985800D01*
X165810800Y-190985800D02*
X163047800Y-190985800D01*
D67*
X163047800Y-190985800D02*
X163042800Y-190990800D01*
%TO.N,Net-(U4-X0)*%
X138190000Y-149148000D02*
X138190000Y-147278000D01*
D65*
X138190000Y-147278000D02*
X138170000Y-147258000D01*
D11*
%TO.N,Current_Input*%
X197175000Y-221628000D02*
X201193000Y-217610000D01*
X187590000Y-221628000D02*
X197175000Y-221628000D01*
D65*
%TO.N,Voltage_Input*%
X201193000Y-169754200D02*
X201116800Y-169678000D01*
D11*
X201193000Y-179610000D02*
X201193000Y-169754200D01*
D67*
%TO.N,200V_Rang*%
X186780000Y-137008000D02*
X186730000Y-136958000D01*
X186730000Y-136958000D02*
X181990000Y-136958000D01*
D68*
X179476000Y-190990800D02*
X176708000Y-190990800D01*
D67*
X181990000Y-125598000D02*
X180480000Y-127108000D01*
X180480000Y-127108000D02*
X159500000Y-127108000D01*
X159500000Y-127108000D02*
X157990000Y-125598000D01*
D68*
X179476000Y-190990800D02*
X182244000Y-190990800D01*
%TO.N,V_ADC_Input*%
X173990000Y-151728000D02*
X174180000Y-151918000D01*
X173990000Y-147748000D02*
X173990000Y-151728000D01*
D67*
X151890000Y-198878000D02*
X153890000Y-196878000D01*
D68*
X179476000Y-193530800D02*
X147218000Y-193530800D01*
D65*
X187500000Y-155908000D02*
X187610000Y-155798000D01*
D68*
X173650000Y-147408000D02*
X173990000Y-147748000D01*
X174160000Y-155908000D02*
X187500000Y-155908000D01*
D67*
X153890000Y-196878000D02*
X169090000Y-196878000D01*
D65*
X164862200Y-193525800D02*
X165810800Y-193525800D01*
D68*
X179476000Y-193530800D02*
X182456800Y-193530800D01*
D65*
%TO.N,Net-(J8-Pin_2)*%
X186560000Y-133828000D02*
X186580000Y-133808000D01*
D67*
X153949000Y-184489000D02*
X152339000Y-184489000D01*
X152339000Y-184489000D02*
X150820000Y-186008000D01*
X175410000Y-133828000D02*
X186560000Y-133828000D01*
%TO.N,Net-(J10-Pin_2)*%
X177340000Y-132188000D02*
X182920000Y-132188000D01*
X159634000Y-186007400D02*
X161025400Y-184616000D01*
X161025400Y-184616000D02*
X163687800Y-184616000D01*
D65*
X182920000Y-132188000D02*
X182940000Y-132208000D01*
D67*
%TO.N,Net-(J12-Pin_2)*%
X169443000Y-185987000D02*
X170814000Y-184616000D01*
X170814000Y-184616000D02*
X173416000Y-184616000D01*
X169365000Y-185987000D02*
X169443000Y-185987000D01*
%TO.N,Net-(J13-Pin_2)*%
X181400000Y-158098000D02*
X181130000Y-158098000D01*
X180476600Y-184616000D02*
X183118800Y-184616000D01*
X159920000Y-158028000D02*
X181330000Y-158028000D01*
D65*
X147650000Y-161188000D02*
X147660000Y-161178000D01*
D67*
X179105600Y-185987000D02*
X180476600Y-184616000D01*
D65*
X181330000Y-158028000D02*
X181400000Y-158098000D01*
D67*
X147650000Y-169098000D02*
X147650000Y-161188000D01*
D68*
%TO.N,Net-(R2-Pad2)*%
X154964400Y-190990800D02*
X153086000Y-190990800D01*
%TO.N,Net-(R3-Pad2)*%
X159942800Y-190990800D02*
X158064400Y-190990800D01*
%TO.N,Net-(R5-Pad2)*%
X173608000Y-190990800D02*
X171678800Y-190990800D01*
D65*
%TO.N,Net-(U4-X1)*%
X140720000Y-147268000D02*
X140710000Y-147258000D01*
D67*
X140720000Y-149138000D02*
X140720000Y-147268000D01*
D65*
%TO.N,Net-(U4-X2)*%
X143260000Y-147268000D02*
X143250000Y-147258000D01*
D67*
X143260000Y-149108000D02*
X143260000Y-147268000D01*
D65*
%TO.N,Net-(U4-X3)*%
X135620000Y-147268000D02*
X135630000Y-147258000D01*
D67*
X135620000Y-149098000D02*
X135620000Y-147268000D01*
D65*
%TO.N,Net-(U4-X4)*%
X145820000Y-139288000D02*
X145790000Y-139318000D01*
D67*
X145820000Y-137018000D02*
X145820000Y-139288000D01*
%TO.N,Net-(U4-X5)*%
X135620000Y-137378000D02*
X135620000Y-139308000D01*
D65*
X135620000Y-139308000D02*
X135630000Y-139318000D01*
D67*
%TO.N,Net-(U4-X6)*%
X143230000Y-137308000D02*
X143230000Y-139298000D01*
D65*
X143230000Y-139298000D02*
X143250000Y-139318000D01*
%TO.N,Net-(U4-X7)*%
X138210000Y-139278000D02*
X138170000Y-139318000D01*
D67*
X138210000Y-137358000D02*
X138210000Y-139278000D01*
%TO.N,Net-(J5-Pin_2)*%
X157480000Y-173328000D02*
X157480000Y-176368000D01*
X160670000Y-115618000D02*
X159920000Y-116368000D01*
X159920000Y-116368000D02*
X139160000Y-116368000D01*
D65*
X157900000Y-176388000D02*
X157920000Y-176408000D01*
X157480000Y-176368000D02*
X157470000Y-176378000D01*
X157700000Y-176188000D02*
X157920000Y-176408000D01*
D67*
%TO.N,Net-(J14-Pin_2)*%
X151160000Y-175888000D02*
X151160000Y-176618000D01*
X153720000Y-173328000D02*
X151160000Y-175888000D01*
X128250000Y-117708000D02*
X127750000Y-117208000D01*
X159490000Y-117708000D02*
X128250000Y-117708000D01*
D65*
%TO.N,Net-(U7-C_{FLY+})*%
X168930000Y-138108000D02*
X166810000Y-135988000D01*
X168950000Y-138108000D02*
X168930000Y-138108000D01*
X169750000Y-141633000D02*
X169750000Y-138908000D01*
X169750000Y-138908000D02*
X168950000Y-138108000D01*
D67*
%TO.N,Net-(J16-Pin_2)*%
X170080000Y-173358000D02*
X170080000Y-176058000D01*
D65*
X170720000Y-175798000D02*
X170130000Y-176388000D01*
%TO.N,Net-(U7-C_{FLY-})*%
X176629000Y-140307000D02*
X172310000Y-135988000D01*
X178751000Y-140622840D02*
X178435160Y-140307000D01*
X171650000Y-143908000D02*
X178036160Y-143908000D01*
X178751000Y-143193160D02*
X178751000Y-140622840D01*
X172310000Y-135988000D02*
X170410000Y-135988000D01*
X178435160Y-140307000D02*
X176629000Y-140307000D01*
X178036160Y-143908000D02*
X178751000Y-143193160D01*
D67*
%TO.N,Net-(J18-Pin_2)*%
X165750000Y-173318000D02*
X165750000Y-176088000D01*
D65*
X166080000Y-176038000D02*
X165740000Y-176378000D01*
X166060000Y-176058000D02*
X165740000Y-176378000D01*
%TO.N,Net-(U2--Vs)*%
X169750000Y-143908000D02*
X168170000Y-142328000D01*
X177650000Y-141908000D02*
X176613500Y-142944500D01*
X170051001Y-142944500D02*
X169750000Y-143245501D01*
X167730000Y-142408000D02*
X167650000Y-142328000D01*
X168170000Y-142328000D02*
X167650000Y-142328000D01*
X169750000Y-143245501D02*
X169750000Y-143908000D01*
X165150000Y-139828000D02*
X167650000Y-142328000D01*
X176613500Y-142944500D02*
X170051001Y-142944500D01*
X165150000Y-139408000D02*
X165150000Y-139828000D01*
D67*
%TO.N,Net-(J20-Pin_2)*%
X174190000Y-173308000D02*
X175920000Y-175038000D01*
X175920000Y-175038000D02*
X175920000Y-176258000D01*
X173990000Y-122598000D02*
X173940000Y-122648000D01*
%TO.N,Net-(J21-Pin_2)*%
X161280000Y-173408000D02*
X161280000Y-176378000D01*
X143010000Y-114448000D02*
X142060000Y-115398000D01*
D65*
X161280000Y-176378000D02*
X161270000Y-176388000D01*
D67*
X161910000Y-114448000D02*
X143010000Y-114448000D01*
%TO.N,Net-(U2-Cav)*%
X160030000Y-142328000D02*
X162230000Y-140128000D01*
D65*
X162230000Y-140128000D02*
X162230000Y-139408000D01*
%TO.N,Net-(U2-OUTPUT)*%
X159650000Y-140033000D02*
X159030500Y-140652500D01*
D67*
X159030500Y-141527500D02*
X158650000Y-141908000D01*
X159030500Y-140652500D02*
X159030500Y-141527500D01*
X158650000Y-141908000D02*
X158650000Y-143488000D01*
X158650000Y-143488000D02*
X160030000Y-144868000D01*
D65*
X159870000Y-145028000D02*
X160030000Y-144868000D01*
%TO.N,Net-(U2-Vin)*%
X170650000Y-147533000D02*
X170525000Y-147408000D01*
X167650000Y-147408000D02*
X170525000Y-147408000D01*
D67*
X170650000Y-149808000D02*
X170650000Y-147533000D01*
D65*
%TO.N,Net-(U2-Cf)*%
X159650000Y-136908000D02*
X161932000Y-136908000D01*
X161932000Y-136908000D02*
X163650000Y-138626000D01*
X164610000Y-144868000D02*
X167650000Y-144868000D01*
X163650000Y-138626000D02*
X163650000Y-143908000D01*
X163650000Y-143908000D02*
X164610000Y-144868000D01*
%TO.N,Net-(U8-AIN3)*%
X191090000Y-159878000D02*
X190670000Y-160298000D01*
D67*
X190670000Y-160298000D02*
X155590000Y-160298000D01*
%TO.N,Net-(U8-AIN2)*%
X183960000Y-159178000D02*
X157010000Y-159178000D01*
X185450000Y-157688000D02*
X183960000Y-159178000D01*
X194090000Y-157688000D02*
X185450000Y-157688000D01*
X157010000Y-159178000D02*
X155590000Y-157758000D01*
%TD*%
%TA.AperFunction,Conductor*%
%TO.N,GND*%
G36*
X132906743Y-210212907D02*
G01*
X132975984Y-210268126D01*
X133014411Y-210347918D01*
X133019400Y-210392200D01*
X133019400Y-216670200D01*
X133709400Y-216670200D01*
X133795743Y-216689907D01*
X133864984Y-216745126D01*
X133903411Y-216824918D01*
X133908400Y-216869200D01*
X133908400Y-219011200D01*
X133888693Y-219097543D01*
X133833474Y-219166784D01*
X133753682Y-219205211D01*
X133709400Y-219210200D01*
X131876400Y-219210200D01*
X131876400Y-225488200D01*
X131856693Y-225574543D01*
X131801474Y-225643784D01*
X131721682Y-225682211D01*
X131677400Y-225687200D01*
X125044536Y-225687200D01*
X124958193Y-225667493D01*
X124888952Y-225612274D01*
X124850525Y-225532482D01*
X124847239Y-225462224D01*
X124862499Y-225346311D01*
X124862500Y-225346309D01*
X124862500Y-225113690D01*
X124862499Y-225113688D01*
X124832137Y-224883070D01*
X124771932Y-224658382D01*
X124682915Y-224443475D01*
X124610137Y-224317420D01*
X124566611Y-224242030D01*
X124424999Y-224057477D01*
X124260522Y-223893000D01*
X124075969Y-223751388D01*
X123954439Y-223681223D01*
X123874525Y-223635085D01*
X123659618Y-223546068D01*
X123659616Y-223546067D01*
X123659615Y-223546067D01*
X123434932Y-223485863D01*
X123434924Y-223485862D01*
X123204311Y-223455500D01*
X123204307Y-223455500D01*
X123058400Y-223455500D01*
X122972057Y-223435793D01*
X122902816Y-223380574D01*
X122864389Y-223300782D01*
X122859400Y-223256500D01*
X122859400Y-211916200D01*
X122879107Y-211829857D01*
X122934326Y-211760616D01*
X123014118Y-211722189D01*
X123058400Y-211717200D01*
X130352400Y-211717200D01*
X130352400Y-210392200D01*
X130372107Y-210305857D01*
X130427326Y-210236616D01*
X130507118Y-210198189D01*
X130551400Y-210193200D01*
X132820400Y-210193200D01*
X132906743Y-210212907D01*
G37*
%TD.AperFunction*%
%TD*%
%TA.AperFunction,Conductor*%
%TO.N,GND*%
G36*
X193587343Y-170639707D02*
G01*
X193656584Y-170694926D01*
X193695011Y-170774718D01*
X193700000Y-170819000D01*
X193700000Y-182304000D01*
X203963893Y-192678257D01*
X205453465Y-194183846D01*
X205500182Y-194259086D01*
X205511000Y-194323806D01*
X205511000Y-202807167D01*
X205491293Y-202893510D01*
X205436074Y-202962751D01*
X205402752Y-202984269D01*
X202924862Y-204254009D01*
X202839033Y-204275846D01*
X202833730Y-204275907D01*
X193949714Y-204258949D01*
X193452428Y-204258000D01*
X193452426Y-204258000D01*
X193452400Y-204258000D01*
X192924884Y-204272542D01*
X192838030Y-204255222D01*
X192767294Y-204201933D01*
X192726683Y-204123229D01*
X192720400Y-204073618D01*
X192720400Y-196583000D01*
X188366000Y-194470600D01*
X183916800Y-194470600D01*
X183830457Y-194450893D01*
X183761216Y-194395674D01*
X183722789Y-194315882D01*
X183717800Y-194271600D01*
X183717800Y-192764600D01*
X183737507Y-192678257D01*
X183792726Y-192609016D01*
X183872518Y-192570589D01*
X183916800Y-192565600D01*
X184556000Y-192565600D01*
X184556000Y-190148400D01*
X184575707Y-190062057D01*
X184630926Y-189992816D01*
X184710718Y-189954389D01*
X184755000Y-189949400D01*
X186283200Y-189949400D01*
X188620000Y-184717000D01*
X188620000Y-170819000D01*
X188639707Y-170732657D01*
X188694926Y-170663416D01*
X188774718Y-170624989D01*
X188819000Y-170620000D01*
X193501000Y-170620000D01*
X193587343Y-170639707D01*
G37*
%TD.AperFunction*%
%TD*%
%TA.AperFunction,Conductor*%
%TO.N,Net-(JP2-B)*%
G36*
X156630343Y-206936307D02*
G01*
X156699584Y-206991526D01*
X156738011Y-207071318D01*
X156743000Y-207115600D01*
X156743000Y-209130600D01*
X156723293Y-209216943D01*
X156668074Y-209286184D01*
X156588282Y-209324611D01*
X156544000Y-209329600D01*
X155600000Y-209329600D01*
X155600000Y-215861600D01*
X155580293Y-215947943D01*
X155525074Y-216017184D01*
X155445282Y-216055611D01*
X155401000Y-216060600D01*
X153894000Y-216060600D01*
X153807657Y-216040893D01*
X153738416Y-215985674D01*
X153699989Y-215905882D01*
X153695000Y-215861600D01*
X153695000Y-215095400D01*
X152594151Y-215095400D01*
X152507808Y-215075693D01*
X152477181Y-215057394D01*
X152473539Y-215054748D01*
X152360507Y-214997155D01*
X152360504Y-214997154D01*
X152360502Y-214997153D01*
X152360500Y-214997153D01*
X152266719Y-214982300D01*
X151573893Y-214982300D01*
X151573891Y-214982300D01*
X150642800Y-214982300D01*
X150556457Y-214962593D01*
X150487216Y-214907374D01*
X150448789Y-214827582D01*
X150443800Y-214783300D01*
X150443800Y-213770400D01*
X150463507Y-213684057D01*
X150518726Y-213614816D01*
X150598518Y-213576389D01*
X150642800Y-213571400D01*
X153593400Y-213571400D01*
X153593400Y-207115600D01*
X153613107Y-207029257D01*
X153668326Y-206960016D01*
X153748118Y-206921589D01*
X153792400Y-206916600D01*
X156544000Y-206916600D01*
X156630343Y-206936307D01*
G37*
%TD.AperFunction*%
%TD*%
%TA.AperFunction,Conductor*%
%TO.N,Net-(JP1-C)*%
G36*
X141429243Y-214302307D02*
G01*
X141498484Y-214357526D01*
X141536911Y-214437318D01*
X141541900Y-214481600D01*
X141541900Y-215097190D01*
X141543150Y-215129019D01*
X141544489Y-215138697D01*
X141543426Y-215138844D01*
X141546900Y-215168189D01*
X141546900Y-215927718D01*
X141556223Y-215986579D01*
X141561753Y-216021500D01*
X141561754Y-216021503D01*
X141561754Y-216021505D01*
X141619350Y-216134542D01*
X141622509Y-216137701D01*
X141628044Y-216146509D01*
X141628556Y-216147214D01*
X141628508Y-216147248D01*
X141669630Y-216212688D01*
X141680800Y-216278420D01*
X141680800Y-216670200D01*
X145012400Y-216670200D01*
X145098743Y-216689907D01*
X145167984Y-216745126D01*
X145206411Y-216824918D01*
X145211400Y-216869200D01*
X145211400Y-225488200D01*
X145191693Y-225574543D01*
X145136474Y-225643784D01*
X145056682Y-225682211D01*
X145012400Y-225687200D01*
X138806400Y-225687200D01*
X138720057Y-225667493D01*
X138650816Y-225612274D01*
X138612389Y-225532482D01*
X138607400Y-225488200D01*
X138607400Y-219210200D01*
X135631400Y-219210200D01*
X135545057Y-219190493D01*
X135475816Y-219135274D01*
X135437389Y-219055482D01*
X135432400Y-219011200D01*
X135432400Y-216869200D01*
X135452107Y-216782857D01*
X135507326Y-216713616D01*
X135587118Y-216675189D01*
X135631400Y-216670200D01*
X140614000Y-216670200D01*
X140614000Y-216278420D01*
X140633707Y-216192077D01*
X140672291Y-216137701D01*
X140675450Y-216134542D01*
X140733046Y-216021504D01*
X140747900Y-215927719D01*
X140747899Y-215144432D01*
X140750350Y-215113295D01*
X140752900Y-215097200D01*
X140752900Y-214481600D01*
X140757889Y-214459741D01*
X140757889Y-214437318D01*
X140767617Y-214417116D01*
X140772607Y-214395257D01*
X140786588Y-214377725D01*
X140796316Y-214357526D01*
X140813846Y-214343546D01*
X140827826Y-214326016D01*
X140848025Y-214316288D01*
X140865557Y-214302307D01*
X140887416Y-214297317D01*
X140907618Y-214287589D01*
X140951900Y-214282600D01*
X141342900Y-214282600D01*
X141429243Y-214302307D01*
G37*
%TD.AperFunction*%
%TD*%
%TA.AperFunction,Conductor*%
%TO.N,GND*%
G36*
X168695343Y-206047307D02*
G01*
X168764584Y-206102526D01*
X168803011Y-206182318D01*
X168808000Y-206226600D01*
X168808000Y-224624600D01*
X168788293Y-224710943D01*
X168733074Y-224780184D01*
X168653282Y-224818611D01*
X168609000Y-224823600D01*
X165705000Y-224823600D01*
X165618657Y-224803893D01*
X165549416Y-224748674D01*
X165510989Y-224668882D01*
X165506000Y-224624600D01*
X165506000Y-207424600D01*
X160553000Y-207424600D01*
X160553000Y-209156000D01*
X160533293Y-209242343D01*
X160478074Y-209311584D01*
X160398282Y-209350011D01*
X160354000Y-209355000D01*
X157450000Y-209355000D01*
X157363657Y-209335293D01*
X157294416Y-209280074D01*
X157255989Y-209200282D01*
X157251000Y-209156000D01*
X157251000Y-206226600D01*
X157270707Y-206140257D01*
X157325926Y-206071016D01*
X157405718Y-206032589D01*
X157450000Y-206027600D01*
X168609000Y-206027600D01*
X168695343Y-206047307D01*
G37*
%TD.AperFunction*%
%TD*%
%TA.AperFunction,Conductor*%
%TO.N,GND*%
G36*
X126442378Y-153423221D02*
G01*
X126456730Y-153457869D01*
X126456730Y-156357069D01*
X126442378Y-156391717D01*
X126407730Y-156406069D01*
X123815130Y-156406069D01*
X123815130Y-158287469D01*
X123800778Y-158322117D01*
X123766130Y-158336469D01*
X121628930Y-158336469D01*
X121594282Y-158322117D01*
X121579930Y-158287469D01*
X121579930Y-153457869D01*
X121594282Y-153423221D01*
X121628930Y-153408869D01*
X126407730Y-153408869D01*
X126442378Y-153423221D01*
G37*
%TD.AperFunction*%
%TD*%
%TA.AperFunction,Conductor*%
%TO.N,9V_BAT_IN*%
G36*
X141390000Y-206831200D02*
G01*
X147321400Y-206831200D01*
X147356048Y-206845552D01*
X147370400Y-206880200D01*
X147370400Y-209607000D01*
X147356048Y-209641648D01*
X147321400Y-209656000D01*
X146951000Y-209656000D01*
X146951000Y-210940174D01*
X146916925Y-210813007D01*
X146851099Y-210698993D01*
X146758007Y-210605901D01*
X146643993Y-210540075D01*
X146516826Y-210506000D01*
X146385174Y-210506000D01*
X146258007Y-210540075D01*
X146143993Y-210605901D01*
X146050901Y-210698993D01*
X145985075Y-210813007D01*
X145951000Y-210940174D01*
X145951000Y-211071826D01*
X145985075Y-211198993D01*
X146050901Y-211313007D01*
X146143993Y-211406099D01*
X146258007Y-211471925D01*
X146385174Y-211506000D01*
X145101000Y-211506000D01*
X145101000Y-211903835D01*
X145102411Y-211916963D01*
X145091845Y-211952947D01*
X145058929Y-211970919D01*
X145053692Y-211971200D01*
X143944784Y-211971200D01*
X143941441Y-215986241D01*
X143927060Y-216020877D01*
X143892441Y-216035200D01*
X143492149Y-216035200D01*
X143457501Y-216020848D01*
X143443149Y-215986200D01*
X143443430Y-215980962D01*
X143447400Y-215944034D01*
X143447400Y-215646200D01*
X142496400Y-215646200D01*
X142461752Y-215631848D01*
X142447400Y-215597200D01*
X142447400Y-215146200D01*
X141996400Y-215146200D01*
X141961752Y-215131848D01*
X141947400Y-215097200D01*
X141947400Y-214646200D01*
X142947400Y-214646200D01*
X143447400Y-214646200D01*
X143447400Y-214348365D01*
X143440998Y-214288827D01*
X143440998Y-214288826D01*
X143390751Y-214154108D01*
X143304588Y-214039011D01*
X143189491Y-213952848D01*
X143054773Y-213902601D01*
X142995234Y-213896200D01*
X142947400Y-213896200D01*
X142947400Y-214646200D01*
X141947400Y-214646200D01*
X141947400Y-213900298D01*
X141928866Y-213886299D01*
X141927054Y-213883216D01*
X141923752Y-213881848D01*
X141917777Y-213867424D01*
X141909869Y-213853963D01*
X141910768Y-213850502D01*
X141909400Y-213847200D01*
X141909400Y-210828200D01*
X140998400Y-210828200D01*
X140963752Y-210813848D01*
X140949400Y-210779200D01*
X140949400Y-210108165D01*
X145101000Y-210108165D01*
X145101000Y-210506000D01*
X145951000Y-210506000D01*
X145951000Y-209656000D01*
X145553166Y-209656000D01*
X145493627Y-209662401D01*
X145493626Y-209662401D01*
X145358908Y-209712648D01*
X145243811Y-209798811D01*
X145157648Y-209913908D01*
X145107401Y-210048626D01*
X145107401Y-210048627D01*
X145101000Y-210108165D01*
X140949400Y-210108165D01*
X140949400Y-209937288D01*
X140936400Y-209905904D01*
X140936400Y-208564496D01*
X140938400Y-208559667D01*
X140938400Y-207130354D01*
X140934546Y-207121050D01*
X140934550Y-207120406D01*
X140937754Y-206876686D01*
X140952560Y-206842232D01*
X140987096Y-206828334D01*
X141390000Y-206831200D01*
G37*
%TD.AperFunction*%
%TD*%
%TA.AperFunction,Conductor*%
%TO.N,Net-(D5-A)*%
G36*
X164123343Y-208231707D02*
G01*
X164192584Y-208286926D01*
X164231011Y-208366718D01*
X164236000Y-208411000D01*
X164236000Y-216242600D01*
X164216293Y-216328943D01*
X164161074Y-216398184D01*
X164081282Y-216436611D01*
X164037000Y-216441600D01*
X158720000Y-216441600D01*
X158633657Y-216421893D01*
X158564416Y-216366674D01*
X158525989Y-216286882D01*
X158521000Y-216242600D01*
X158521000Y-211306600D01*
X158540707Y-211220257D01*
X158595926Y-211151016D01*
X158675718Y-211112589D01*
X158720000Y-211107600D01*
X161696000Y-211107600D01*
X161696000Y-208411000D01*
X161715707Y-208324657D01*
X161770926Y-208255416D01*
X161850718Y-208216989D01*
X161895000Y-208212000D01*
X164037000Y-208212000D01*
X164123343Y-208231707D01*
G37*
%TD.AperFunction*%
%TD*%
%TA.AperFunction,Conductor*%
%TO.N,TS*%
G36*
X135168048Y-210334552D02*
G01*
X135182400Y-210369200D01*
X135182400Y-215986200D01*
X135168048Y-216020848D01*
X135133400Y-216035200D01*
X133580361Y-216035200D01*
X133545713Y-216020848D01*
X133531361Y-215986239D01*
X133527439Y-211004239D01*
X133541764Y-210969579D01*
X133576400Y-210955200D01*
X134670400Y-210955200D01*
X134674093Y-210368890D01*
X134688663Y-210334334D01*
X134723092Y-210320200D01*
X135133400Y-210320200D01*
X135168048Y-210334552D01*
G37*
%TD.AperFunction*%
%TD*%
%TA.AperFunction,Conductor*%
%TO.N,BMS_BAT_IN*%
G36*
X136184048Y-210334552D02*
G01*
X136198400Y-210369200D01*
X136198400Y-211463200D01*
X140340400Y-211463200D01*
X140375048Y-211477552D01*
X140389400Y-211512200D01*
X140389400Y-213847200D01*
X140375048Y-213881848D01*
X140352349Y-213891250D01*
X140347400Y-213896200D01*
X140347400Y-215097200D01*
X140333048Y-215131848D01*
X140298400Y-215146200D01*
X139847400Y-215146200D01*
X139847400Y-215597200D01*
X139833048Y-215631848D01*
X139798400Y-215646200D01*
X138847400Y-215646200D01*
X138847400Y-215944034D01*
X138851370Y-215980962D01*
X138840804Y-216016946D01*
X138807889Y-216034919D01*
X138802651Y-216035200D01*
X135485400Y-216035200D01*
X135450752Y-216020848D01*
X135436400Y-215986200D01*
X135436400Y-214348365D01*
X138847400Y-214348365D01*
X138847400Y-214646200D01*
X139347400Y-214646200D01*
X139347400Y-213896200D01*
X139299566Y-213896200D01*
X139240027Y-213902601D01*
X139240026Y-213902601D01*
X139105308Y-213952848D01*
X138990211Y-214039011D01*
X138904048Y-214154108D01*
X138853801Y-214288826D01*
X138853801Y-214288827D01*
X138847400Y-214348365D01*
X135436400Y-214348365D01*
X135436400Y-210369200D01*
X135450752Y-210334552D01*
X135485400Y-210320200D01*
X136149400Y-210320200D01*
X136184048Y-210334552D01*
G37*
%TD.AperFunction*%
%TD*%
%TA.AperFunction,Conductor*%
%TO.N,+5V*%
G36*
X157773343Y-211127307D02*
G01*
X157842584Y-211182526D01*
X157881011Y-211262318D01*
X157886000Y-211306600D01*
X157886000Y-217330600D01*
X164672000Y-217330600D01*
X164758343Y-217350307D01*
X164827584Y-217405526D01*
X164866011Y-217485318D01*
X164871000Y-217529600D01*
X164871000Y-224624600D01*
X164851293Y-224710943D01*
X164796074Y-224780184D01*
X164716282Y-224818611D01*
X164672000Y-224823600D01*
X149068000Y-224823600D01*
X148981657Y-224803893D01*
X148912416Y-224748674D01*
X148873989Y-224668882D01*
X148869000Y-224624600D01*
X148869000Y-217730622D01*
X150235200Y-217730622D01*
X150241601Y-217790172D01*
X150241603Y-217790181D01*
X150291846Y-217924887D01*
X150291847Y-217924890D01*
X150378010Y-218039989D01*
X150493109Y-218126152D01*
X150493112Y-218126153D01*
X150627818Y-218176396D01*
X150627827Y-218176398D01*
X150687377Y-218182800D01*
X150985200Y-218182800D01*
X151985200Y-218182800D01*
X152283023Y-218182800D01*
X152342572Y-218176398D01*
X152342581Y-218176396D01*
X152477287Y-218126153D01*
X152477290Y-218126152D01*
X152592389Y-218039989D01*
X152678552Y-217924890D01*
X152678553Y-217924887D01*
X152728796Y-217790181D01*
X152728798Y-217790172D01*
X152735200Y-217730622D01*
X152735200Y-217682800D01*
X151985200Y-217682800D01*
X151985200Y-218182800D01*
X150985200Y-218182800D01*
X150985200Y-217682800D01*
X150235200Y-217682800D01*
X150235200Y-217730622D01*
X148869000Y-217730622D01*
X148869000Y-216894600D01*
X148888707Y-216808257D01*
X148943926Y-216739016D01*
X149023718Y-216700589D01*
X149068000Y-216695600D01*
X149632370Y-216695600D01*
X149658169Y-216700690D01*
X149676898Y-216700690D01*
X149707325Y-216710388D01*
X149707951Y-216710512D01*
X149708197Y-216710613D01*
X149708335Y-216710710D01*
X149708479Y-216710756D01*
X149708588Y-216710774D01*
X149708770Y-216710850D01*
X149800134Y-216748695D01*
X149800138Y-216748695D01*
X149800139Y-216748696D01*
X149974105Y-216783300D01*
X149974108Y-216783300D01*
X151597057Y-216783300D01*
X151597065Y-216783299D01*
X152266718Y-216783299D01*
X152360504Y-216768446D01*
X152473542Y-216710850D01*
X152473542Y-216710849D01*
X152486024Y-216704490D01*
X152488239Y-216703931D01*
X152490026Y-216702507D01*
X152520284Y-216695600D01*
X156108000Y-216695600D01*
X156108000Y-211306600D01*
X156127707Y-211220257D01*
X156182926Y-211151016D01*
X156262718Y-211112589D01*
X156307000Y-211107600D01*
X157687000Y-211107600D01*
X157773343Y-211127307D01*
G37*
%TD.AperFunction*%
%TD*%
M02*
