M48
; DRILL file {KiCad 9.0.5} date 2025-10-28T12:47:01-0400
; FORMAT={-:-/ absolute / metric / decimal}
; #@! TF.CreationDate,2025-10-28T12:47:01-04:00
; #@! TF.GenerationSoftware,Kicad,Pcbnew,9.0.5
; #@! TF.FileFunction,Plated,1,4,PTH
FMAT,2
METRIC
; #@! TA.AperFunction,Plated,PTH,ViaDrill
T1C0.300
; #@! TA.AperFunction,Plated,PTH,ViaDrill
T2C0.500
; #@! TA.AperFunction,Plated,PTH,ComponentDrill
T3C0.800
; #@! TA.AperFunction,Plated,PTH,ComponentDrill
T4C0.860
; #@! TA.AperFunction,Plated,PTH,ComponentDrill
T5C0.889
; #@! TA.AperFunction,Plated,PTH,ViaDrill
T6C1.000
; #@! TA.AperFunction,Plated,PTH,ComponentDrill
T7C1.000
; #@! TA.AperFunction,Plated,PTH,ComponentDrill
T8C1.200
; #@! TA.AperFunction,Plated,PTH,ComponentDrill
T9C1.320
; #@! TA.AperFunction,Plated,PTH,ComponentDrill
T10C2.000
; #@! TA.AperFunction,Plated,PTH,ComponentDrill
T11C2.500
; #@! TA.AperFunction,Plated,PTH,ComponentDrill
T12C5.410
%
G90
G05
T1
X132.43Y-202.298
X139.35Y-176.361
X139.98Y-175.561
X140.89Y-174.761
X169.09Y-196.878
T2
X122.799Y-154.526
X123.068Y-174.988
X124.018Y-177.078
X124.05Y-179.268
X124.129Y-213.495
X124.129Y-214.892
X124.267Y-171.108
X125.498Y-169.876
X125.99Y-119.598
X125.99Y-122.578
X125.99Y-125.578
X126.923Y-217.991
X126.923Y-219.388
X127.463Y-178.728
X127.463Y-180.125
X127.75Y-117.208
X127.772Y-173.325
X128.32Y-217.991
X128.32Y-219.388
X129.717Y-217.991
X129.717Y-219.388
X131.686Y-176.132
X131.686Y-178.9
X132.31Y-196.862
X133.99Y-125.598
X134.067Y-174.729
X134.067Y-176.126
X134.067Y-177.523
X134.067Y-178.92
X136.97Y-186.968
X137.109Y-169.604
X137.877Y-170.854
X138.03Y-119.538
X138.99Y-122.598
X139.16Y-116.368
X140.63Y-203.918
X141.179Y-173.267
X141.85Y-207.668
X141.85Y-209.192
X141.884Y-178.748
X141.99Y-122.598
X141.99Y-125.598
X142.06Y-115.398
X142.59Y-196.878
X143.374Y-207.668
X143.374Y-209.192
X143.535Y-178.748
X144.93Y-180.328
X144.93Y-182.468
X144.94Y-186.968
X145.58Y-173.378
X145.89Y-141.038
X146.59Y-174.378
X147.65Y-169.098
X147.66Y-161.178
X147.72Y-176.558
X148.89Y-140.998
X148.94Y-130.888
X149.99Y-122.598
X154.076Y-223.681
X154.33Y-218.372
X155.02Y-125.608
X155.346Y-223.681
X155.727Y-218.372
X156.616Y-223.681
X156.64Y-119.588
X156.997Y-218.372
X157.886Y-223.681
X157.99Y-125.598
X158.267Y-218.397
X159.156Y-223.681
X159.49Y-117.708
X159.537Y-218.397
X159.92Y-158.028
X160.67Y-115.618
X161.91Y-114.448
X162.99Y-122.598
X165.99Y-125.608
X166.649Y-207.45
X167.284Y-213.927
X167.284Y-215.197
X167.284Y-216.467
X167.284Y-217.737
X167.284Y-219.007
X167.284Y-220.277
X167.919Y-207.45
X170.99Y-122.598
X172.47Y-139.708
X172.78Y-176.338
X173.99Y-122.598
X173.99Y-125.598
X175.412Y-133.83
X177.34Y-132.188
X180.05Y-119.538
X181.4Y-158.098
X181.99Y-122.598
X181.99Y-125.598
X181.99Y-136.958
X182.94Y-132.208
X183.89Y-135.168
X186.58Y-133.808
X186.78Y-137.008
X187.03Y-135.178
X189.99Y-122.598
X189.99Y-125.598
X197.99Y-122.598
X197.99Y-125.598
X202.99Y-119.598
X202.99Y-125.598
X202.99Y-128.598
T3
X124.03Y-134.838
X124.03Y-137.338
X125.359Y-164.819
X128.81Y-161.368
X133.05Y-113.378
X135.59Y-113.378
X138.13Y-113.378
T4
X128.01Y-139.318
X128.01Y-147.258
X130.55Y-139.318
X130.55Y-147.258
X133.09Y-139.318
X133.09Y-147.258
X135.63Y-139.318
X135.63Y-147.258
X138.17Y-139.318
X138.17Y-147.258
X140.71Y-139.318
X140.71Y-147.258
X143.25Y-139.318
X143.25Y-147.258
X145.79Y-139.318
X145.79Y-147.258
T5
X160.03Y-142.328
X160.03Y-144.868
X160.03Y-147.408
X160.03Y-149.948
X167.65Y-142.328
X167.65Y-144.868
X167.65Y-147.408
X167.65Y-149.948
T6
X174.16Y-155.908
X174.18Y-151.918
X187.61Y-155.798
X191.09Y-159.878
X194.09Y-157.688
T7
X126.144Y-193.281
X126.144Y-195.821
X126.144Y-198.361
X126.144Y-200.901
X126.144Y-203.441
X126.144Y-205.981
X144.27Y-198.878
X146.451Y-211.006
X146.81Y-198.878
X147.218Y-190.991
X147.218Y-193.531
X148.991Y-211.006
X149.35Y-198.878
X150.82Y-183.468
X150.82Y-186.008
X151.89Y-198.878
X153.72Y-170.788
X153.72Y-173.328
X154.43Y-198.878
X155.59Y-137.438
X155.59Y-139.978
X155.59Y-142.518
X155.59Y-145.058
X155.59Y-147.598
X155.59Y-150.138
X155.59Y-152.678
X155.59Y-155.218
X155.59Y-157.758
X155.59Y-160.298
X156.97Y-198.878
X157.48Y-170.788
X157.48Y-173.328
X159.51Y-198.878
X159.634Y-183.467
X159.634Y-186.007
X161.28Y-170.868
X161.28Y-173.408
X162.05Y-198.878
X164.59Y-198.878
X165.75Y-170.778
X165.75Y-173.318
X165.811Y-190.986
X165.811Y-193.526
X167.13Y-198.878
X169.365Y-183.447
X169.365Y-185.987
X170.08Y-170.818
X170.08Y-173.358
X174.19Y-170.768
X174.19Y-173.308
X179.106Y-183.447
X179.106Y-185.987
X179.476Y-190.991
X179.476Y-193.531
T8
X132.49Y-74.174
X135.03Y-74.174
X137.57Y-74.174
X140.11Y-74.174
X142.65Y-74.174
X145.19Y-74.174
X147.73Y-74.174
X150.27Y-74.174
X152.81Y-74.174
X155.35Y-74.174
X157.89Y-74.174
X160.43Y-74.174
X162.97Y-74.174
X165.51Y-74.174
X168.05Y-74.174
X170.59Y-74.174
T9
X187.59Y-199.128
X187.59Y-221.628
X201.117Y-147.178
X201.117Y-169.678
T10
X128.447Y-222.766
X135.259Y-223.198
X141.909Y-222.766
T11
X126.991Y-74.174
X126.991Y-105.175
X201.989Y-105.175
X201.99Y-74.174
T12
X201.193Y-179.61
X201.193Y-198.61
X201.193Y-217.61
T7
G00X174.69Y-210.878
M15
G01X176.49Y-210.878
M16
G05
G00X174.74Y-224.578
M15
G01X176.44Y-224.578
M16
G05
G00X180.79Y-212.628
M15
G01X180.79Y-214.128
M16
G05
M30
